<?xml version="1.0" encoding="utf-8"?>
<!-- Generator: Adobe Illustrator 16.0.4, SVG Export Plug-In . SVG Version: 6.00 Build 0)  -->
<!DOCTYPE svg PUBLIC "-//W3C//DTD SVG 1.1//EN" "http://www.w3.org/Graphics/SVG/1.1/DTD/svg11.dtd">
<svg version="1.1" id="Capa_1" xmlns="http://www.w3.org/2000/svg" xmlns:xlink="http://www.w3.org/1999/xlink" x="0px" y="0px"
	 width="23.305px" height="13.695px" viewBox="0 0 23.305 13.695" enable-background="new 0 0 23.305 13.695" xml:space="preserve">
<path d="M11.648,6.211c1.723,0,3.108-1.393,3.108-3.105C14.758,1.389,13.371,0,11.648,0C9.937,0,8.548,1.389,8.548,3.106
	C8.548,4.82,9.937,6.211,11.648,6.211z"/>
<path d="M14.141,6.717H9.163c-0.89,0-1.619,0.816-1.619,1.817v5c0,0.055,0.028,0.104,0.031,0.161h8.152
	c0.006-0.057,0.029-0.106,0.029-0.161v-5C15.758,7.533,15.03,6.717,14.141,6.717z"/>
<path d="M20.008,7.693c1.382,0,2.492-1.113,2.492-2.488s-1.11-2.49-2.492-2.49c-1.373,0-2.484,1.115-2.484,2.49
	C17.522,6.579,18.635,7.693,20.008,7.693z"/>
<path d="M22.007,8.099h-3.99c-0.715,0-1.3,0.655-1.3,1.459v4.007c0,0.043,0.022,0.084,0.024,0.13h6.538
	c0.003-0.046,0.024-0.087,0.024-0.13V9.558C23.304,8.753,22.72,8.099,22.007,8.099z"/>
<path d="M3.292,7.693c1.381,0,2.491-1.113,2.491-2.488s-1.11-2.49-2.491-2.49c-1.374,0-2.485,1.115-2.485,2.49
	S1.918,7.693,3.292,7.693L3.292,7.693z"/>
<path d="M5.29,8.099H1.297C0.583,8.099,0,8.753,0,9.558v4.007c0,0.043,0.021,0.084,0.025,0.13h6.538
	c0.003-0.046,0.022-0.087,0.022-0.13V9.558C6.587,8.753,6.003,8.099,5.29,8.099z"/>
</svg>
