<?xml version="1.0" encoding="utf-8"?>
<!-- Generator: Adobe Illustrator 16.0.4, SVG Export Plug-In . SVG Version: 6.00 Build 0)  -->
<!DOCTYPE svg PUBLIC "-//W3C//DTD SVG 1.1//EN" "http://www.w3.org/Graphics/SVG/1.1/DTD/svg11.dtd">
<svg version="1.1" id="Capa_1" xmlns="http://www.w3.org/2000/svg" xmlns:xlink="http://www.w3.org/1999/xlink" x="0px" y="0px"
	 width="19.303px" height="23.303px" viewBox="0 0 19.303 23.303" enable-background="new 0 0 19.303 23.303" xml:space="preserve">
<path d="M19.268,18.075c-0.149-0.579-0.741-0.929-1.319-0.779c0,0-0.873,0.226-1.649,0.427c-0.406-1.391-1.729-5.962-1.729-5.962
	s-5.398,1.513-6.979,1.956c-0.111-0.521-0.299-1.381-0.508-2.332h3.937c0.601,0,1.085-0.485,1.085-1.084
	c0-0.598-0.484-1.083-1.085-1.083H6.6C6.252,7.666,5.954,6.354,5.954,6.354c-0.123-0.585-0.697-0.96-1.283-0.837
	C4.087,5.637,3.71,6.212,3.832,6.796l2.107,9.632c0,0,5.639-1.581,7.145-2.003c0.408,1.409,1.719,5.921,1.719,5.921l3.685-0.952
	C19.068,19.244,19.417,18.655,19.268,18.075z"/>
<path d="M10.769,15.975c0.051,0.267,0.08,0.542,0.08,0.822c0,2.393-1.947,4.341-4.343,4.341c-1.157,0-2.251-0.452-3.068-1.271
	c-0.818-0.819-1.271-1.91-1.271-3.069c0-1.161,0.452-2.251,1.271-3.072c0.274-0.273,0.581-0.504,0.91-0.692l-0.46-2.195
	c-0.729,0.321-1.404,0.777-1.981,1.357C0.675,13.422,0,15.057,0,16.796c0,1.737,0.675,3.372,1.904,4.601
	c1.23,1.229,2.863,1.906,4.602,1.906c3.442,0,6.265-2.683,6.494-6.065c-0.215-0.739-0.404-1.39-0.507-1.746
	C12.163,15.584,11.527,15.761,10.769,15.975z"/>
<circle cx="4.83" cy="2.44" r="2.439"/>
</svg>
