<?xml version="1.0" encoding="utf-8"?>
<!-- Generator: Adobe Illustrator 16.0.4, SVG Export Plug-In . SVG Version: 6.00 Build 0)  -->
<!DOCTYPE svg PUBLIC "-//W3C//DTD SVG 1.1//EN" "http://www.w3.org/Graphics/SVG/1.1/DTD/svg11.dtd">
<svg version="1.1" id="Capa_1" xmlns="http://www.w3.org/2000/svg" xmlns:xlink="http://www.w3.org/1999/xlink" x="0px" y="0px"
	 width="23.303px" height="23.305px" viewBox="0 0 23.303 23.305" enable-background="new 0 0 23.303 23.305" xml:space="preserve">
<g>
	<path d="M23.301,19.997L16.307,13l-0.906,0.551l-1.37-1.328c2.156-3.023,1.887-7.245-0.824-9.957
		c-3.023-3.021-7.92-3.02-10.941,0.001c-3.02,3.02-3.02,7.918,0,10.941c2.715,2.716,6.94,2.98,9.963,0.819l1.285,1.238l-0.519,1.046
		l6.994,6.994c0,0,1.524,0.017,2.44-1.03S23.301,19.997,23.301,19.997z M3.521,11.951c-2.326-2.328-2.325-6.1,0.003-8.426
		c2.32-2.326,6.099-2.329,8.428-0.001c2.322,2.327,2.323,6.098-0.005,8.428C9.623,14.276,5.85,14.277,3.521,11.951z"/>
	<polygon points="6.932,9.237 3.383,6.442 2.833,7.214 7.106,11.796 11.8,5.246 11.298,4.58 	"/>
</g>
</svg>
