<?xml version="1.0" encoding="utf-8"?>
<!-- Generator: Adobe Illustrator 16.0.4, SVG Export Plug-In . SVG Version: 6.00 Build 0)  -->
<!DOCTYPE svg PUBLIC "-//W3C//DTD SVG 1.1//EN" "http://www.w3.org/Graphics/SVG/1.1/DTD/svg11.dtd">
<svg version="1.1" id="Capa_1" xmlns="http://www.w3.org/2000/svg" xmlns:xlink="http://www.w3.org/1999/xlink" x="0px" y="0px"
	 width="23.305px" height="21.898px" viewBox="0 0 23.305 21.898" enable-background="new 0 0 23.305 21.898" xml:space="preserve">
<g>
	<path d="M17.75,8.51V1.924C17.75,0.866,16.884,0,15.825,0h-13.9C0.866,0,0,0.866,0,1.924v13.9c0,1.058,0.866,1.924,1.925,1.924
		h8.399c1.019,2.437,3.423,4.149,6.229,4.149c3.728,0,6.75-3.022,6.75-6.75C23.303,11.828,20.906,9.075,17.75,8.51z M9.878,16.099
		H1.457V3.99h14.836v4.42c-3.606,0.138-6.489,3.096-6.489,6.737C9.803,15.471,9.834,15.788,9.878,16.099z M20.281,16.464h-2.498
		v2.498h-2.459v-2.498h-2.498v-2.459h2.498v-2.498h2.459v2.498h2.498V16.464z"/>
</g>
</svg>
