<?xml version="1.0" encoding="utf-8"?>
<!-- Generator: Adobe Illustrator 16.0.4, SVG Export Plug-In . SVG Version: 6.00 Build 0)  -->
<!DOCTYPE svg PUBLIC "-//W3C//DTD SVG 1.1//EN" "http://www.w3.org/Graphics/SVG/1.1/DTD/svg11.dtd">
<svg version="1.1" id="Capa_1" xmlns="http://www.w3.org/2000/svg" xmlns:xlink="http://www.w3.org/1999/xlink" x="0px" y="0px"
	 width="18.986px" height="22px" viewBox="0 0 18.986 22" enable-background="new 0 0 18.986 22" xml:space="preserve">
<g>
	<path d="M11.007,19.021c-0.822,0-1.49,0.668-1.49,1.492c0,0.819,0.668,1.485,1.49,1.485c0.821,0,1.488-0.666,1.488-1.485
		C12.495,19.689,11.828,19.021,11.007,19.021z"/>
	<path d="M2.886,19.021c-0.823,0-1.49,0.668-1.49,1.492c0,0.819,0.667,1.485,1.49,1.485c0.822,0,1.488-0.666,1.488-1.485
		C4.375,19.689,3.709,19.021,2.886,19.021z"/>
	<path d="M18.942,4.383c-0.132-0.347-0.521-0.522-0.868-0.392l-3.536,1.335c-0.194,0.074-0.344,0.232-0.406,0.431l-0.525,1.69H1.102
		C0.937,7.306,0.712,7.238,0.488,7.302C0.129,7.406-0.077,7.779,0.026,8.139l1.938,6.742c0.082,0.288,0.348,0.488,0.647,0.488h8.542
		c-0.186,0.637-0.422,1.454-0.537,1.854c-0.896,0-8.089,0-8.089,0c-0.371,0-0.674,0.301-0.674,0.674
		c0,0.375,0.303,0.676,0.674,0.676h8.596c0.301,0,0.563-0.198,0.648-0.486l0.927-3.204c0.053-0.167,2.443-7.832,2.623-8.408
		c0.514-0.194,3.229-1.219,3.229-1.219c0.269-0.104,0.436-0.359,0.436-0.632C18.986,4.544,18.971,4.463,18.942,4.383z
		 M11.554,14.021H3.12c-0.057-0.191-0.18-0.629-0.339-1.178h9.14L11.554,14.021z M12.261,11.755H2.469
		c-0.101-0.348-0.203-0.706-0.306-1.063h10.43L12.261,11.755z M12.934,9.602H1.849C1.734,9.198,1.63,8.835,1.544,8.536h11.722
		L12.934,9.602z"/>
	<polygon points="11.528,3.036 9.369,3.036 9.369,0 5.979,0 5.979,3.036 3.822,3.036 7.676,6.891 	"/>
</g>
</svg>
