<?xml version="1.0" encoding="utf-8"?>
<!-- Generator: Adobe Illustrator 16.0.4, SVG Export Plug-In . SVG Version: 6.00 Build 0)  -->
<!DOCTYPE svg PUBLIC "-//W3C//DTD SVG 1.1//EN" "http://www.w3.org/Graphics/SVG/1.1/DTD/svg11.dtd">
<svg version="1.1" id="Capa_1" xmlns="http://www.w3.org/2000/svg" xmlns:xlink="http://www.w3.org/1999/xlink" x="0px" y="0px"
	 width="23.527px" height="19.926px" viewBox="0 0 23.527 19.926" enable-background="new 0 0 23.527 19.926" xml:space="preserve">
<g>
	<path d="M11.816,10.361c0.402-0.594,0.686-1.275,0.823-2.004h2.018V8.356V6.303h-2.019c-0.139-0.734-0.421-1.412-0.823-2.005
		l1.423-1.424L11.785,1.42L10.36,2.844C9.768,2.44,9.087,2.158,8.355,2.017V0H6.302v2.017C5.57,2.16,4.89,2.44,4.299,2.844
		L2.874,1.42L1.419,2.872l1.425,1.426c-0.402,0.593-0.685,1.27-0.825,2.005H0v2.054h2.019c0.142,0.729,0.424,1.41,0.825,2.004
		l-1.425,1.425l1.455,1.452l1.423-1.425C4.89,12.215,5.57,12.5,6.302,12.64v2.019h2.055V12.64c0.73-0.14,1.412-0.425,2.005-0.825
		l1.425,1.423l1.453-1.452L11.816,10.361z M7.328,9.569c-1.236,0-2.24-1.005-2.24-2.242c0-1.238,1.004-2.24,2.24-2.24
		c1.237,0,2.242,1.002,2.242,2.24C9.57,8.564,8.565,9.569,7.328,9.569z"/>
	<path d="M23.527,15.133v-1.562h-1.534c-0.105-0.557-0.319-1.073-0.627-1.524l1.082-1.082L21.343,9.86l-1.081,1.082
		c-0.451-0.307-0.97-0.521-1.523-0.629V8.779h-1.562v1.534c-0.557,0.109-1.073,0.322-1.523,0.629L14.568,9.86l-1.105,1.104
		l1.082,1.084c-0.306,0.451-0.521,0.969-0.629,1.524h-1.533v1.562h1.533c0.107,0.554,0.323,1.074,0.629,1.523l-1.082,1.082
		l1.105,1.105l1.082-1.084c0.45,0.308,0.968,0.523,1.523,0.631v1.535h1.562v-1.535c0.555-0.107,1.072-0.322,1.522-0.628l1.082,1.081
		l1.105-1.105l-1.082-1.082c0.308-0.449,0.521-0.971,0.627-1.523H23.527z M17.955,16.057c-0.939,0-1.704-0.764-1.704-1.706
		c0-0.94,0.765-1.702,1.704-1.702c0.941,0,1.704,0.762,1.704,1.702C19.659,15.293,18.896,16.057,17.955,16.057z"/>
</g>
</svg>
