<?xml version="1.0" encoding="utf-8"?>
<!-- Generator: Adobe Illustrator 16.0.4, SVG Export Plug-In . SVG Version: 6.00 Build 0)  -->
<!DOCTYPE svg PUBLIC "-//W3C//DTD SVG 1.1//EN" "http://www.w3.org/Graphics/SVG/1.1/DTD/svg11.dtd">
<svg version="1.1" id="Capa_1" xmlns="http://www.w3.org/2000/svg" xmlns:xlink="http://www.w3.org/1999/xlink" x="0px" y="0px"
	 width="23.412px" height="23.303px" viewBox="0 0 23.412 23.303" enable-background="new 0 0 23.412 23.303" xml:space="preserve">
<g>
	<path d="M6.23,15.152H1.526C0.689,15.152,0,15.922,0,16.869v4.719c0,0.943,0.689,1.715,1.526,1.715H6.23
		c0.837,0,1.524-0.771,1.524-1.715v-4.719C7.754,15.922,7.068,15.152,6.23,15.152z"/>
	<circle cx="3.875" cy="11.742" r="2.932"/>
	<path d="M21.886,15.152h-4.703c-0.836,0-1.524,0.771-1.524,1.718v4.719c0,0.943,0.688,1.715,1.524,1.715h4.703
		c0.84,0,1.525-0.771,1.525-1.715v-4.719C23.412,15.922,22.726,15.152,21.886,15.152z"/>
	<path d="M19.533,14.674c1.624,0,2.934-1.312,2.934-2.932s-1.31-2.932-2.934-2.932c-1.618,0-2.929,1.312-2.929,2.932
		S17.915,14.674,19.533,14.674z"/>
	<polygon points="12.365,17.798 9.287,17.798 9.287,19.708 12.365,19.708 12.365,21.021 14.634,18.752 12.365,16.484 	"/>
	<path d="M14.479,6.659c-0.262-0.262-0.6-0.483-1.015-0.667c-0.215-0.094-0.657-0.226-1.33-0.398V1.778
		c0.433,0.088,0.774,0.273,1.021,0.552c0.248,0.277,0.41,0.681,0.492,1.205l1.371-0.208c-0.119-0.85-0.468-1.515-1.047-2.001
		c-0.451-0.383-1.063-0.61-1.835-0.685V0h-0.789v0.641c-0.884,0.09-1.546,0.329-1.994,0.726C8.681,1.951,8.346,2.717,8.346,3.663
		c0,0.532,0.114,1.008,0.343,1.428C8.92,5.509,9.246,5.835,9.673,6.073c0.57,0.32,1.129,0.551,1.674,0.69v4.18
		c-0.522-0.056-0.968-0.319-1.341-0.792C9.748,9.815,9.565,9.29,9.462,8.574L8.118,8.831c0.051,0.693,0.226,1.277,0.53,1.758
		c0.301,0.479,0.661,0.827,1.077,1.041c0.416,0.216,0.955,0.367,1.622,0.45v1.332v0.001h0.788V12.06
		c0.931-0.044,1.692-0.374,2.277-0.991c0.589-0.616,0.882-1.387,0.882-2.309c0-0.419-0.07-0.809-0.21-1.169
		C14.942,7.231,14.742,6.921,14.479,6.659z M11.347,5.388c-0.605-0.155-1.034-0.385-1.288-0.689
		C9.807,4.392,9.677,4.015,9.677,3.563c0-0.459,0.15-0.854,0.448-1.188c0.299-0.333,0.705-0.542,1.222-0.62V5.388z M13.415,10.271
		c-0.336,0.383-0.764,0.608-1.28,0.672V6.966c0.714,0.184,1.192,0.424,1.431,0.716c0.238,0.293,0.354,0.68,0.354,1.163
		C13.92,9.412,13.752,9.885,13.415,10.271z"/>
</g>
</svg>
