<?xml version="1.0" encoding="utf-8"?>
<!-- Generator: Adobe Illustrator 16.0.4, SVG Export Plug-In . SVG Version: 6.00 Build 0)  -->
<!DOCTYPE svg PUBLIC "-//W3C//DTD SVG 1.1//EN" "http://www.w3.org/Graphics/SVG/1.1/DTD/svg11.dtd">
<svg version="1.1" id="Capa_1" xmlns="http://www.w3.org/2000/svg" xmlns:xlink="http://www.w3.org/1999/xlink" x="0px" y="0px"
	 width="20.223px" height="23.303px" viewBox="0 0 20.223 23.303" enable-background="new 0 0 20.223 23.303" xml:space="preserve">
<path d="M16.118,11.304l0.747,0.573c-1.076,1.267-3.096,2.214-5.478,2.508V5.44c0.944-0.472,1.6-1.437,1.6-2.563
	C12.988,1.287,11.7,0,10.111,0S7.234,1.287,7.234,2.876c0,1.127,0.655,2.092,1.6,2.563v8.944c-2.382-0.292-4.399-1.241-5.478-2.508
	l0.748-0.573L0,9.451l0.528,4.594l0.938-0.717c1.5,1.832,4.176,3.104,7.367,3.422v1.54H7.11l2.999,5.013l3.003-5.013h-1.724v-1.54
	c3.192-0.317,5.868-1.591,7.369-3.422l0.935,0.717l0.53-4.594L16.118,11.304z M10.111,4.175c-0.718,0-1.298-0.581-1.298-1.299
	s0.581-1.298,1.298-1.298c0.718,0,1.299,0.58,1.299,1.298S10.828,4.175,10.111,4.175z"/>
</svg>
