<svg width="19.525" xmlns="http://www.w3.org/2000/svg" height="23.304" viewBox="0 0 19.525 23.304" xmlns:xlink="http://www.w3.org/1999/xlink" enable-background="new 0 0 19.525 23.304">
<path d="m0,0v23.304h19.525v-23.304h-19.525zm18.293,1.231c0,1.131 0,19.709 0,20.84-1.11,0-15.949,0-17.06,0 0-1.131 0-19.709 0-20.84 1.111-0 15.95-0 17.06-0z"/>
<path d="m3.042,17.191h13.672v1.233h-13.672z"/>
<path d="m3.042,2.867h13.672v1.852h-13.672z"/>
<path d="m3.042,19.693h13.672v1.235h-13.672z"/>
<path d="m2.985,16.037h3.303v-10.089h-3.303v10.089zm4.956,0h3.3v-7.225h-3.3v7.225zm4.679-4.235v4.235h3.304v-4.235h-3.304z"/>
</svg>
