<?xml version="1.0" encoding="utf-8"?>
<!-- Generator: Adobe Illustrator 16.0.4, SVG Export Plug-In . SVG Version: 6.00 Build 0)  -->
<!DOCTYPE svg PUBLIC "-//W3C//DTD SVG 1.1//EN" "http://www.w3.org/Graphics/SVG/1.1/DTD/svg11.dtd">
<svg version="1.1" id="Capa_1" xmlns="http://www.w3.org/2000/svg" xmlns:xlink="http://www.w3.org/1999/xlink" x="0px" y="0px"
	 width="22.047px" height="23.305px" viewBox="0 0 22.047 23.305" enable-background="new 0 0 22.047 23.305" xml:space="preserve">
<rect y="7.083" width="3.055" height="8.926"/>
<polygon points="4.618,16.063 13.678,23.303 13.678,0 4.618,7.241 "/>
<path d="M15.208,3.521V5.26c2.935,0.648,5.129,3.264,5.129,6.393c0,3.13-2.194,5.742-5.129,6.394v1.739
	c3.884-0.677,6.839-4.055,6.839-8.133S19.092,4.196,15.208,3.521z"/>
<path d="M18.781,11.652c0-2.294-1.504-4.22-3.573-4.887v1.123c1.47,0.616,2.505,2.064,2.505,3.764c0,1.696-1.035,3.146-2.505,3.763
	v1.126C17.277,15.873,18.781,13.946,18.781,11.652z"/>
</svg>
