<?xml version="1.0" encoding="utf-8"?>
<!-- Generator: Adobe Illustrator 16.0.4, SVG Export Plug-In . SVG Version: 6.00 Build 0)  -->
<!DOCTYPE svg PUBLIC "-//W3C//DTD SVG 1.1//EN" "http://www.w3.org/Graphics/SVG/1.1/DTD/svg11.dtd">
<svg version="1.1" id="Capa_1" xmlns="http://www.w3.org/2000/svg" xmlns:xlink="http://www.w3.org/1999/xlink" x="0px" y="0px"
	 width="23.303px" height="22.16px" viewBox="0 0 23.303 22.16" enable-background="new 0 0 23.303 22.16" xml:space="preserve">
<g>
	<path d="M19.848,10.888h2.187c-0.166-2.304-1.069-4.401-2.483-6.055l-1.563,1.563l-1.079-1.08l1.566-1.566
		c-1.647-1.442-3.746-2.376-6.061-2.562v2.268h-1.526V1.179C8.55,1.329,6.421,2.236,4.746,3.667l1.649,1.648l-1.08,1.08L3.663,4.743
		c-1.459,1.668-2.396,3.798-2.565,6.146h2.358v1.526H1.097c0.393,5.445,4.923,9.744,10.468,9.744s10.076-4.299,10.469-9.744h-2.187
		V10.888z M11.652,17.971c-1.118,0-2.024-0.905-2.024-2.025c0-0.827,0.498-1.538,1.212-1.851L11.6,7.062l0.187,0.002l0.692,7.034
		c0.706,0.319,1.199,1.022,1.199,1.848C13.678,17.066,12.771,17.971,11.652,17.971z"/>
</g>
</svg>
