<?xml version="1.0" encoding="utf-8"?>
<!-- Generator: Adobe Illustrator 16.0.4, SVG Export Plug-In . SVG Version: 6.00 Build 0)  -->
<!DOCTYPE svg PUBLIC "-//W3C//DTD SVG 1.1//EN" "http://www.w3.org/Graphics/SVG/1.1/DTD/svg11.dtd">
<svg version="1.1" id="Capa_1" xmlns="http://www.w3.org/2000/svg" xmlns:xlink="http://www.w3.org/1999/xlink" x="0px" y="0px"
	 width="17.316px" height="23.303px" viewBox="0 0 17.316 23.303" enable-background="new 0 0 17.316 23.303" xml:space="preserve">
<g>
	<path d="M17.316,7.788c0-6.568-5.271-8.102-8.961-7.739C4.668,0.408,1.456,2.328,1.456,5.564c0,3.24-0.212,4.354-0.212,4.354
		l0.67,0.907c0,0-2.084,3.446-1.902,3.896c0.179,0.449,1.887,0.762,1.887,0.762s0.139,0.229,0,2.442
		c-0.151,2.508,1.674,2.595,3.013,2.407c0.646-0.09,1.107-0.194,1.548-0.31L6.838,23.3h9.146l-1.358-6.966
		C15.165,14.07,17.316,12.775,17.316,7.788z M7.207,10.51l3.119-3.654H3.769V6.855l7.419-4.78L8.177,5.512h6.396L7.207,10.51z"/>
</g>
</svg>
