<?xml version="1.0" encoding="utf-8"?>
<!-- Generator: Adobe Illustrator 16.0.4, SVG Export Plug-In . SVG Version: 6.00 Build 0)  -->
<!DOCTYPE svg PUBLIC "-//W3C//DTD SVG 1.1//EN" "http://www.w3.org/Graphics/SVG/1.1/DTD/svg11.dtd">
<svg version="1.1" id="Capa_1" xmlns="http://www.w3.org/2000/svg" xmlns:xlink="http://www.w3.org/1999/xlink" x="0px" y="0px"
	 width="18.404px" height="23.303px" viewBox="0 0 18.404 23.303" enable-background="new 0 0 18.404 23.303" xml:space="preserve">
<g>
	<path d="M14.659,20.362c-0.575-1.021-3.382-6.159-3.108-8.675c0.179-1.631,0.606-2.635,0.977-3.231
		c0.956-0.893,1.563-2.155,1.563-3.566c0-2.7-2.188-4.889-4.888-4.889C6.502,0,4.315,2.189,4.315,4.889
		c0,1.411,0.606,2.674,1.564,3.566c0.369,0.597,0.796,1.601,0.974,3.231c0.275,2.516-2.531,7.653-3.105,8.675H0v2.94h18.404v-2.94
		H14.659z M11.309,1.445c0.77,0.001,1.397,0.629,1.397,1.396c0,0.774-0.628,1.399-1.397,1.399c-0.771,0-1.398-0.625-1.398-1.399
		C9.911,2.073,10.538,1.445,11.309,1.445z"/>
</g>
</svg>
