<?xml version="1.0" encoding="utf-8"?>
<!-- Generator: Adobe Illustrator 16.0.4, SVG Export Plug-In . SVG Version: 6.00 Build 0)  -->
<!DOCTYPE svg PUBLIC "-//W3C//DTD SVG 1.1//EN" "http://www.w3.org/Graphics/SVG/1.1/DTD/svg11.dtd">
<svg version="1.1" id="Capa_1" xmlns="http://www.w3.org/2000/svg" xmlns:xlink="http://www.w3.org/1999/xlink" x="0px" y="0px"
	 width="23.303px" height="21.625px" viewBox="0 0 23.303 21.625" enable-background="new 0 0 23.303 21.625" xml:space="preserve">
<path d="M10.72,14.075l-2.046,0.771l0.308,0.837c0.558,1.517-0.059,3.142-1.371,3.621s-2.832-0.359-3.387-1.875L2.39,12.435
	C1.834,10.917,2.45,9.293,3.763,8.811c1.312-0.479,2.831,0.36,3.386,1.876l0.438,1.188l2.045-0.771l-0.43-1.171
	C8.231,7.287,5.452,5.86,3.009,6.759c-2.444,0.896-3.642,3.778-2.674,6.429l1.834,4.993c0.971,2.647,3.751,4.073,6.194,3.177
	s3.642-3.779,2.671-6.426L10.72,14.075z"/>
<path d="M12.583,14.075l2.045,0.771l-0.308,0.837c-0.557,1.517,0.06,3.142,1.371,3.621c1.312,0.479,2.832-0.359,3.388-1.875
	l1.835-4.995c0.555-1.518-0.062-3.142-1.374-3.624c-1.312-0.479-2.831,0.36-3.387,1.876l-0.438,1.189l-2.043-0.771l0.429-1.171
	c0.97-2.647,3.749-4.074,6.192-3.176c2.442,0.896,3.642,3.778,2.673,6.429l-1.833,4.993c-0.971,2.647-3.751,4.073-6.195,3.177
	c-2.441-0.896-3.641-3.779-2.67-6.426L12.583,14.075z"/>
<path d="M4.289,1.94l1.509,2.749L7.27,3.882l-1.51-2.75L4.289,1.94z M17.543,1.132l-1.51,2.75l1.472,0.808l1.51-2.749L17.543,1.132z
	 M10.754,3.024h1.794V0h-1.794V3.024z"/>
</svg>
