<?xml version="1.0" encoding="utf-8"?>
<!-- Generator: Adobe Illustrator 16.0.4, SVG Export Plug-In . SVG Version: 6.00 Build 0)  -->
<!DOCTYPE svg PUBLIC "-//W3C//DTD SVG 1.1//EN" "http://www.w3.org/Graphics/SVG/1.1/DTD/svg11.dtd">
<svg version="1.1" id="Capa_1" xmlns="http://www.w3.org/2000/svg" xmlns:xlink="http://www.w3.org/1999/xlink" x="0px" y="0px"
	 width="22.961px" height="23.303px" viewBox="0 0 22.961 23.303" enable-background="new 0 0 22.961 23.303" xml:space="preserve">
<g>
	<path d="M13.985,18.875c0.021-0.011,0.043-0.021,0.064-0.031c-0.008-0.012-0.016-0.022-0.023-0.034
		C14.014,18.829,13.998,18.855,13.985,18.875z"/>
	<path d="M9.887,18.56c-1.659,0-3.205-0.476-4.524-1.287c1.187,0.012-0.883-1.806,0.543-2.085c1.496-0.294,2.126-2.005,1.647-1.979
		c-0.478,0.025-1.388-0.247-2.028-1.051c-0.641-0.81-1.202-0.625-1.863-0.498c-0.578,0.114-1.29,1.786-1.467,2.225
		c-0.45-0.862-0.755-1.809-0.893-2.81c0.734-0.384,1.932-1.03,2.365-1.387c0.638-0.529-0.213-0.743-0.318-1.062
		c-0.104-0.319,0-1.062,0-1.8c0-0.745,1.486-0.745,2.013-1.486c0.379-0.529-0.315-1.696-0.748-2.328
		c1.463-1.126,3.289-1.803,5.273-1.803c0.526,0,1.039,0.055,1.54,0.145c0.147,0.914,0.453,2.171,1.044,2.499
		c0.957,0.53,2.115,1.697,2.543,1.907c0.426,0.212,0.953,2.018,0.849,2.76c-0.075,0.524-0.725,1.101-0.991,1.656l4.42,2.754
		c0.312-0.96,0.484-1.981,0.484-3.044C19.776,4.434,15.338,0,9.888,0C4.435,0,0,4.434,0,9.886c0,5.453,4.435,9.889,9.888,9.889
		c0.207,0,0.409-0.019,0.613-0.031L10.27,18.54C10.142,18.546,10.016,18.56,9.887,18.56z M18.456,11.166
		c-0.187-0.742-0.549-1.458-1.319-2.011C16.61,8.783,16.18,7.141,16.5,6.609c0.191-0.317,0.688-0.596,1.054-0.77
		c0.641,1.209,1.007,2.585,1.007,4.047C18.561,10.322,18.518,10.747,18.456,11.166z"/>
	<path d="M15.897,15.505l4.129-0.823L9.682,8.237l-0.244,0.17l2.303,11.965l2.248-3.557l2.18,3.176
		c0.414,0.598,1.174,0.791,1.701,0.43c0.524-0.362,0.618-1.142,0.207-1.741L15.897,15.505z"/>
</g>
</svg>
