<?xml version="1.0" encoding="utf-8"?>
<!-- Generator: Adobe Illustrator 16.0.4, SVG Export Plug-In . SVG Version: 6.00 Build 0)  -->
<!DOCTYPE svg PUBLIC "-//W3C//DTD SVG 1.1//EN" "http://www.w3.org/Graphics/SVG/1.1/DTD/svg11.dtd">
<svg version="1.1" id="Capa_1" xmlns="http://www.w3.org/2000/svg" xmlns:xlink="http://www.w3.org/1999/xlink" x="0px" y="0px"
	 width="21px" height="21.557px" viewBox="0 0 21 21.557" enable-background="new 0 0 21 21.557" xml:space="preserve">
<path d="M3.51,1.069c0.134,0.024,3.251,0.653,3.92,4.166C6.582,6.131,6.056,7.387,6.056,8.782c0,0.013,0.001,0.025,0.001,0.037
	h8.886c0-0.012,0.002-0.024,0.002-0.037c0-1.396-0.528-2.651-1.377-3.548c0.67-3.513,3.789-4.142,3.924-4.166
	c0.29-0.054,0.484-0.333,0.432-0.627c-0.056-0.293-0.333-0.485-0.625-0.434c-0.039,0.007-3.63,0.702-4.66,4.47
	c-0.636-0.386-1.363-0.604-2.139-0.604c-0.773,0-1.502,0.22-2.138,0.604c-1.03-3.768-4.621-4.463-4.659-4.47
	C3.41-0.045,3.133,0.149,3.077,0.442C3.023,0.736,3.218,1.016,3.51,1.069z"/>
<path d="M20.968,6.291c0.117-0.38-0.095-0.782-0.474-0.9c-0.381-0.116-0.781,0.095-0.898,0.476c0,0-0.879,2.834-1.066,3.441
	c-0.383,0.105-1.545,0.433-2.35,0.654c-0.029-0.128-0.054-0.257-0.082-0.382H4.904C4.872,9.705,4.848,9.834,4.821,9.962
	C4.015,9.74,2.851,9.413,2.47,9.308C2.282,8.699,1.404,5.865,1.404,5.865C1.288,5.485,0.883,5.274,0.505,5.39
	c-0.38,0.118-0.59,0.521-0.472,0.9l1.297,4.19l3.283,0.912c-0.025,0.307-0.041,0.611-0.041,0.925c0,0.385,0.021,0.763,0.056,1.134
	L1.35,14.918l-1.023,5.794c-0.07,0.391,0.189,0.763,0.581,0.834c0.391,0.068,0.764-0.193,0.832-0.584c0,0,0.777-4.394,0.893-5.043
	c0.314-0.143,1.354-0.605,2.237-1.001c0.779,3.313,3.004,5.709,5.63,5.709c2.627,0,4.854-2.396,5.632-5.709
	c0.882,0.396,1.923,0.858,2.237,1.001c0.113,0.649,0.893,5.043,0.893,5.043c0.067,0.391,0.442,0.652,0.834,0.584
	c0.391-0.071,0.65-0.443,0.579-0.834l-1.024-5.794l-3.277-1.466c0.035-0.371,0.057-0.749,0.057-1.134
	c0-0.312-0.018-0.618-0.041-0.925l3.283-0.912L20.968,6.291z"/>
</svg>
