<?xml version="1.0" encoding="utf-8"?>
<!-- Generator: Adobe Illustrator 16.0.4, SVG Export Plug-In . SVG Version: 6.00 Build 0)  -->
<!DOCTYPE svg PUBLIC "-//W3C//DTD SVG 1.1//EN" "http://www.w3.org/Graphics/SVG/1.1/DTD/svg11.dtd">
<svg version="1.1" id="Capa_1" xmlns="http://www.w3.org/2000/svg" xmlns:xlink="http://www.w3.org/1999/xlink" x="0px" y="0px"
	 width="23.766px" height="23.305px" viewBox="0 0 23.766 23.305" enable-background="new 0 0 23.766 23.305" xml:space="preserve">
<g>
	<path d="M23.268,16.302l0.013-0.007L13.148,6.107l-0.014-4.794L8.232,0L7.708,0.524l2.608,2.601l-2.54,2.546L5.169,3.068
		L4.647,3.586l1.314,4.898l4.662,0.018l-0.031,0.025l10.201,10.252l0.013-0.011c0.683,0.664,1.775,0.664,2.444-0.013
		C23.931,18.082,23.934,16.989,23.268,16.302z M22.609,18.108c-0.303,0.303-0.793,0.303-1.092,0
		c-0.301-0.302-0.304-0.788-0.002-1.091c0.301-0.302,0.792-0.302,1.095-0.002C22.909,17.316,22.913,17.804,22.609,18.108z"/>
	<path d="M2.184,10.556c0.083,0.016,2.023,0.403,2.44,2.593c-0.527,0.558-0.856,1.339-0.856,2.206c0,0.01,0.002,0.017,0.002,0.023
		H9.3c0-0.008,0-0.015,0-0.023c0-0.867-0.329-1.648-0.855-2.206c0.417-2.188,2.356-2.577,2.438-2.593
		c0.181-0.035,0.304-0.208,0.271-0.391c-0.033-0.181-0.207-0.303-0.39-0.271c-0.023,0.005-2.26,0.437-2.899,2.781
		C7.47,12.437,7.016,12.3,6.533,12.3c-0.481,0-0.935,0.138-1.331,0.377c-0.641-2.346-2.875-2.776-2.9-2.781
		c-0.181-0.032-0.354,0.09-0.387,0.271C1.88,10.348,2.003,10.521,2.184,10.556z"/>
	<path d="M12.754,13.246c-0.235-0.074-0.485,0.059-0.56,0.295c0,0-0.547,1.764-0.663,2.143c-0.237,0.064-0.962,0.268-1.462,0.407
		c-0.019-0.08-0.033-0.16-0.052-0.237H3.051c-0.018,0.077-0.034,0.157-0.05,0.237C2.5,15.95,1.775,15.748,1.538,15.683
		c-0.117-0.379-0.664-2.143-0.664-2.143c-0.072-0.236-0.323-0.369-0.558-0.295c-0.237,0.072-0.369,0.322-0.295,0.558l0.807,2.608
		l2.043,0.569c-0.013,0.189-0.025,0.38-0.025,0.575c0,0.238,0.015,0.474,0.036,0.706L0.84,19.175l-0.638,3.604
		c-0.042,0.243,0.12,0.476,0.364,0.518c0.242,0.043,0.475-0.118,0.517-0.361c0,0,0.485-2.732,0.555-3.139
		c0.197-0.089,0.843-0.379,1.395-0.622c0.483,2.062,1.869,3.553,3.503,3.553c1.633,0,3.021-1.49,3.505-3.553
		c0.549,0.243,1.196,0.533,1.393,0.622c0.069,0.405,0.554,3.139,0.554,3.139c0.043,0.243,0.275,0.404,0.52,0.361
		c0.244-0.042,0.403-0.273,0.362-0.518l-0.639-3.604l-2.04-0.911c0.021-0.232,0.035-0.468,0.035-0.706
		c0-0.195-0.012-0.386-0.025-0.575l2.042-0.569l0.808-2.609C13.122,13.569,12.989,13.319,12.754,13.246z"/>
</g>
</svg>
