<?xml version="1.0" encoding="utf-8"?>
<!-- Generator: Adobe Illustrator 16.0.4, SVG Export Plug-In . SVG Version: 6.00 Build 0)  -->
<!DOCTYPE svg PUBLIC "-//W3C//DTD SVG 1.1//EN" "http://www.w3.org/Graphics/SVG/1.1/DTD/svg11.dtd">
<svg version="1.1" id="Capa_1" xmlns="http://www.w3.org/2000/svg" xmlns:xlink="http://www.w3.org/1999/xlink" x="0px" y="0px"
	 width="20.943px" height="22px" viewBox="0 0 20.943 22" enable-background="new 0 0 20.943 22" xml:space="preserve">
<g>
	<path d="M19.53,0.741c-1.578-1.208-3.84-0.908-5.051,0.671l5.721,4.38C21.411,4.211,21.11,1.953,19.53,0.741z"/>
	<path d="M1.412,0.741c-1.579,1.212-1.879,3.47-0.67,5.051l5.721-4.38C5.252-0.167,2.992-0.467,1.412,0.741z"/>
	<path d="M10.566,1.996c-5.354,0-9.694,4.34-9.694,9.693c0,5.354,4.34,9.694,9.694,9.694c5.354,0,9.693-4.34,9.693-9.694
		C20.26,6.336,15.92,1.996,10.566,1.996z M10.569,12.956c-0.147,0-0.284-0.038-0.416-0.084L5.254,15.76l4.139-3.627
		c-0.052-0.14-0.089-0.286-0.089-0.443c0-0.557,0.366-1.016,0.866-1.185l0.765-6.5l0.476,6.754c0.257,0.232,0.425,0.559,0.425,0.932
		C11.835,12.389,11.268,12.956,10.569,12.956z"/>
	<path d="M16.26,20.43L17.143,22h2.252l-1.586-2.811C17.335,19.648,16.816,20.062,16.26,20.43z"/>
	<path d="M1.55,22H3.8l0.934-1.659c-0.551-0.373-1.064-0.8-1.536-1.268L1.55,22z"/>
</g>
</svg>
