<?xml version="1.0" encoding="utf-8"?>
<!-- Generator: Adobe Illustrator 16.0.4, SVG Export Plug-In . SVG Version: 6.00 Build 0)  -->
<!DOCTYPE svg PUBLIC "-//W3C//DTD SVG 1.1//EN" "http://www.w3.org/Graphics/SVG/1.1/DTD/svg11.dtd">
<svg version="1.1" id="Capa_1" xmlns="http://www.w3.org/2000/svg" xmlns:xlink="http://www.w3.org/1999/xlink" x="0px" y="0px"
	 width="23.303px" height="20.578px" viewBox="0 0 23.303 20.578" enable-background="new 0 0 23.303 20.578" xml:space="preserve">
<g>
	<path d="M2.417,5.343h18.468c1.335,0,2.418-1.194,2.418-2.67C23.303,1.196,22.22,0,20.885,0H2.417C1.085,0,0,1.196,0,2.673
		C0,4.149,1.085,5.343,2.417,5.343z M3.313,1.029c0.908,0,1.645,0.736,1.645,1.644c0,0.908-0.736,1.644-1.645,1.644
		c-0.907,0-1.644-0.736-1.644-1.644C1.669,1.765,2.406,1.029,3.313,1.029z"/>
	<path d="M20.885,7.617H2.417C1.085,7.617,0,8.814,0,10.29s1.085,2.67,2.417,2.67h18.468c1.335,0,2.418-1.194,2.418-2.67
		S22.22,7.617,20.885,7.617z M15.019,11.934c-0.908,0-1.644-0.736-1.644-1.644c0-0.908,0.735-1.644,1.644-1.644
		s1.645,0.736,1.645,1.644C16.663,11.198,15.927,11.934,15.019,11.934z"/>
	<path d="M20.885,15.233H2.417C1.085,15.233,0,16.43,0,17.906c0,1.475,1.085,2.672,2.417,2.67h18.468
		c1.335,0,2.418-1.195,2.418-2.67S22.22,15.233,20.885,15.233z M9.967,19.55c-0.908,0-1.644-0.736-1.644-1.645
		s0.735-1.644,1.644-1.644s1.644,0.735,1.644,1.644S10.875,19.55,9.967,19.55z"/>
</g>
</svg>
