<?xml version="1.0" encoding="utf-8"?>
<!-- Generator: Adobe Illustrator 16.0.4, SVG Export Plug-In . SVG Version: 6.00 Build 0)  -->
<!DOCTYPE svg PUBLIC "-//W3C//DTD SVG 1.1//EN" "http://www.w3.org/Graphics/SVG/1.1/DTD/svg11.dtd">
<svg version="1.1" id="Capa_1" xmlns="http://www.w3.org/2000/svg" xmlns:xlink="http://www.w3.org/1999/xlink" x="0px" y="0px"
	 width="17.91px" height="18.061px" viewBox="0 0 17.91 18.061" enable-background="new 0 0 17.91 18.061" xml:space="preserve">
<g>
	<circle cx="4.208" cy="4.208" r="4.208"/>
	<polygon points="6.51,10.553 4.209,12.854 1.909,10.553 0.457,12.007 2.756,14.307 0.457,16.607 1.909,18.061 4.209,15.76 
		6.51,18.061 7.964,16.607 5.663,14.307 7.964,12.007 	"/>
	<path d="M14.727,13.33l-0.647,3.562l3.832-1.564l-1.063-0.666c0.51-1.069,0.812-2.257,0.812-3.521c0-4.515-3.632-8.174-8.136-8.229
		c0.054,0.28,0.09,0.567,0.09,0.863c0,0.187-0.036,0.362-0.055,0.541c3.709,0.074,6.698,3.098,6.698,6.825
		c0,0.988-0.239,1.912-0.624,2.756L14.727,13.33z"/>
</g>
</svg>
