<?xml version="1.0" encoding="utf-8"?>
<!-- Generator: Adobe Illustrator 16.0.4, SVG Export Plug-In . SVG Version: 6.00 Build 0)  -->
<!DOCTYPE svg PUBLIC "-//W3C//DTD SVG 1.1//EN" "http://www.w3.org/Graphics/SVG/1.1/DTD/svg11.dtd">
<svg version="1.1" id="Capa_1" xmlns="http://www.w3.org/2000/svg" xmlns:xlink="http://www.w3.org/1999/xlink" x="0px" y="0px"
	 width="18.52px" height="23.303px" viewBox="0 0 18.52 23.303" enable-background="new 0 0 18.52 23.303" xml:space="preserve">
<path d="M5.797,9.538c0.721,0.129,1.471,0.218,2.258,0.218c4.448,0,8.054-2.185,8.054-4.877C16.109,2.184,12.504,0,8.056,0
	C3.603,0,0,2.184,0,4.878c0,1.655,1.371,3.114,3.458,3.997l-2.188,2.86L5.797,9.538z M11.035,3.709c0.566,0,1.024,0.458,1.024,1.024
	c0,0.567-0.459,1.025-1.024,1.025c-0.566,0-1.025-0.458-1.025-1.025C10.01,4.167,10.469,3.709,11.035,3.709z M7.939,3.709
	c0.567,0,1.025,0.459,1.025,1.025c0,0.567-0.459,1.025-1.025,1.025S6.913,5.301,6.913,4.734C6.913,4.167,7.372,3.709,7.939,3.709z
	 M4.843,3.709c0.566,0,1.025,0.459,1.025,1.025c0,0.567-0.459,1.025-1.025,1.025S3.819,5.301,3.819,4.734
	C3.819,4.167,4.278,3.709,4.843,3.709z"/>
<path d="M18.52,16.445c0-2.693-3.604-4.878-8.058-4.878c-4.447,0-8.053,2.184-8.052,4.878c0,2.693,3.605,4.877,8.053,4.877
	c0.788,0,1.537-0.088,2.259-0.216l4.528,2.197l-2.188-2.863C17.148,19.559,18.52,18.1,18.52,16.445z M7.576,17.261
	c-0.565,0-1.024-0.458-1.024-1.025s0.459-1.025,1.024-1.025c0.567,0,1.026,0.458,1.025,1.025
	C8.602,16.803,8.143,17.261,7.576,17.261z M10.674,17.261c-0.567,0-1.025-0.458-1.025-1.025s0.458-1.025,1.025-1.025
	s1.025,0.458,1.025,1.025S11.241,17.261,10.674,17.261z M13.77,17.261c-0.565,0-1.023-0.458-1.023-1.025s0.458-1.025,1.023-1.025
	c0.566,0,1.025,0.458,1.025,1.025S14.336,17.261,13.77,17.261z"/>
</svg>
