<?xml version="1.0" encoding="utf-8"?>
<!-- Generator: Adobe Illustrator 16.0.4, SVG Export Plug-In . SVG Version: 6.00 Build 0)  -->
<!DOCTYPE svg PUBLIC "-//W3C//DTD SVG 1.1//EN" "http://www.w3.org/Graphics/SVG/1.1/DTD/svg11.dtd">
<svg version="1.1" id="Capa_1" xmlns="http://www.w3.org/2000/svg" xmlns:xlink="http://www.w3.org/1999/xlink" x="0px" y="0px"
	 width="23.303px" height="23.7px" viewBox="0 0 23.303 23.7" enable-background="new 0 0 23.303 23.7" xml:space="preserve">
<g>
	<path d="M20.713,6.68h-6.838c1.23,0.942,2.038,2.411,2.038,4.081c0,1.326-0.516,2.523-1.338,3.436l0.053,0.03l-4.198,7.277
		c0.11,0.002,0.218,0.017,0.33,0.017c5.942,0,10.76-4.817,10.76-10.76C21.52,9.316,21.231,7.939,20.713,6.68z"/>
	<path d="M10.738,5.609V5.52h9.416c-1.841-3.291-5.354-5.519-9.394-5.519c-3.369,0-6.374,1.55-8.347,3.974L5.7,9.813
		C6.145,7.428,8.225,5.62,10.738,5.609z"/>
	<path d="M10.759,15.915c-2.248,0-4.14-1.447-4.845-3.455l-0.041,0.023L1.671,5.019C0.618,6.682,0,8.647,0,10.761
		c0,5.398,3.978,9.853,9.159,10.628l3.344-5.799C11.956,15.79,11.374,15.915,10.759,15.915z"/>
	<circle cx="10.759" cy="10.761" r="3.479"/>
</g>
</svg>
