<?xml version="1.0" encoding="utf-8"?>
<!-- Generator: Adobe Illustrator 16.0.4, SVG Export Plug-In . SVG Version: 6.00 Build 0)  -->
<!DOCTYPE svg PUBLIC "-//W3C//DTD SVG 1.1//EN" "http://www.w3.org/Graphics/SVG/1.1/DTD/svg11.dtd">
<svg version="1.1" id="Capa_1" xmlns="http://www.w3.org/2000/svg" xmlns:xlink="http://www.w3.org/1999/xlink" x="0px" y="0px"
	 width="21.854px" height="23.303px" viewBox="0 0 21.854 23.303" enable-background="new 0 0 21.854 23.303" xml:space="preserve">
<g>
	<path d="M1.261,16.6c0-1.12,0-14.221,0-15.341c1.108,0,12.928,0,14.036,0c0,0.396,0,2.292,0,4.623
		c0.271-0.05,0.549-0.084,0.834-0.084c0.146,0,0.284,0.03,0.427,0.043V0H0V17.86h10.414V16.6C6.624,16.6,1.939,16.6,1.261,16.6z"/>
	<path d="M3.054,9.589h8.553c0.085-0.471,0.251-0.909,0.468-1.319H3.054V9.589z"/>
	<rect x="3.054" y="4.146" width="10.448" height="1.319"/>
	<path d="M3.054,13.714h8.867c0.237-0.143,0.49-0.261,0.761-0.333c-0.257-0.299-0.468-0.635-0.649-0.987H3.054V13.714z"/>
	<path d="M16.132,13.846c1.904,0,3.438-1.539,3.438-3.437c0-1.9-1.534-3.438-3.438-3.438c-1.896,0-3.431,1.538-3.431,3.438
		C12.701,12.307,14.236,13.846,16.132,13.846z"/>
	<path d="M18.89,14.404h-5.509c-0.984,0-1.79,0.903-1.79,2.013v5.532c0,0.061,0.028,0.116,0.032,0.178h9.021
		c0.005-0.062,0.033-0.117,0.033-0.178v-5.532C20.679,15.308,19.876,14.404,18.89,14.404z"/>
</g>
</svg>
