<?xml version="1.0" encoding="utf-8"?>
<!-- Generator: Adobe Illustrator 16.0.4, SVG Export Plug-In . SVG Version: 6.00 Build 0)  -->
<!DOCTYPE svg PUBLIC "-//W3C//DTD SVG 1.1//EN" "http://www.w3.org/Graphics/SVG/1.1/DTD/svg11.dtd">
<svg version="1.1" id="Capa_1" xmlns="http://www.w3.org/2000/svg" xmlns:xlink="http://www.w3.org/1999/xlink" x="0px" y="0px"
	 width="21px" height="21px" viewBox="0 0 21 21" enable-background="new 0 0 21 21" xml:space="preserve">
<rect x="3.71" y="5.812" width="13.579" height="1.415"/>
<rect x="6.427" y="9.243" width="8.034" height="1.416"/>
<rect x="3.71" y="12.64" width="5.771" height="1.414"/>
<path d="M0,0v21h21V0H0z M18.555,1.145c0.375,0,0.676,0.303,0.678,0.678c0,0.376-0.303,0.68-0.678,0.68s-0.681-0.304-0.681-0.68
	C17.874,1.449,18.18,1.145,18.555,1.145z M16.177,1.145c0.376,0,0.679,0.303,0.681,0.678c0,0.376-0.305,0.68-0.681,0.68
	c-0.374,0-0.678-0.304-0.678-0.68C15.499,1.449,15.803,1.145,16.177,1.145z M19.375,19.407H1.624V3.975h17.751V19.407z"/>
</svg>
