<?xml version="1.0" encoding="utf-8"?>
<!-- Generator: Adobe Illustrator 16.0.4, SVG Export Plug-In . SVG Version: 6.00 Build 0)  -->
<!DOCTYPE svg PUBLIC "-//W3C//DTD SVG 1.1//EN" "http://www.w3.org/Graphics/SVG/1.1/DTD/svg11.dtd">
<svg version="1.1" id="Capa_1" xmlns="http://www.w3.org/2000/svg" xmlns:xlink="http://www.w3.org/1999/xlink" x="0px" y="0px"
	 width="23.305px" height="20.254px" viewBox="0 0 23.305 20.254" enable-background="new 0 0 23.305 20.254" xml:space="preserve">
<g>
	<circle cx="11.608" cy="2.721" r="2.721"/>
	<path d="M21.133,10.207l-2.536-0.529c-0.864-0.181-1.717,0.215-2.168,0.919c-0.438-0.225-0.909-0.419-1.41-0.58V8.509
		c0.001-1.141-0.933-2.074-2.07-2.074h-2.593c-1.143,0-2.073,0.933-2.073,2.074v1.516c-0.496,0.158-0.962,0.352-1.403,0.578
		c-0.451-0.707-1.305-1.106-2.17-0.925l-2.538,0.529c-1.114,0.233-1.837,1.338-1.604,2.456l0.637,3.043
		c0.231,1.115,1.337,1.838,2.452,1.605l0.803-0.168c0.402,0.594,0.958,1.139,1.67,1.605c1.483,0.972,3.442,1.508,5.521,1.508
		c3.181,0,5.921-1.279,7.183-3.116l0.816,0.171c1.114,0.232,2.22-0.49,2.451-1.605l0.638-3.043
		C22.971,11.545,22.248,10.44,21.133,10.207z M11.65,19.217c-1.878,0-3.638-0.473-4.951-1.338c-0.45-0.294-0.823-0.621-1.122-0.971
		l0.615-0.129c1.116-0.232,1.839-1.337,1.606-2.453L7.227,11.59c0.333-0.179,0.683-0.336,1.055-0.47v0.499
		c0,1.139,0.932,2.072,2.073,2.072h2.593c1.138,0,2.07-0.934,2.07-2.072v-0.525c0.379,0.135,0.735,0.29,1.065,0.466l-0.579,2.767
		c-0.231,1.116,0.491,2.221,1.607,2.453l0.621,0.13C16.574,18.281,14.283,19.217,11.65,19.217z"/>
	<circle cx="20.581" cy="6.298" r="2.721"/>
	<path d="M3.279,8.962C4.751,8.654,5.691,7.211,5.387,5.74c-0.31-1.47-1.75-2.414-3.223-2.106c-1.47,0.307-2.414,1.749-2.106,3.22
		C0.365,8.326,1.807,9.269,3.279,8.962z"/>
</g>
</svg>
