<?xml version="1.0" encoding="utf-8"?>
<!-- Generator: Adobe Illustrator 16.0.4, SVG Export Plug-In . SVG Version: 6.00 Build 0)  -->
<!DOCTYPE svg PUBLIC "-//W3C//DTD SVG 1.1//EN" "http://www.w3.org/Graphics/SVG/1.1/DTD/svg11.dtd">
<svg version="1.1" id="Capa_1" xmlns="http://www.w3.org/2000/svg" xmlns:xlink="http://www.w3.org/1999/xlink" x="0px" y="0px"
	 width="23.303px" height="21.656px" viewBox="0 0 23.303 21.656" enable-background="new 0 0 23.303 21.656" xml:space="preserve">
<rect x="0" y="11.886" width="23.303" height="4.187"/>
<rect x="0" y="17.469" width="23.303" height="4.188"/>
<path d="M3.942,2.851h15.414c0.938,0,1.699-0.638,1.699-1.426C21.056,0.639,20.293,0,19.356,0H3.942
	C3.004,0,2.244,0.639,2.244,1.425C2.244,2.213,3.004,2.851,3.942,2.851z"/>
<path d="M12.54,10.343l-1.232,0.816h2.486c0.033-0.197,0-0.404-0.117-0.584C13.427,10.198,12.919,10.094,12.54,10.343z
	 M13.677,4.565c-0.25-0.377-0.758-0.48-1.137-0.231L9.858,6.108c-0.38,0.248-0.481,0.756-0.232,1.135
	c0.25,0.377,0.756,0.48,1.134,0.232l2.685-1.774C13.821,5.452,13.926,4.944,13.677,4.565z M10.759,4.422l1.275-0.842h-2.53
	C9.465,3.783,9.502,4.001,9.625,4.19C9.875,4.567,10.381,4.671,10.759,4.422z M13.677,7.675c-0.25-0.377-0.758-0.481-1.137-0.232
	L9.858,9.217c-0.38,0.249-0.481,0.757-0.232,1.135c0.25,0.377,0.756,0.481,1.134,0.232l2.685-1.773
	C13.821,8.561,13.926,8.054,13.677,7.675z"/>
</svg>
