<?xml version="1.0" encoding="utf-8"?>
<!-- Generator: Adobe Illustrator 16.0.4, SVG Export Plug-In . SVG Version: 6.00 Build 0)  -->
<!DOCTYPE svg PUBLIC "-//W3C//DTD SVG 1.1//EN" "http://www.w3.org/Graphics/SVG/1.1/DTD/svg11.dtd">
<svg version="1.1" id="Capa_1" xmlns="http://www.w3.org/2000/svg" xmlns:xlink="http://www.w3.org/1999/xlink" x="0px" y="0px"
	 width="21px" height="21px" viewBox="0 0 21 21" enable-background="new 0 0 21 21" xml:space="preserve">
<g>
	<path d="M18.723,0H2.276C1.025,0,0,1.025,0,2.277v16.448C0,19.975,1.025,21,2.276,21h16.447C19.975,21,21,19.975,21,18.725V2.277
		C21,1.025,19.975,0,18.723,0z M19.277,19.047H1.724V4.721h17.553V19.047z"/>
	<circle cx="5.784" cy="7.836" r="1.708"/>
	<rect x="8.914" y="7.125" width="7.497" height="1.423"/>
	<circle cx="5.784" cy="12.01" r="1.708"/>
	<rect x="8.914" y="11.299" width="7.497" height="1.422"/>
	<circle cx="5.784" cy="16.185" r="1.708"/>
	<rect x="8.914" y="15.473" width="7.497" height="1.422"/>
</g>
</svg>
