<?xml version="1.0" encoding="utf-8"?>
<!-- Generator: Adobe Illustrator 16.0.4, SVG Export Plug-In . SVG Version: 6.00 Build 0)  -->
<!DOCTYPE svg PUBLIC "-//W3C//DTD SVG 1.1//EN" "http://www.w3.org/Graphics/SVG/1.1/DTD/svg11.dtd">
<svg version="1.1" id="Capa_1" xmlns="http://www.w3.org/2000/svg" xmlns:xlink="http://www.w3.org/1999/xlink" x="0px" y="0px"
	 width="23.305px" height="19.604px" viewBox="0 0 23.305 19.604" enable-background="new 0 0 23.305 19.604" xml:space="preserve">
<g>
	<rect x="3.306" y="6.822" width="11.777" height="1.179"/>
	<rect x="3.306" y="3.932" width="11.777" height="1.18"/>
	<path d="M23.054,4.059l-1.948-1.685c-0.267-0.232-0.646-0.237-0.841-0.014l-1.22,1.407L21.97,6.3l1.22-1.408
		C23.385,4.67,23.322,4.289,23.054,4.059z"/>
	<path d="M18.725,4.136L18.33,4.593V0H0v19.604h18.33v-9.105l3.316-3.827L18.725,4.136z M16.913,18.212H1.418V1.914h15.495v4.314
		l-3.417,3.945H3.306v1.179h9.169L12.347,11.5l2.918,2.534l1.647-1.901V18.212z"/>
	<polygon points="11.108,15.627 11.256,15.758 14.937,14.416 12.015,11.881 	"/>
	<circle cx="5.715" cy="15.156" r="1.871"/>
</g>
</svg>
