<?xml version="1.0" encoding="utf-8"?>
<!-- Generator: Adobe Illustrator 16.0.4, SVG Export Plug-In . SVG Version: 6.00 Build 0)  -->
<!DOCTYPE svg PUBLIC "-//W3C//DTD SVG 1.1//EN" "http://www.w3.org/Graphics/SVG/1.1/DTD/svg11.dtd">
<svg version="1.1" id="Capa_1" xmlns="http://www.w3.org/2000/svg" xmlns:xlink="http://www.w3.org/1999/xlink" x="0px" y="0px"
	 width="22.604px" height="22.342px" viewBox="0 0 22.604 22.342" enable-background="new 0 0 22.604 22.342" xml:space="preserve">
<circle cx="3.828" cy="13.507" r="2.825"/>
<circle cx="11.301" cy="13.507" r="2.825"/>
<circle cx="18.773" cy="13.507" r="2.825"/>
<path d="M18.773,16.617c-1.832,0-3.358,1.237-3.735,2.893c-0.376-1.653-1.903-2.893-3.737-2.893c-1.833,0-3.36,1.237-3.735,2.893
	c-0.377-1.653-1.904-2.893-3.737-2.893C1.714,16.617,0,18.265,0,20.298v2.044h22.604v-2.044
	C22.604,18.265,20.889,16.617,18.773,16.617L18.773,16.617z"/>
<path d="M15.1,5.238c-1.559,0-2.823,1.266-2.823,2.825s1.265,2.826,2.823,2.826c1.564,0,2.827-1.267,2.827-2.826
	S16.664,5.238,15.1,5.238z"/>
<circle cx="7.5" cy="8.064" r="2.826"/>
<circle cx="11.302" cy="2.825" r="2.825"/>
</svg>
