<?xml version="1.0" encoding="utf-8"?>
<!-- Generator: Adobe Illustrator 16.0.4, SVG Export Plug-In . SVG Version: 6.00 Build 0)  -->
<!DOCTYPE svg PUBLIC "-//W3C//DTD SVG 1.1//EN" "http://www.w3.org/Graphics/SVG/1.1/DTD/svg11.dtd">
<svg version="1.1" id="Capa_1" xmlns="http://www.w3.org/2000/svg" xmlns:xlink="http://www.w3.org/1999/xlink" x="0px" y="0px"
	 width="17.05px" height="23.303px" viewBox="0 0 17.05 23.303" enable-background="new 0 0 17.05 23.303" xml:space="preserve">
<g>
	<path d="M8.524,0C3.815,0,0,1.378,0,3.079v4.507c0,1.701,3.815,3.08,8.524,3.08s8.524-1.379,8.524-3.08V3.079
		C17.05,1.378,13.233,0,8.524,0z M8.524,5.539c-3.763,0-6.813-1.102-6.813-2.46c0-1.359,3.051-2.46,6.813-2.46
		c3.765,0,6.812,1.101,6.812,2.46C15.337,4.438,12.289,5.539,8.524,5.539z"/>
	<path d="M8.525,11.99c-4.501,0-8.18-1.262-8.496-2.858C0.015,9.206,0,9.278,0,9.353v4.508c0,1.701,3.815,3.08,8.524,3.08
		s8.524-1.378,8.524-3.08V9.353c0.002-0.075-0.014-0.146-0.027-0.221C16.707,10.73,13.026,11.99,8.525,11.99z"/>
	<path d="M8.525,18.355c-4.501,0-8.18-1.261-8.496-2.858C0.015,15.569,0,15.642,0,15.718v4.506c0,1.701,3.815,3.079,8.524,3.079
		s8.524-1.378,8.524-3.079v-4.506c0.002-0.076-0.014-0.149-0.027-0.222C16.707,17.094,13.026,18.355,8.525,18.355z"/>
</g>
</svg>
