<?xml version="1.0" encoding="utf-8"?>
<!-- Generator: Adobe Illustrator 16.0.4, SVG Export Plug-In . SVG Version: 6.00 Build 0)  -->
<!DOCTYPE svg PUBLIC "-//W3C//DTD SVG 1.1//EN" "http://www.w3.org/Graphics/SVG/1.1/DTD/svg11.dtd">
<svg version="1.1" id="Capa_1" xmlns="http://www.w3.org/2000/svg" xmlns:xlink="http://www.w3.org/1999/xlink" x="0px" y="0px"
	 width="23.303px" height="19.553px" viewBox="0 0 23.303 19.553" enable-background="new 0 0 23.303 19.553" xml:space="preserve">
<g>
	<path d="M13.36,9.777c0-1.979-1.604-3.584-3.584-3.584S6.192,7.798,6.192,9.777c0,1.979,1.604,3.584,3.584,3.584
		S13.36,11.756,13.36,9.777z M9.775,11.22c-0.797,0-1.442-0.646-1.442-1.443s0.646-1.442,1.442-1.442s1.443,0.646,1.443,1.442
		S10.572,11.22,9.775,11.22z"/>
	<path d="M19.487,7.41l-0.197,0.153C18.286,3.233,14.414,0,9.775,0C4.376,0,0,4.378,0,9.777c0,5.399,4.376,9.776,9.774,9.776
		c4.727,0,8.666-3.352,9.577-7.806l2.186-1.699L19.487,7.41z M9.776,18.338c-4.728,0-8.561-3.833-8.561-8.562
		c0-4.728,3.833-8.561,8.561-8.561c4.258,0,7.78,3.111,8.44,7.182l-5.372,4.178l2.047,2.638l2.8-2.176
		C16.407,16.148,13.349,18.338,9.776,18.338z"/>
	<path d="M23.169,8.073L21.8,6.317c-0.187-0.242-0.508-0.312-0.708-0.152L19.822,7.15l2.052,2.64l1.27-0.989
		C23.346,8.646,23.357,8.313,23.169,8.073z"/>
	<polygon points="11.101,15.865 11.205,16 14.549,15.482 12.501,12.842 	"/>
</g>
</svg>
