<?xml version="1.0" encoding="utf-8"?>
<!-- Generator: Adobe Illustrator 16.0.4, SVG Export Plug-In . SVG Version: 6.00 Build 0)  -->
<!DOCTYPE svg PUBLIC "-//W3C//DTD SVG 1.1//EN" "http://www.w3.org/Graphics/SVG/1.1/DTD/svg11.dtd">
<svg version="1.1" id="Capa_1" xmlns="http://www.w3.org/2000/svg" xmlns:xlink="http://www.w3.org/1999/xlink" x="0px" y="0px"
	 width="22.705px" height="21.018px" viewBox="0 0 22.705 21.018" enable-background="new 0 0 22.705 21.018" xml:space="preserve">
<g>
	<path d="M12.815,8.461c0.32-0.122,0.608-0.253,0.861-0.395c0-0.615,0-1.333,0-1.333h1.172c0.005-0.04,0.017-0.08,0.017-0.12V2.684
		C14.864,1.202,11.537,0,7.433,0C3.328,0,0,1.202,0,2.684v3.929c0,1.483,3.328,2.685,7.433,2.685c0.994,0,1.94-0.072,2.806-0.199
		l1.607-1.604C11.846,7.493,12.376,8.022,12.815,8.461z M1.493,2.683c0-1.186,2.659-2.145,5.94-2.145
		c3.28,0,5.938,0.959,5.938,2.145c-0.001,1.186-2.659,2.146-5.938,2.146C4.152,4.828,1.493,3.868,1.493,2.683z"/>
	<path d="M10.466,11.99c0.048-0.131,0.102-0.26,0.159-0.386c-0.252-0.253-0.911-0.912-1.245-1.246
		c-0.622,0.061-1.273,0.096-1.948,0.096c-3.925,0-7.132-1.101-7.405-2.492C0.015,8.024,0,8.088,0,8.153v3.93
		c0,1.481,3.328,2.684,7.433,2.684c0.335,0,0.663-0.011,0.987-0.026v-2.75C8.42,11.99,9.98,11.99,10.466,11.99z"/>
	<path d="M21.677,14.732v-1.714h-1.685c-0.115-0.611-0.353-1.178-0.688-1.673l1.188-1.188L19.28,8.946l-1.188,1.188
		c-0.496-0.338-1.062-0.572-1.674-0.69V7.76h-1.713v1.683c-0.609,0.12-1.176,0.354-1.671,0.69l-1.188-1.188l-1.214,1.211
		l1.188,1.188c-0.335,0.495-0.572,1.062-0.688,1.673H9.449v1.714h1.684c0.117,0.608,0.353,1.178,0.688,1.673l-1.188,1.187
		l1.214,1.212l1.188-1.188c0.495,0.336,1.062,0.572,1.671,0.69v1.682h1.713v-1.682c0.609-0.117,1.178-0.354,1.674-0.689l1.188,1.187
		l1.213-1.212l-1.188-1.187c0.336-0.495,0.572-1.063,0.688-1.673H21.677z M15.562,15.744c-1.031,0-1.869-0.837-1.869-1.87
		c0-1.032,0.838-1.868,1.869-1.868c1.032,0,1.871,0.836,1.871,1.868C17.433,14.907,16.595,15.744,15.562,15.744z"/>
</g>
</svg>
