<?xml version="1.0" encoding="utf-8"?>
<!-- Generator: Adobe Illustrator 16.0.4, SVG Export Plug-In . SVG Version: 6.00 Build 0)  -->
<!DOCTYPE svg PUBLIC "-//W3C//DTD SVG 1.1//EN" "http://www.w3.org/Graphics/SVG/1.1/DTD/svg11.dtd">
<svg version="1.1" id="Capa_1" xmlns="http://www.w3.org/2000/svg" xmlns:xlink="http://www.w3.org/1999/xlink" x="0px" y="0px"
	 width="16.779px" height="23.303px" viewBox="0 0 16.779 23.303" enable-background="new 0 0 16.779 23.303" xml:space="preserve">
<g>
	<path d="M0,0v23.303H16.78V0H0z M8.048,21.22H1.816v-6.562l2.178,2.018c-0.719,0.315-1.223,1.031-1.223,1.866
		c0,1.122,0.912,2.035,2.037,2.035s2.036-0.912,2.036-2.035c0-0.056-0.012-0.108-0.017-0.164c0.002-0.002,0.004-0.003,0.006-0.005
		l1.215,0.022V21.22z M5.942,18.384c0.004,0.054,0.029,0.102,0.029,0.158c0,0.641-0.521,1.162-1.163,1.162
		c-0.644,0-1.165-0.521-1.165-1.162c0-0.646,0.521-1.165,1.165-1.165c0.104,0,0.196,0.034,0.293,0.059
		c1.843-1.41,5.321-4.011,5.39-3.936C10.55,13.568,7.551,16.722,5.942,18.384z M9.389,15.731c2.214-2.421,1.976-2.708,1.819-2.881
		c-0.393-0.436-0.394-0.436-3.991,2.252l-0.618,0.471C3.646,14.785,1.465,12.1,1.465,8.898c0-3.821,3.098-6.919,6.915-6.919
		c3.823,0,6.918,3.099,6.918,6.919C15.298,12.373,12.732,15.242,9.389,15.731z"/>
	<path d="M8.38,6.84c-1.134,0-2.055,0.923-2.055,2.058c0,1.136,0.922,2.054,2.055,2.054c1.139,0,2.057-0.919,2.057-2.054
		C10.437,7.764,9.518,6.841,8.38,6.84z"/>
</g>
</svg>
