<?xml version="1.0" encoding="utf-8"?>
<!-- Generator: Adobe Illustrator 16.0.4, SVG Export Plug-In . SVG Version: 6.00 Build 0)  -->
<!DOCTYPE svg PUBLIC "-//W3C//DTD SVG 1.1//EN" "http://www.w3.org/Graphics/SVG/1.1/DTD/svg11.dtd">
<svg version="1.1" id="Capa_1" xmlns="http://www.w3.org/2000/svg" xmlns:xlink="http://www.w3.org/1999/xlink" x="0px" y="0px"
	 width="23.303px" height="21.896px" viewBox="0 0 23.303 21.896" enable-background="new 0 0 23.303 21.896" xml:space="preserve">
<g>
	<path d="M17.749,8.509V1.924C17.749,0.866,16.883,0,15.825,0h-13.9C0.866,0,0,0.866,0,1.924v13.9c0,1.058,0.866,1.924,1.925,1.924
		h8.399c1.019,2.436,3.423,4.148,6.229,4.148c3.728,0,6.75-3.022,6.75-6.75C23.303,11.827,20.906,9.074,17.749,8.509z M9.878,16.098
		H1.458V3.988h14.835v4.421c-3.606,0.138-6.49,3.096-6.49,6.737C9.803,15.47,9.834,15.787,9.878,16.098z M20.461,16.463h-7.454
		v-2.459h7.454V16.463z"/>
</g>
</svg>
