<?xml version="1.0" encoding="utf-8"?>
<!-- Generator: Adobe Illustrator 16.0.4, SVG Export Plug-In . SVG Version: 6.00 Build 0)  -->
<!DOCTYPE svg PUBLIC "-//W3C//DTD SVG 1.1//EN" "http://www.w3.org/Graphics/SVG/1.1/DTD/svg11.dtd">
<svg version="1.1" id="Capa_1" xmlns="http://www.w3.org/2000/svg" xmlns:xlink="http://www.w3.org/1999/xlink" x="0px" y="0px"
	 width="18.889px" height="23.316px" viewBox="0 0 18.889 23.316" enable-background="new 0 0 18.889 23.316" xml:space="preserve">
<g>
	<circle cx="6.408" cy="4.729" r="4.729"/>
	<path d="M13.29,12.121c-0.614,0-1.203,0.104-1.757,0.286c-1.169-1.498-3.026-2.471-5.125-2.471C2.868,9.937,0,12.693,0,16.097
		v3.421h7.994c0.751,2.206,2.839,3.8,5.296,3.8c3.088,0,5.599-2.512,5.599-5.599S16.378,12.121,13.29,12.121z M8.926,17.719
		c0-2.406,1.958-4.365,4.364-4.365c2.408,0,4.366,1.959,4.366,4.365c0,2.407-1.958,4.365-4.366,4.365
		C10.884,22.084,8.926,20.126,8.926,17.719z"/>
	<path d="M14.278,17.558c0,0,1.066-1.063,1.596-1.593l-0.983-0.983c-0.528,0.529-1.594,1.596-1.594,1.596s-1.238-1.238-1.71-1.711
		l-0.982,0.981c0.472,0.472,1.712,1.71,1.712,1.71s-1.067,1.066-1.595,1.596l0.982,0.98c0.526-0.527,1.593-1.594,1.593-1.594
		s1.237,1.236,1.71,1.711l0.981-0.983C15.516,18.795,14.278,17.558,14.278,17.558z"/>
</g>
</svg>
