<?xml version="1.0" encoding="utf-8"?>
<!-- Generator: Adobe Illustrator 16.0.4, SVG Export Plug-In . SVG Version: 6.00 Build 0)  -->
<!DOCTYPE svg PUBLIC "-//W3C//DTD SVG 1.1//EN" "http://www.w3.org/Graphics/SVG/1.1/DTD/svg11.dtd">
<svg version="1.1" id="Capa_1" xmlns="http://www.w3.org/2000/svg" xmlns:xlink="http://www.w3.org/1999/xlink" x="0px" y="0px"
	 width="21px" height="21px" viewBox="0 0 21 21" enable-background="new 0 0 21 21" xml:space="preserve">
<g>
	<path d="M0,0v21h21V0H0z M16.32,1.145c0.375,0,0.678,0.303,0.678,0.678c0,0.376-0.303,0.68-0.678,0.68
		c-0.379,0-0.682-0.304-0.682-0.68C15.639,1.449,15.941,1.145,16.32,1.145z M19.374,19.407H1.623V3.975h17.751V19.407z
		 M18.693,2.503c-0.371,0-0.676-0.304-0.676-0.68c0-0.374,0.305-0.678,0.676-0.678c0.377,0,0.681,0.303,0.681,0.678
		C19.374,2.199,19.07,2.503,18.693,2.503z"/>
	<rect x="3.079" y="5.727" width="15.108" height="3.394"/>
	<rect x="3.079" y="10.226" width="5.857" height="7.382"/>
	<rect x="10.125" y="10.226" width="8.062" height="7.382"/>
</g>
</svg>
