<?xml version="1.0" encoding="utf-8"?>
<!-- Generator: Adobe Illustrator 16.0.4, SVG Export Plug-In . SVG Version: 6.00 Build 0)  -->
<!DOCTYPE svg PUBLIC "-//W3C//DTD SVG 1.1//EN" "http://www.w3.org/Graphics/SVG/1.1/DTD/svg11.dtd">
<svg version="1.1" id="Capa_1" xmlns="http://www.w3.org/2000/svg" xmlns:xlink="http://www.w3.org/1999/xlink" x="0px" y="0px"
	 width="23.303px" height="16.742px" viewBox="0 0 23.303 16.742" enable-background="new 0 0 23.303 16.742" xml:space="preserve">
<g>
	<path d="M13.832,7.655l1.25-1.247l-1.275-1.274l-1.247,1.25c-0.523-0.356-1.12-0.603-1.762-0.728V3.889H9v1.768
		c-0.644,0.124-1.238,0.37-1.759,0.727l-1.25-1.25L4.719,6.408l1.246,1.247C5.614,8.178,5.367,8.771,5.242,9.417h-1.77v1.797h1.77
		c0.125,0.642,0.371,1.236,0.723,1.759l-1.246,1.25l1.271,1.272l1.25-1.248c0.521,0.354,1.116,0.601,1.76,0.726v1.769h1.799v-1.769
		c0.642-0.123,1.237-0.369,1.762-0.724l1.247,1.246l1.275-1.272l-1.25-1.25c0.354-0.521,0.602-1.117,0.722-1.759h1.772V9.417h-1.773
		C14.433,8.771,14.187,8.178,13.832,7.655z M9.898,12.28c-1.083,0-1.962-0.883-1.962-1.968c0-1.082,0.879-1.963,1.962-1.963
		c1.086,0,1.966,0.881,1.966,1.963C11.865,11.397,10.985,12.28,9.898,12.28z"/>
	<path d="M15.58,1.604C14.003,0.595,12.138,0,10.129,0C4.535,0,0,4.534,0,10.128c0,2.338,0.8,4.481,2.128,6.197L3.4,15.054
		c-1.012-1.381-1.628-3.07-1.628-4.918c0-4.615,3.741-8.354,8.356-8.354c1.535,0,2.951,0.443,4.188,1.173l-0.976,1.04l3.967,0.36
		l-0.426-4.142L15.58,1.604z"/>
	<polygon points="23.303,10.341 20.818,7.857 20.818,9.248 17.547,9.248 17.547,11.434 20.818,11.434 20.818,12.828 	"/>
</g>
</svg>
