<?xml version="1.0" encoding="utf-8"?>
<!-- Generator: Adobe Illustrator 16.0.4, SVG Export Plug-In . SVG Version: 6.00 Build 0)  -->
<!DOCTYPE svg PUBLIC "-//W3C//DTD SVG 1.1//EN" "http://www.w3.org/Graphics/SVG/1.1/DTD/svg11.dtd">
<svg version="1.1" id="Capa_1" xmlns="http://www.w3.org/2000/svg" xmlns:xlink="http://www.w3.org/1999/xlink" x="0px" y="0px"
	 width="21px" height="21px" viewBox="0 0 21 21" enable-background="new 0 0 21 21" xml:space="preserve">
<g>
	<path d="M0,0v21h21V0H0z M18.555,1.145c0.375,0,0.678,0.304,0.678,0.678c0,0.376-0.303,0.679-0.678,0.679s-0.68-0.303-0.68-0.679
		C17.875,1.45,18.18,1.145,18.555,1.145z M16.177,1.145c0.376,0,0.679,0.304,0.679,0.678c0,0.376-0.304,0.679-0.679,0.679
		s-0.679-0.303-0.679-0.679C15.498,1.45,15.802,1.145,16.177,1.145z M19.375,19.407H1.624V3.975h17.751V19.407z"/>
	<rect x="3.534" y="5.811" width="6.918" height="1.749"/>
	<rect x="14.119" y="5.811" width="3.586" height="1.749"/>
	<path d="M12.412,7.646c0.525,0,0.959-0.432,0.959-0.961s-0.434-0.958-0.959-0.958c-0.53,0-0.958,0.43-0.958,0.958
		C11.454,7.214,11.882,7.646,12.412,7.646z"/>
	<rect x="3.534" y="10.31" width="6.918" height="1.748"/>
	<rect x="14.119" y="10.31" width="3.586" height="1.748"/>
	<path d="M12.412,12.142c0.525,0,0.959-0.431,0.959-0.959s-0.434-0.96-0.959-0.96c-0.53,0-0.958,0.433-0.958,0.96
		C11.454,11.711,11.882,12.142,12.412,12.142z"/>
	<rect x="3.534" y="14.805" width="6.918" height="1.751"/>
	<rect x="14.119" y="14.805" width="3.586" height="1.751"/>
	<path d="M12.412,16.639c0.525,0,0.959-0.43,0.959-0.959s-0.434-0.958-0.959-0.958c-0.53,0-0.958,0.43-0.958,0.958
		C11.454,16.209,11.882,16.639,12.412,16.639z"/>
</g>
</svg>
