<?xml version="1.0" encoding="utf-8"?>
<!-- Generator: Adobe Illustrator 16.0.4, SVG Export Plug-In . SVG Version: 6.00 Build 0)  -->
<!DOCTYPE svg PUBLIC "-//W3C//DTD SVG 1.1//EN" "http://www.w3.org/Graphics/SVG/1.1/DTD/svg11.dtd">
<svg version="1.1" id="Capa_1" xmlns="http://www.w3.org/2000/svg" xmlns:xlink="http://www.w3.org/1999/xlink" x="0px" y="0px"
	 width="23.303px" height="19.986px" viewBox="0 0 23.303 19.986" enable-background="new 0 0 23.303 19.986" xml:space="preserve">
<g>
	<polygon points="3.855,9.195 4.752,12.533 6.072,12.533 7.741,7.345 6.384,7.345 5.394,10.744 4.526,7.345 3.201,7.345 
		2.306,10.744 1.334,7.345 0,7.345 1.642,12.533 2.978,12.533 	"/>
	<polygon points="12.307,7.345 10.983,7.345 10.087,10.744 9.111,7.345 7.777,7.345 9.422,12.533 10.759,12.533 11.637,9.195 
		12.536,12.533 13.854,12.533 15.523,7.345 14.169,7.345 13.174,10.744 	"/>
	<polygon points="21.946,7.345 20.953,10.744 20.087,7.345 18.76,7.345 17.864,10.744 16.893,7.345 15.557,7.345 17.203,12.533 
		18.538,12.533 19.416,9.195 20.312,12.533 21.634,12.533 23.303,7.345 	"/>
	<path d="M11.651,0C7.638,0,4.186,2.372,2.598,5.784h18.107C19.115,2.372,15.664,0,11.651,0z"/>
	<path d="M11.651,19.986c4.014,0,7.462-2.371,9.053-5.784H2.6C4.188,17.615,7.638,19.986,11.651,19.986z"/>
</g>
</svg>
