<?xml version="1.0" encoding="utf-8"?>
<!-- Generator: Adobe Illustrator 16.0.4, SVG Export Plug-In . SVG Version: 6.00 Build 0)  -->
<!DOCTYPE svg PUBLIC "-//W3C//DTD SVG 1.1//EN" "http://www.w3.org/Graphics/SVG/1.1/DTD/svg11.dtd">
<svg version="1.1" id="Capa_1" xmlns="http://www.w3.org/2000/svg" xmlns:xlink="http://www.w3.org/1999/xlink" x="0px" y="0px"
	 width="23.656px" height="21.625px" viewBox="0 0 23.656 21.625" enable-background="new 0 0 23.656 21.625" xml:space="preserve">
<path d="M19.891,6.378c0-0.007,0.004-0.049,0.004-0.049c0-3.49-2.84-6.329-6.33-6.329c-2.422,0-4.537,1.418-5.598,3.539
	C7.426,3.118,6.803,2.812,6.1,2.812c-1.723,0-3.124,1.4-3.124,3.124c0,0,0.021,0.152,0.037,0.27C1.254,6.805,0,8.414,0,10.319
	c0,1.177,0.459,2.284,1.291,3.114c0.833,0.834,1.938,1.292,3.115,1.292h6.038v2.171H7.91l4.529,4.729l4.432-4.729h-2.534v-2.171
	h5.099c2.326,0,4.222-1.894,4.222-4.218C23.657,8.34,21.994,6.616,19.891,6.378z M19.434,13.482h-5.097v-2.575h-3.893v2.575H4.405
	c-0.843,0-1.638-0.328-2.235-0.927c-0.597-0.597-0.925-1.391-0.925-2.234c0-1.515,1.076-2.819,2.562-3.104l0.58-0.111L4.29,6.437
	l-0.069-0.5c0-1.036,0.843-1.878,1.879-1.878c0.615,0,1.191,0.302,1.544,0.807L8.35,5.88l0.395-1.173
	c0.696-2.07,2.633-3.461,4.817-3.461c2.805,0,5.086,2.281,5.086,5.083l-0.062,1.192l0.701,0.014l0.146-0.004
	c1.642,0,2.977,1.335,2.977,2.977C22.41,12.148,21.075,13.482,19.434,13.482z"/>
</svg>
