<?xml version="1.0" encoding="utf-8"?>
<!-- Generator: Adobe Illustrator 16.0.4, SVG Export Plug-In . SVG Version: 6.00 Build 0)  -->
<!DOCTYPE svg PUBLIC "-//W3C//DTD SVG 1.1//EN" "http://www.w3.org/Graphics/SVG/1.1/DTD/svg11.dtd">
<svg version="1.1" id="Capa_1" xmlns="http://www.w3.org/2000/svg" xmlns:xlink="http://www.w3.org/1999/xlink" x="0px" y="0px"
	 width="19.918px" height="23.305px" viewBox="0 0 19.918 23.305" enable-background="new 0 0 19.918 23.305" xml:space="preserve">
<g>
	<path d="M13.541,8.822V3.8H0v14.482h6.376v5.021h13.542V8.822H13.541z M1.363,16.925V5.543H12.18v11.382H1.363z M18.542,21.928
		H7.755v-3.646h5.786v-0.358h3.979v-0.87h-3.979v-1.605h3.979v-0.87h-3.979v-1.265h3.979v-0.871h-3.979V10.58h5.001V21.928z"/>
	<rect x="2.441" y="7.419" width="8.702" height="0.874"/>
	<rect x="2.441" y="9.557" width="8.702" height="0.87"/>
	<rect x="2.441" y="12.032" width="8.702" height="0.87"/>
	<path d="M10.842,1.602c2.504,0,4.623,1.613,5.389,3.856h-1.639l2.488,2.49l2.488-2.49h-1.662v0.001C17.087,2.321,14.238,0,10.843,0
		C8.498,0,6.415,1.11,5.079,2.83h2.234C8.283,2.062,9.509,1.602,10.842,1.602z"/>
</g>
</svg>
