<?xml version="1.0" encoding="utf-8"?>
<!-- Generator: Adobe Illustrator 16.0.4, SVG Export Plug-In . SVG Version: 6.00 Build 0)  -->
<!DOCTYPE svg PUBLIC "-//W3C//DTD SVG 1.1//EN" "http://www.w3.org/Graphics/SVG/1.1/DTD/svg11.dtd">
<svg version="1.1" id="Capa_1" xmlns="http://www.w3.org/2000/svg" xmlns:xlink="http://www.w3.org/1999/xlink" x="0px" y="0px"
	 width="20.829px" height="23.303px" viewBox="0 0 20.829 23.303" enable-background="new 0 0 20.829 23.303" xml:space="preserve">
<g>
	<path d="M20.782,3.977c-0.145-0.382-0.572-0.575-0.953-0.43L15.95,5.01c-0.214,0.082-0.377,0.254-0.445,0.473l-2.828,9.067
		c-1.913,0-8.404,0-9.253,0c-0.266-0.922-1.972-6.862-1.972-6.862C1.336,7.294,0.928,7.068,0.536,7.18
		c-0.393,0.113-0.62,0.522-0.507,0.917l2.126,7.396c0.091,0.317,0.381,0.537,0.71,0.537h9.371c-0.202,0.698-0.462,1.595-0.589,2.03
		c-0.983,0-8.874,0-8.874,0c-0.408,0-0.739,0.331-0.739,0.741s0.331,0.738,0.739,0.738h9.429c0.33,0,0.62-0.216,0.713-0.532
		l1.017-3.513c0-0.001,0-0.002,0-0.003c0.056-0.178,2.679-8.591,2.877-9.224c0.563-0.212,3.542-1.337,3.542-1.337
		c0.295-0.113,0.479-0.395,0.479-0.691C20.829,4.153,20.813,4.063,20.782,3.977z"/>
	<circle cx="12.075" cy="21.67" r="1.635"/>
	<circle cx="3.166" cy="21.67" r="1.635"/>
	<path d="M5.211,8.901h5.668c1.25-0.888,2.073-2.341,2.073-3.993C12.954,2.196,10.755,0,8.043,0c-2.71,0-4.907,2.195-4.907,4.907
		C3.136,6.56,3.959,8.013,5.211,8.901z M8.043,4.27c0.285,0,0.517,0.853,0.517,1.903S8.328,8.076,8.043,8.076
		c-0.287,0-0.514-0.854-0.514-1.904S7.757,4.27,8.043,4.27z"/>
	<path d="M6.554,12.95c0.175,0.415,0.762,0.729,1.49,0.729c0.73,0,1.313-0.314,1.489-0.729h1.332V9.477H5.226v3.474H6.554z"/>
</g>
</svg>
