<?xml version="1.0" encoding="utf-8"?>
<!-- Generator: Adobe Illustrator 16.0.4, SVG Export Plug-In . SVG Version: 6.00 Build 0)  -->
<!DOCTYPE svg PUBLIC "-//W3C//DTD SVG 1.1//EN" "http://www.w3.org/Graphics/SVG/1.1/DTD/svg11.dtd">
<svg version="1.1" id="Capa_1" xmlns="http://www.w3.org/2000/svg" xmlns:xlink="http://www.w3.org/1999/xlink" x="0px" y="0px"
	 width="23.271px" height="23.182px" viewBox="0 0 23.271 23.182" enable-background="new 0 0 23.271 23.182" xml:space="preserve">
<g>
	<path d="M5.645,8.29L4.301,9.632l1.112,1.114l1.345-1.345C7.211,9.71,7.73,9.925,8.289,10.033v1.902h1.575v-1.902
		c0.559-0.107,1.078-0.323,1.533-0.631l1.343,1.344l1.111-1.114L12.51,8.291c0.309-0.456,0.524-0.977,0.632-1.535h1.902V5.182
		h-1.901c-0.106-0.559-0.321-1.079-0.631-1.535l1.341-1.34L12.74,1.192l-1.343,1.342c-0.454-0.308-0.976-0.523-1.533-0.631V0H8.289
		v1.902C7.73,2.011,7.209,2.228,6.756,2.535L5.413,1.192L4.301,2.307l1.344,1.342C5.336,4.104,5.119,4.623,5.013,5.182H3.106v1.574
		h1.906C5.119,7.315,5.336,7.834,5.645,8.29z M9.078,4.411c0.857,0,1.556,0.695,1.556,1.556c0,0.862-0.697,1.558-1.556,1.558
		c-0.857,0-1.557-0.696-1.557-1.558C7.521,5.108,8.219,4.411,9.078,4.411z"/>
	<path d="M23.215,1.591c-0.158-0.426-0.636-0.641-1.062-0.481l-4.334,1.637c-0.238,0.091-0.421,0.285-0.497,0.528l-3.158,10.126
		c-2.157,0-9.391,0-10.337,0c-0.298-1.029-2.204-7.666-2.204-7.666C1.494,5.298,1.037,5.045,0.6,5.17
		C0.16,5.296-0.093,5.753,0.034,6.193l2.376,8.262c0.102,0.354,0.425,0.6,0.792,0.6H13.67c-0.226,0.779-0.517,1.786-0.657,2.272
		c-1.099,0-9.914,0-9.914,0c-0.455,0-0.824,0.369-0.824,0.827s0.369,0.825,0.824,0.825h10.534c0.369,0,0.692-0.242,0.797-0.594
		l1.136-3.926c0.001-0.003,0-0.007,0.001-0.01c0.082-0.264,2.992-9.593,3.213-10.299c0.629-0.237,3.957-1.493,3.957-1.493
		c0.329-0.126,0.534-0.441,0.534-0.773C23.27,1.787,23.251,1.688,23.215,1.591z"/>
	<circle cx="13.491" cy="21.357" r="1.825"/>
	<circle cx="3.538" cy="21.357" r="1.825"/>
</g>
</svg>
