<?xml version="1.0" encoding="utf-8"?>
<!-- Generator: Adobe Illustrator 16.0.4, SVG Export Plug-In . SVG Version: 6.00 Build 0)  -->
<!DOCTYPE svg PUBLIC "-//W3C//DTD SVG 1.1//EN" "http://www.w3.org/Graphics/SVG/1.1/DTD/svg11.dtd">
<svg version="1.1" id="Capa_1" xmlns="http://www.w3.org/2000/svg" xmlns:xlink="http://www.w3.org/1999/xlink" x="0px" y="0px"
	 width="23.305px" height="18.168px" viewBox="0 0 23.305 18.168" enable-background="new 0 0 23.305 18.168" xml:space="preserve">
<g>
	<path d="M18.312,2.86L18.17,3.024V1.969C18.17,0.886,17.283,0,16.199,0H1.97C0.887,0,0,0.886,0,1.969v14.229
		c0,1.083,0.888,1.97,1.971,1.97h14.229c1.084,0,1.971-0.887,1.971-1.97V9.46l3.326-3.838L18.312,2.86z M14.54,13.648l2.139-2.468
		v5.298H1.49V4.083h15.188v0.663l-5.32,6.14L14.54,13.648z"/>
	<path d="M23.031,2.776l-2.123-1.838c-0.29-0.254-0.706-0.26-0.916-0.016l-1.33,1.535l3.188,2.761l1.328-1.535
		C23.392,3.44,23.326,3.027,23.031,2.776z"/>
	<polygon points="10.01,15.387 10.172,15.527 14.184,14.066 10.998,11.302 	"/>
</g>
</svg>
