<?xml version="1.0" encoding="utf-8"?>
<!-- Generator: Adobe Illustrator 16.0.4, SVG Export Plug-In . SVG Version: 6.00 Build 0)  -->
<!DOCTYPE svg PUBLIC "-//W3C//DTD SVG 1.1//EN" "http://www.w3.org/Graphics/SVG/1.1/DTD/svg11.dtd">
<svg version="1.1" id="Capa_1" xmlns="http://www.w3.org/2000/svg" xmlns:xlink="http://www.w3.org/1999/xlink" x="0px" y="0px"
	 width="23.303px" height="20.801px" viewBox="0 0 23.303 20.801" enable-background="new 0 0 23.303 20.801" xml:space="preserve">
<g>
	<path d="M22.224,8.648c-0.326,0.426-0.717,0.808-1.163,1.142v6.928h-1.054c0.001,0.25,0.002,0.429,0.002,0.429h-0.003
		c0,0.055,0.001,0.385,0.001,0.734h2.217V8.648z"/>
	<path d="M1.164,16.718V5.093l9.949,6.736l2.569-1.739c-0.353-0.222-0.668-0.479-0.961-0.755c-0.84,0.569-1.457,0.986-1.609,1.089
		c-0.517-0.351-6.298-4.266-8.479-5.741h8.482c0.098-0.542,0.282-1.058,0.539-1.536H0v14.734h14.385
		c-0.001-0.328-0.002-0.722-0.004-1.163H1.164z"/>
	<path d="M18.064,17.079l-0.002-1.099h0.774l-0.005-1.215H18.06l-0.004-1.097h0.776l-0.004-1.099h-0.775l-0.002-1.098l0.777-0.002
		l-0.012-1.73c1.931-0.607,3.321-2.231,3.321-4.161c-0.005-2.447-2.241-4.419-4.979-4.413c-2.749,0.005-4.97,1.993-4.967,4.433
		c0.008,1.926,1.401,3.545,3.331,4.148l0.026,8.463l1.615,1.162l1.676-1.173l-0.002-1.12H18.064z M16.041,4.196
		c-0.004-0.619,0.499-1.125,1.121-1.126c0.614,0,1.123,0.503,1.123,1.121c0.004,0.623-0.502,1.125-1.12,1.125
		C16.544,5.316,16.041,4.821,16.041,4.196z"/>
</g>
</svg>
