<?xml version="1.0" encoding="utf-8"?>
<!-- Generator: Adobe Illustrator 16.0.4, SVG Export Plug-In . SVG Version: 6.00 Build 0)  -->
<!DOCTYPE svg PUBLIC "-//W3C//DTD SVG 1.1//EN" "http://www.w3.org/Graphics/SVG/1.1/DTD/svg11.dtd">
<svg version="1.1" id="Capa_1" xmlns="http://www.w3.org/2000/svg" xmlns:xlink="http://www.w3.org/1999/xlink" x="0px" y="0px"
	 width="21.188px" height="23.305px" viewBox="0 0 21.188 23.305" enable-background="new 0 0 21.188 23.305" xml:space="preserve">
<path d="M15.41,10.474l2.981-2.896h-4.176V0H6.97v7.578H2.797l2.98,2.896C2.35,11.108,0,12.392,0,13.877v5.601
	c0,2.113,4.743,3.827,10.593,3.827c5.852,0,10.594-1.714,10.594-3.827v-5.601C21.187,12.392,18.837,11.108,15.41,10.474z
	 M10.593,16.936c-4.673,0-8.466-1.368-8.466-3.06c0-1.154,1.776-2.159,4.395-2.68l4.071,3.957l4.073-3.957
	c2.618,0.52,4.393,1.525,4.393,2.68C19.058,15.567,15.271,16.936,10.593,16.936z"/>
</svg>
