<?xml version="1.0" encoding="utf-8"?>
<!-- Generator: Adobe Illustrator 16.0.4, SVG Export Plug-In . SVG Version: 6.00 Build 0)  -->
<!DOCTYPE svg PUBLIC "-//W3C//DTD SVG 1.1//EN" "http://www.w3.org/Graphics/SVG/1.1/DTD/svg11.dtd">
<svg version="1.1" id="Capa_1" xmlns="http://www.w3.org/2000/svg" xmlns:xlink="http://www.w3.org/1999/xlink" x="0px" y="0px"
	 width="21px" height="21px" viewBox="0 0 21 21" enable-background="new 0 0 21 21" xml:space="preserve">
<g>
	<path d="M18.745,0H2.255C1.015,0,0,1.014,0,2.256v16.489C0,19.984,1.015,21,2.255,21h16.49C19.984,21,21,19.984,21,18.745V2.256
		C21,1.014,19.984,0,18.745,0z M6.881,1.559h7.234v1.87H6.881V1.559z M19.049,18.839h-17.1V5.215h17.1V18.839z"/>
	<rect x="3.675" y="11.415" width="2.255" height="2.256"/>
	<rect x="3.675" y="14.986" width="2.255" height="2.255"/>
	<rect x="7.457" y="7.845" width="2.254" height="2.255"/>
	<rect x="7.457" y="11.415" width="2.254" height="2.256"/>
	<rect x="7.457" y="14.986" width="2.254" height="2.255"/>
	<rect x="11.236" y="7.845" width="2.256" height="2.255"/>
	<rect x="11.236" y="11.415" width="2.256" height="2.256"/>
	<rect x="11.236" y="14.986" width="2.256" height="2.255"/>
	<rect x="15.016" y="7.845" width="2.256" height="2.255"/>
	<rect x="15.016" y="11.415" width="2.256" height="2.256"/>
</g>
</svg>
