<?xml version="1.0" encoding="utf-8"?>
<!-- Generator: Adobe Illustrator 16.0.4, SVG Export Plug-In . SVG Version: 6.00 Build 0)  -->
<!DOCTYPE svg PUBLIC "-//W3C//DTD SVG 1.1//EN" "http://www.w3.org/Graphics/SVG/1.1/DTD/svg11.dtd">
<svg version="1.1" id="Capa_1" xmlns="http://www.w3.org/2000/svg" xmlns:xlink="http://www.w3.org/1999/xlink" x="0px" y="0px"
	 width="20.529px" height="21px" viewBox="0 0 20.529 21" enable-background="new 0 0 20.529 21" xml:space="preserve">
<g>
	<path d="M17.739,0H2.792C1.253,0,0,1.252,0,2.792v11.429c0,1.538,1.253,2.789,2.792,2.789h1.624c0,0-1.195,2.738-1.744,3.99
		c1.643-1.609,4.07-3.99,4.07-3.99h10.997c1.54,0,2.791-1.251,2.791-2.789V2.792C20.53,1.252,19.278,0,17.739,0z M10.709,13.448
		c-0.172,0.177-0.379,0.266-0.622,0.266c-0.24,0-0.449-0.088-0.619-0.262c-0.171-0.175-0.257-0.392-0.257-0.647
		c0-0.244,0.086-0.451,0.257-0.619c0.171-0.166,0.379-0.25,0.619-0.25c0.243,0,0.45,0.084,0.622,0.254
		c0.169,0.17,0.255,0.373,0.255,0.615C10.964,13.057,10.878,13.271,10.709,13.448z M12.842,7.164
		c-0.134,0.277-0.478,0.664-1.026,1.167c-0.714,0.642-1.148,1.116-1.302,1.422c-0.152,0.305-0.236,0.813-0.25,1.519H9.876
		c0-0.573,0.03-1.027,0.087-1.357c0.062-0.331,0.141-0.59,0.234-0.783c0.095-0.19,0.337-0.542,0.724-1.056
		c0.305-0.396,0.52-0.771,0.646-1.124c0.121-0.351,0.187-0.741,0.187-1.163c0-0.573-0.164-1.035-0.486-1.386
		c-0.32-0.349-0.716-0.524-1.182-0.524c-0.402,0-0.735,0.1-1.005,0.298C8.812,4.376,8.679,4.58,8.679,4.79
		c0,0.116,0.094,0.248,0.282,0.394C9.243,5.407,9.387,5.65,9.387,5.913c0,0.233-0.074,0.43-0.227,0.584
		C9.009,6.65,8.818,6.729,8.591,6.729c-0.274,0-0.504-0.11-0.69-0.33c-0.188-0.217-0.282-0.505-0.282-0.86
		c0-0.56,0.258-1.062,0.773-1.508c0.518-0.445,1.166-0.667,1.949-0.667c0.805,0,1.464,0.247,1.988,0.745
		c0.522,0.494,0.784,1.1,0.784,1.815C13.113,6.38,13.022,6.795,12.842,7.164z"/>
</g>
</svg>
