<?xml version="1.0" encoding="utf-8"?>
<!-- Generator: Adobe Illustrator 16.0.4, SVG Export Plug-In . SVG Version: 6.00 Build 0)  -->
<!DOCTYPE svg PUBLIC "-//W3C//DTD SVG 1.1//EN" "http://www.w3.org/Graphics/SVG/1.1/DTD/svg11.dtd">
<svg version="1.1" id="Capa_1" xmlns="http://www.w3.org/2000/svg" xmlns:xlink="http://www.w3.org/1999/xlink" x="0px" y="0px"
	 width="21.812px" height="22px" viewBox="0 0 21.812 22" enable-background="new 0 0 21.812 22" xml:space="preserve">
<g>
	<path d="M20.556,5.953H18.7V0H2.644v8.094H2.508C1.128,8.094,0,9.225,0,10.604v8.886C0,20.869,1.128,22,2.508,22h16.793
		c1.382,0,2.513-1.131,2.513-2.51V7.208C21.813,6.519,21.244,5.953,20.556,5.953z M3.856,1.211c1.068,0,12.565,0,13.631,0
		c0,0.513,0,2.64,0,4.742h-5.806c-0.692,0-1.255,0.565-1.255,1.255v0.886h-6.57C3.856,5.55,3.856,1.905,3.856,1.211z M14.56,19.217
		h-6.3v-4.795h0.557v-1.17c0-1.432,1.164-2.594,2.593-2.594c1.432,0,2.591,1.162,2.591,2.594v1.17h0.56V19.217z"/>
	<path d="M11.409,11.637c-0.891,0-1.614,0.723-1.614,1.615v1.17h3.229v-1.17C13.024,12.361,12.299,11.637,11.409,11.637z"/>
	<path d="M11.409,15.508c-0.322,0-0.586,0.262-0.586,0.586c0,0.209,0.11,0.393,0.274,0.495l-0.134,1.313h0.89l-0.134-1.313
		c0.166-0.103,0.275-0.286,0.275-0.495C11.995,15.77,11.732,15.508,11.409,15.508z"/>
	<rect x="5.129" y="3.834" width="11.066" height="0.779"/>
</g>
</svg>
