<?xml version="1.0" encoding="utf-8"?>
<!-- Generator: Adobe Illustrator 16.0.4, SVG Export Plug-In . SVG Version: 6.00 Build 0)  -->
<!DOCTYPE svg PUBLIC "-//W3C//DTD SVG 1.1//EN" "http://www.w3.org/Graphics/SVG/1.1/DTD/svg11.dtd">
<svg version="1.1" id="Capa_1" xmlns="http://www.w3.org/2000/svg" xmlns:xlink="http://www.w3.org/1999/xlink" x="0px" y="0px"
	 width="23.305px" height="21.797px" viewBox="0 0 23.305 21.797" enable-background="new 0 0 23.305 21.797" xml:space="preserve">
<g>
	<path d="M22.572,10.979H6.412c-0.619,0-1.348,0.453-1.621,1.007L0.446,20.79c-0.273,0.555,0.009,1.008,0.626,1.008h16.161
		c0.619,0,1.347-0.453,1.62-1.008l4.347-8.804C23.472,11.432,23.191,10.979,22.572,10.979z"/>
	<path d="M6.412,9.853h11.997V9.811h1.559V0H5.564v1.757H2.902v4.039H1.42C0.64,5.796,0,6.437,0,7.215v11.937l3.784-7.664
		C4.242,10.557,5.374,9.853,6.412,9.853z M4.155,3.008c0.203,0,0.711,0,1.409,0v5.55c-0.698,0-1.206,0-1.409,0
		C4.155,7.631,4.155,3.938,4.155,3.008z M18.717,1.252c0,0.992,0,6.315,0,7.306c-0.312,0-1.358,0-2.699,0c-0.769,0-5.914,0-9.2,0
		c0-0.991,0-6.314,0-7.306C7.896,1.252,17.637,1.252,18.717,1.252z"/>
</g>
</svg>
