<?xml version="1.0" encoding="utf-8"?>
<!-- Generator: Adobe Illustrator 16.0.4, SVG Export Plug-In . SVG Version: 6.00 Build 0)  -->
<!DOCTYPE svg PUBLIC "-//W3C//DTD SVG 1.1//EN" "http://www.w3.org/Graphics/SVG/1.1/DTD/svg11.dtd">
<svg version="1.1" id="Capa_1" xmlns="http://www.w3.org/2000/svg" xmlns:xlink="http://www.w3.org/1999/xlink" x="0px" y="0px"
	 width="23.305px" height="20.891px" viewBox="0 0 23.305 20.891" enable-background="new 0 0 23.305 20.891" xml:space="preserve">
<polygon points="23.304,20.891 22.188,6.686 20.611,6.686 20.611,3.529 22.095,3.529 22.095,0 14.854,0 14.854,3.529 16.062,3.529 
	16.062,6.686 14.669,6.686 14.669,9.471 8.634,9.471 8.634,6.686 7.241,6.686 7.241,3.529 8.448,3.529 8.448,0 1.208,0 1.208,3.529 
	2.692,3.529 2.692,6.686 1.115,6.686 0,20.891 8.634,20.891 8.634,16.155 10.213,16.155 10.213,17.828 12.997,17.828 12.997,16.155 
	14.669,16.155 14.669,20.891 "/>
</svg>
