<?xml version="1.0" encoding="utf-8"?>
<!-- Generator: Adobe Illustrator 16.0.4, SVG Export Plug-In . SVG Version: 6.00 Build 0)  -->
<!DOCTYPE svg PUBLIC "-//W3C//DTD SVG 1.1//EN" "http://www.w3.org/Graphics/SVG/1.1/DTD/svg11.dtd">
<svg version="1.1" id="Capa_1" xmlns="http://www.w3.org/2000/svg" xmlns:xlink="http://www.w3.org/1999/xlink" x="0px" y="0px"
	 width="23.305px" height="21.867px" viewBox="0 0 23.305 21.867" enable-background="new 0 0 23.305 21.867" xml:space="preserve">
<g>
	<path d="M23.234,7.349l-0.551,1.222c0,0-0.243-2.262-0.611-3.487c-0.368-1.222-1.16-2.017-1.16-2.017l0.365,1.651
		c0,0-1.281-1.565-2.51-2.132c-0.192-0.089-0.384-0.175-0.574-0.259C16.577,0.884,14.451,0,12.113,0
		C8.804,0,5.915,1.762,4.309,4.394C4.229,4.345,3.771,4.053,3.548,3.496C3.303,2.884,3.179,2.212,3.179,2.212
		C1.652,3.679,2.017,6.124,2.017,6.124S1.406,6.736,0.796,7.715C0.185,8.693,0,10.465,0,10.465l1.04-1.098
		c0,0-0.244,0.487-0.427,1.405c-0.184,0.918-0.124,2.386-0.124,2.386l0.551-1.164c0,0,0,3.731,3.547,7.031
		c3.545,3.301,9.902,4.221,14.733,0.062S23.234,7.349,23.234,7.349z M12.113,1.2c1.889,0,3.62,0.661,4.983,1.76l-1.75,0.291
		c0,0,1.771,0.551,3.117,1.59c0.336,0.26,0.61,0.585,0.834,0.926c0.295,0.627,0.511,1.298,0.634,2.003l-0.855-0.667
		c0,0,0.304,0.367,0.366,1.345c0.062,0.978-0.246,2.751-0.246,2.751l-0.792-0.917c0,0,0.183,1.529-0.123,2.875
		c-0.306,1.342-0.978,1.891-0.978,1.891l0.12-1.588c0,0-0.916,2.02-3.484,2.812c-2.566,0.795-5.011-1.466-5.011-1.466
		c1.65,0.427,2.688-0.429,3.546-0.856c0.855-0.429,1.282-0.49,1.65-0.49c0.366,0,0-0.855-0.674-1.223
		c-0.672-0.365-1.466-0.183-3.056,0.246c-1.591,0.428-2.57-0.918-2.506-1.833c0.059-0.92,1.528-0.369,1.528-0.369L9.356,8.448
		c0,0,2.444-1.527,2.261-1.896c-0.182-0.367-1.038-0.242-1.773-0.489c-0.732-0.243-1.16-0.917-1.16-0.917S8.561,4.657,8.805,4.232
		c0.243-0.429,1.099-1.043,1.099-1.043s-0.549-0.06-1.466,0.245C7.521,3.74,6.848,4.29,6.848,4.29S6.668,4.234,5.92,4.173
		C7.376,2.362,9.608,1.2,12.113,1.2z"/>
</g>
</svg>
