<?xml version="1.0" encoding="utf-8"?>
<!-- Generator: Adobe Illustrator 16.0.4, SVG Export Plug-In . SVG Version: 6.00 Build 0)  -->
<!DOCTYPE svg PUBLIC "-//W3C//DTD SVG 1.1//EN" "http://www.w3.org/Graphics/SVG/1.1/DTD/svg11.dtd">
<svg version="1.1" id="Capa_1" xmlns="http://www.w3.org/2000/svg" xmlns:xlink="http://www.w3.org/1999/xlink" x="0px" y="0px"
	 width="23.303px" height="22.975px" viewBox="0 0 23.303 22.975" enable-background="new 0 0 23.303 22.975" xml:space="preserve">
<path d="M12.307,9.51l1.209-2.799c0.059-0.185,0.083-0.362,0.113-0.545H9.752v4.159h2.163C12.042,10.051,12.174,9.781,12.307,9.51z
	 M7.776,6.166H0.011v4.159h7.765V6.166z M4.679,12.46v4.161h5.836c-0.065-0.337-0.104-0.678-0.104-1.025
	c0-1.082,0.241-2.122,0.598-3.136H4.679z M2.906,12.46H0v4.161h2.906V12.46z M2.906,0H0v4.162h2.906V0z M11.476,18.812H9.752v4.162
	h7.763v-1.354c-1.799,0.126-3.66-0.491-5.046-1.705C12.083,19.576,11.756,19.206,11.476,18.812z M0.011,22.975h7.765v-4.162H0.011
	V22.975z M20.312,6.867c0,0,0.485,1.775,0.203,3.108c-0.232,1.104-1.172,2.221-1.172,2.221s1.211-2.02-0.646-5.413
	c-1.266-2.312-4.604-4.038-4.604-4.038s1.614,2.424,0.808,4.928c-0.808,2.505-2.827,5.171-2.827,7.917
	c0,2.747,2.912,4.911,5.78,4.532c2.869-0.378,5.529-2.229,5.447-6.433C23.223,9.642,20.312,6.867,20.312,6.867z M12.796,0H4.679
	v4.162h8.117V0z M17.513,0h-2.907v1.307c0.677,0.383,1.933,1.123,2.907,1.886V0z"/>
</svg>
