<?xml version="1.0" encoding="utf-8"?>
<!-- Generator: Adobe Illustrator 16.0.4, SVG Export Plug-In . SVG Version: 6.00 Build 0)  -->
<!DOCTYPE svg PUBLIC "-//W3C//DTD SVG 1.1//EN" "http://www.w3.org/Graphics/SVG/1.1/DTD/svg11.dtd">
<svg version="1.1" id="Capa_1" xmlns="http://www.w3.org/2000/svg" xmlns:xlink="http://www.w3.org/1999/xlink" x="0px" y="0px"
	 width="23.305px" height="23.303px" viewBox="0 0 23.305 23.303" enable-background="new 0 0 23.305 23.303" xml:space="preserve">
<g>
	<path d="M11.652-0.001C5.217-0.001,0,5.216,0,11.651c0,6.436,5.217,11.652,11.652,11.652s11.652-5.217,11.652-11.652
		C23.304,5.216,18.088-0.001,11.652-0.001z M16.725,7.147c0,0-1.95-0.032-2.739,1.199c-0.217,0.34-0.503,0.936-0.82,1.641h2.055
		v2.772h-3.239c-0.466,1.097-0.895,2.086-1.175,2.567c-0.72,1.23-1.951,2.224-3.014,2.669c-1.059,0.443-2.325,0.408-2.325,0.408
		v-2.702c0,0,2.018,0.273,3.113-2.019c1.095-2.292,2.395-6.468,4.449-8.007c2.052-1.54,3.696-1.164,3.695-1.164V7.147z"/>
</g>
</svg>
