<?xml version="1.0" encoding="utf-8"?>
<!-- Generator: Adobe Illustrator 16.0.4, SVG Export Plug-In . SVG Version: 6.00 Build 0)  -->
<!DOCTYPE svg PUBLIC "-//W3C//DTD SVG 1.1//EN" "http://www.w3.org/Graphics/SVG/1.1/DTD/svg11.dtd">
<svg version="1.1" id="Capa_1" xmlns="http://www.w3.org/2000/svg" xmlns:xlink="http://www.w3.org/1999/xlink" x="0px" y="0px"
	 width="16.646px" height="23.305px" viewBox="0 0 16.646 23.305" enable-background="new 0 0 16.646 23.305" xml:space="preserve">
<g>
	<path d="M5.652,11.254c0,0,6.206-0.482,6.982-3.005c0.776-2.523-4.618-2.329-4.715-4.95C7.857,1.604,10.311,0,10.311,0
		S4.877,0.97,5.753,4.368c0.632,2.466,3.296,2.423,3.781,3.588C10.018,9.121,5.652,11.254,5.652,11.254z"/>
	<path d="M16.62,12.191H0.027C0.015,12.403,0,12.61,0,12.826c0,3.636,1.571,6.817,3.926,8.61v1.867h8.796v-1.867
		c2.354-1.794,3.925-4.975,3.925-8.61C16.647,12.61,16.625,12.403,16.62,12.191z"/>
</g>
</svg>
