<?xml version="1.0" encoding="utf-8"?>
<!-- Generator: Adobe Illustrator 16.0.4, SVG Export Plug-In . SVG Version: 6.00 Build 0)  -->
<!DOCTYPE svg PUBLIC "-//W3C//DTD SVG 1.1//EN" "http://www.w3.org/Graphics/SVG/1.1/DTD/svg11.dtd">
<svg version="1.1" id="Capa_1" xmlns="http://www.w3.org/2000/svg" xmlns:xlink="http://www.w3.org/1999/xlink" x="0px" y="0px"
	 width="22.6px" height="21.939px" viewBox="0 0 22.6 21.939" enable-background="new 0 0 22.6 21.939" xml:space="preserve">
<path d="M17.95,20.979c-0.261,0.527-0.955,0.96-1.543,0.96H1.021c-0.589,0-0.857-0.433-0.598-0.96l4.138-8.383
	c0.259-0.527,0.954-0.959,1.543-0.959H21.49c0.59,0,0.856,0.432,0.598,0.959L17.95,20.979z"/>
<polygon points="15.243,8.783 10.812,8.783 10.812,10.567 17.028,10.567 "/>
<path d="M0,8.055v11.363l3.601-7.295c0.137-0.274,0.348-0.517,0.585-0.736V6.704H1.352C0.609,6.704,0,7.312,0,8.055z"/>
<path d="M7.5,0.15L2.771,4.879h2.648v4.937H9.58V4.879h2.648L7.5,0.15z"/>
<path d="M17.871,9.668l-4.729-4.729h2.647V0h4.16v4.938h2.65L17.871,9.668z"/>
</svg>
