<?xml version="1.0" encoding="utf-8"?>
<!-- Generator: Adobe Illustrator 17.0.0, SVG Export Plug-In . SVG Version: 6.00 Build 0)  -->
<!DOCTYPE svg PUBLIC "-//W3C//DTD SVG 1.1//EN" "http://www.w3.org/Graphics/SVG/1.1/DTD/svg11.dtd">
<svg version="1.1" id="Capa_1" xmlns="http://www.w3.org/2000/svg" xmlns:xlink="http://www.w3.org/1999/xlink" x="0px" y="0px"
	 width="22.598px" height="19.824px" viewBox="0 0 22.598 19.824" enable-background="new 0 0 22.598 19.824" xml:space="preserve">
<path d="M7.37,17.822h7.857v2.002H7.37V17.822z M22.598,0v17.052H0V0H22.598z M20.272,15.357c0-0.404-0.327-0.732-0.731-0.732
	s-0.732,0.328-0.732,0.732s0.328,0.732,0.732,0.732C19.946,16.089,20.272,15.761,20.272,15.357z M20.758,1.438H1.841v12.099h18.917
	V1.438z M6.152,10.738c-1.668-1.669-1.668-4.372,0-6.042c1.667-1.669,4.374-1.669,6.042,0L9.173,7.717l3.022,3.021
	C10.527,12.408,7.821,12.408,6.152,10.738z M8.1,5.262c0,0.33,0.268,0.598,0.599,0.598c0.33,0,0.598-0.268,0.598-0.598
	c0-0.33-0.268-0.598-0.598-0.598C8.368,4.664,8.101,4.932,8.1,5.262z M12.989,8.517c0.45,0,0.814-0.364,0.814-0.814
	s-0.364-0.814-0.814-0.814c-0.45,0-0.814,0.364-0.814,0.814S12.539,8.517,12.989,8.517z M16.627,8.518
	c0.45,0,0.815-0.365,0.815-0.815s-0.365-0.815-0.815-0.815c-0.45,0-0.815,0.365-0.815,0.815S16.177,8.518,16.627,8.518z"/>
</svg>
