<?xml version="1.0" encoding="utf-8"?>
<!-- Generator: Adobe Illustrator 16.0.4, SVG Export Plug-In . SVG Version: 6.00 Build 0)  -->
<!DOCTYPE svg PUBLIC "-//W3C//DTD SVG 1.1//EN" "http://www.w3.org/Graphics/SVG/1.1/DTD/svg11.dtd">
<svg version="1.1" id="Capa_1" xmlns="http://www.w3.org/2000/svg" xmlns:xlink="http://www.w3.org/1999/xlink" x="0px" y="0px"
	 width="18.051px" height="22px" viewBox="0 0 18.051 22" enable-background="new 0 0 18.051 22" xml:space="preserve">
<g>
	<path d="M16.674,0H1.377C0.62,0,0,0.621,0,1.376v19.246C0,21.38,0.62,22,1.377,22h15.297c0.756,0,1.377-0.62,1.377-1.378V1.376
		C18.051,0.621,17.43,0,16.674,0z M2.357,2.358h13.804v9.205H2.357V2.358z M7.645,18.586H6.043v1.602H4.199v-1.602H2.595v-1.845
		h1.604v-1.603h1.844v1.603h1.602V18.586z M11.262,18.925c-0.729,0-1.318-0.591-1.318-1.319c0-0.731,0.591-1.321,1.318-1.321
		c0.73,0,1.32,0.59,1.32,1.321C12.582,18.335,11.992,18.925,11.262,18.925z M15.05,18.925c-0.729,0-1.319-0.591-1.319-1.319
		c0-0.731,0.592-1.321,1.319-1.321c0.729,0,1.32,0.59,1.32,1.321C16.37,18.335,15.779,18.925,15.05,18.925z"/>
</g>
</svg>
