<?xml version="1.0" encoding="utf-8"?>
<!-- Generator: Adobe Illustrator 16.0.4, SVG Export Plug-In . SVG Version: 6.00 Build 0)  -->
<!DOCTYPE svg PUBLIC "-//W3C//DTD SVG 1.1//EN" "http://www.w3.org/Graphics/SVG/1.1/DTD/svg11.dtd">
<svg version="1.1" id="Capa_1" xmlns="http://www.w3.org/2000/svg" xmlns:xlink="http://www.w3.org/1999/xlink" x="0px" y="0px"
	 width="19.84px" height="23.305px" viewBox="0 0 19.84 23.305" enable-background="new 0 0 19.84 23.305" xml:space="preserve">
<g>
	<path d="M10.385,4.392c-0.69,0-1.361,0.079-2.009,0.22C8.478,4.78,8.578,4.946,8.669,5.095c1.312-0.264,1.991,0.104,2.338,0.483
		c0.287,0.021,0.57,0.057,0.849,0.107c0.142,0.874,0.434,2.076,1,2.39c0.914,0.507,2.022,1.624,2.432,1.825
		c0.408,0.201,0.912,1.93,0.811,2.637c-0.101,0.711-1.318,1.521-1.014,2.232s-0.202,1.521-0.202,1.521s-0.505,2.33-0.813,2.638
		c-0.299,0.303-2.127,1.113-1.723,1.618c0.405,0.511,1.623-0.098,2.84-0.403c0.299-0.074,0.598-0.167,0.885-0.272
		c-1.486,1.402-3.483,2.269-5.686,2.269c-1.585,0-3.062-0.454-4.323-1.229c1.129,0.009-0.847-1.727,0.517-1.994
		C8.009,18.635,8.61,17,8.152,17.025c-0.458,0.023-1.327-0.236-1.939-1.007c-0.614-0.773-1.149-0.599-1.782-0.477
		c-0.553,0.109-1.232,1.708-1.402,2.127c-0.43-0.823-0.721-1.728-0.854-2.684c0.703-0.368,1.848-0.986,2.261-1.329
		c0.609-0.507-0.204-0.709-0.305-1.015c-0.071-0.22-0.04-0.65-0.017-1.135c-0.49-0.097-0.877-0.329-1.114-0.72
		c-0.118-0.193-0.23-0.47-0.23-0.829c0-0.451,0.189-1.034,0.752-1.733c-0.097-0.16-0.204-0.336-0.313-0.516
		C1.792,9.361,0.93,11.503,0.93,13.845c0,5.214,4.241,9.459,9.455,9.459c5.213,0,9.455-4.245,9.455-9.459
		C19.84,8.633,15.598,4.392,10.385,4.392z M17.314,13.146c-0.5-0.356-0.912-1.926-0.606-2.435c0.183-0.304,0.658-0.571,1.009-0.736
		c0.612,1.157,0.963,2.472,0.963,3.87c0,0.419-0.041,0.827-0.102,1.229C18.399,14.363,18.054,13.677,17.314,13.146z"/>
	<path d="M3.896,10.24c0.347,0.571,1.801,0.331,3.377-0.51l2.763,4.548l1.009-0.614L8.283,9.117c1.47-1.011,2.351-2.191,2.005-2.761
		c-0.249-0.413-1.079-0.398-2.11-0.046L6.007,2.74C6.54,2.167,6.793,1.637,6.602,1.32c-0.33-0.541-1.824-0.235-3.335,0.684
		C1.753,2.925,0.795,4.107,1.125,4.649c0.19,0.313,0.78,0.336,1.532,0.126l2.17,3.571C4.04,9.1,3.646,9.829,3.896,10.24z"/>
</g>
</svg>
