<?xml version="1.0" encoding="utf-8"?>
<!-- Generator: Adobe Illustrator 16.0.4, SVG Export Plug-In . SVG Version: 6.00 Build 0)  -->
<!DOCTYPE svg PUBLIC "-//W3C//DTD SVG 1.1//EN" "http://www.w3.org/Graphics/SVG/1.1/DTD/svg11.dtd">
<svg version="1.1" id="Capa_1" xmlns="http://www.w3.org/2000/svg" xmlns:xlink="http://www.w3.org/1999/xlink" x="0px" y="0px"
	 width="23.303px" height="23.689px" viewBox="0 0 23.303 23.689" enable-background="new 0 0 23.303 23.689" xml:space="preserve">
<g>
	<path d="M4.992,11.773c0,3.674,2.989,6.666,6.666,6.666c3.674,0,6.666-2.99,6.666-6.666c0-3.675-2.991-6.665-6.666-6.665
		C7.982,5.108,4.992,8.099,4.992,11.773z M7.802,16.159c0.474,0.256,1.043,0.374,1.555,0.301c1.072-0.152-0.814-1.022,0.104-1.479
		c0.919-0.46,1.021-1.685,0.714-1.583c-0.306,0.104-1.072-0.204-1.632-0.61c-0.562-0.41-0.768,0.103-1.174,0.306
		c-0.409,0.204-0.562,1.785-0.562,1.785c0.013,0.09,0.045,0.173,0.074,0.257C6.354,14.391,6,13.518,5.87,12.573
		c0.495-0.258,1.303-0.694,1.594-0.936c0.43-0.358-0.144-0.501-0.215-0.716c-0.07-0.214,0-0.715,0-1.214
		c0-0.501,1.002-0.501,1.357-1.001c0.255-0.356-0.213-1.143-0.505-1.568c0.987-0.759,2.218-1.216,3.557-1.216
		c0.354,0,0.699,0.037,1.036,0.098c0.101,0.616,0.307,1.465,0.704,1.686c0.645,0.356,1.426,1.144,1.713,1.286
		c0.288,0.142,0.644,1.36,0.572,1.859c-0.072,0.5-0.93,1.072-0.713,1.573c0.212,0.5-0.143,1.074-0.143,1.074
		s-0.357,1.642-0.574,1.857c-0.212,0.214-1.5,0.786-1.213,1.142c0.283,0.359,1.143-0.069,2.001-0.285
		c0.211-0.053,0.422-0.118,0.624-0.192c-1.048,0.988-2.456,1.6-4.008,1.6C10.18,17.62,8.833,17.066,7.802,16.159z M17.432,12.653
		c-0.125-0.506-0.364-0.995-0.889-1.371c-0.354-0.253-0.645-1.358-0.428-1.717c0.129-0.215,0.465-0.403,0.712-0.519
		c0.431,0.815,0.678,1.743,0.678,2.727C17.505,12.073,17.476,12.365,17.432,12.653z"/>
	<path d="M8.867,10.344c-0.309,1.429,0.764,0.154,0.97-0.102c0.204-0.257,0.306-1.481-0.053-1.839
		C9.429,8.046,8.867,10.344,8.867,10.344z"/>
	<path d="M21.425,5.43L19.84,6.765c1.025,1.684,1.57,3.687,1.389,5.805c-0.455,5.297-5.116,9.224-10.413,8.771
		c-1.095-0.096-2.121-0.389-3.071-0.814l1.196-1.483l-4.588-0.075l0.842,4.723l1.219-1.512c1.283,0.648,2.705,1.072,4.226,1.203
		c6.42,0.551,12.071-4.209,12.622-10.63C23.488,10.067,22.781,7.524,21.425,5.43z"/>
	<path d="M11.667,2.051c1.771,0,3.415,0.497,4.838,1.337l-1.137,1.213l4.569,0.414l-0.489-4.771l-1.501,1.603
		C16.134,0.683,13.983,0,11.669,0C5.225,0,0,5.224,0,11.668c0,2.692,0.921,5.163,2.453,7.139l1.464-1.464
		c-1.166-1.594-1.876-3.541-1.876-5.667C2.041,6.359,6.351,2.051,11.667,2.051z"/>
</g>
</svg>
