<?xml version="1.0" encoding="utf-8"?>
<!-- Generator: Adobe Illustrator 16.0.4, SVG Export Plug-In . SVG Version: 6.00 Build 0)  -->
<!DOCTYPE svg PUBLIC "-//W3C//DTD SVG 1.1//EN" "http://www.w3.org/Graphics/SVG/1.1/DTD/svg11.dtd">
<svg version="1.1" id="Capa_1" xmlns="http://www.w3.org/2000/svg" xmlns:xlink="http://www.w3.org/1999/xlink" x="0px" y="0px"
	 width="23.303px" height="23.004px" viewBox="0 0 23.303 23.004" enable-background="new 0 0 23.303 23.004" xml:space="preserve">
<g>
	<path d="M23.303,0H0v17.465h13.726c2.291,2.302,4.746,4.769,4.746,4.769c1.091,1.038,2.8,1.026,3.838-0.021
		c0.523-0.521,0.786-1.215,0.786-1.912c0-0.682-0.254-1.367-0.765-1.896c0,0-0.367-0.37-0.933-0.939h1.904V0z M21.491,19.223
		l-0.013,0.006c0.58,0.602,0.578,1.557-0.015,2.145c-0.585,0.592-1.539,0.592-2.136,0.01l-0.013,0.012l-8.913-8.957l0.027-0.023
		l-4.073-0.014l-1.149-4.28l0.458-0.453L7.94,9.94l2.222-2.224L7.883,5.444l0.458-0.456l4.282,1.147l0.014,4.188L21.491,19.223z
		 M22.113,16.275c-0.185,0-0.878,0-1.896,0c-0.441-0.444-0.919-0.925-1.416-1.426h1.583V2.615H2.777v12.234h8.346
		c0.412,0.414,0.894,0.898,1.418,1.426c-5.238,0-10.773,0-11.354,0c0-1.062,0-14.025,0-15.085c1.095,0,19.831,0,20.925,0
		C22.113,2.25,22.113,15.213,22.113,16.275z"/>
	<path d="M20.902,20.81c0.265-0.269,0.262-0.692,0-0.956c-0.265-0.262-0.691-0.262-0.957,0.001c-0.264,0.267-0.26,0.69,0.004,0.955
		C20.21,21.075,20.637,21.073,20.902,20.81z"/>
</g>
</svg>
