<?xml version="1.0" encoding="utf-8"?>
<!-- Generator: Adobe Illustrator 16.0.4, SVG Export Plug-In . SVG Version: 6.00 Build 0)  -->
<!DOCTYPE svg PUBLIC "-//W3C//DTD SVG 1.1//EN" "http://www.w3.org/Graphics/SVG/1.1/DTD/svg11.dtd">
<svg version="1.1" id="Capa_1" xmlns="http://www.w3.org/2000/svg" xmlns:xlink="http://www.w3.org/1999/xlink" x="0px" y="0px"
	 width="23.75px" height="23.303px" viewBox="0 0 23.75 23.303" enable-background="new 0 0 23.75 23.303" xml:space="preserve">
<g>
	<path d="M23.75,12.856V1.649h-5.021V0H10.1v1.648H5.074v3.938C3.851,5.76,2.67,6.296,1.73,7.237
		c-2.307,2.307-2.307,6.046-0.001,8.355c2.073,2.072,5.294,2.266,7.601,0.616l0.992,0.955l-0.396,0.8l5.344,5.341
		c0,0,1.162,0.012,1.862-0.787c0.701-0.8,0.665-1.74,0.665-1.74l-5.34-5.342l-0.693,0.419l-1.059-1.022
		c0.434-0.608,0.732-1.277,0.908-1.976H23.75z M9.125,14.633c-1.774,1.774-4.658,1.775-6.436-0.002
		c-1.777-1.776-1.776-4.655,0.004-6.435C4.465,6.42,7.349,6.418,9.129,8.196C10.903,9.974,10.903,12.854,9.125,14.633z M14.415,3.71
		c1.774,0,3.222,1.44,3.222,3.218c0,1.782-1.447,3.223-3.222,3.223c-1.781,0-3.224-1.44-3.224-3.223
		C11.191,5.152,12.633,3.71,14.415,3.71z"/>
	<path d="M14.509,8.798c0.984,0,1.782-0.798,1.782-1.78c0-0.988-0.798-1.786-1.782-1.785c-0.983,0-1.782,0.799-1.782,1.785
		C12.727,8,13.525,8.798,14.509,8.798z"/>
</g>
</svg>
