<?xml version="1.0" encoding="utf-8"?>
<!-- Generator: Adobe Illustrator 16.0.4, SVG Export Plug-In . SVG Version: 6.00 Build 0)  -->
<!DOCTYPE svg PUBLIC "-//W3C//DTD SVG 1.1//EN" "http://www.w3.org/Graphics/SVG/1.1/DTD/svg11.dtd">
<svg version="1.1" id="Capa_1" xmlns="http://www.w3.org/2000/svg" xmlns:xlink="http://www.w3.org/1999/xlink" x="0px" y="0px"
	 width="23.303px" height="23.303px" viewBox="0 0 23.303 23.303" enable-background="new 0 0 23.303 23.303" xml:space="preserve">
<path d="M11.652,0C5.219,0,0,5.217,0,11.651c0,6.435,5.219,11.652,11.651,11.652c6.436,0,11.65-5.217,11.65-11.652
	C23.302,5.216,18.087,0,11.652,0z M13.68,19.606H9.631V9.908h4.049V19.606z M11.652,8.212c-1.247,0-2.259-1.009-2.259-2.258
	c0-1.247,1.012-2.26,2.259-2.26c1.248,0,2.258,1.013,2.258,2.26C13.909,7.203,12.9,8.212,11.652,8.212z"/>
</svg>
