<?xml version="1.0" encoding="utf-8"?>
<!-- Generator: Adobe Illustrator 16.0.4, SVG Export Plug-In . SVG Version: 6.00 Build 0)  -->
<!DOCTYPE svg PUBLIC "-//W3C//DTD SVG 1.1//EN" "http://www.w3.org/Graphics/SVG/1.1/DTD/svg11.dtd">
<svg version="1.1" id="Capa_1" xmlns="http://www.w3.org/2000/svg" xmlns:xlink="http://www.w3.org/1999/xlink" x="0px" y="0px"
	 width="23.334px" height="23.303px" viewBox="0 0 23.334 23.303" enable-background="new 0 0 23.334 23.303" xml:space="preserve">
<g>
	<path d="M23.333,12.749c0.001-0.759-0.082-1.498-0.234-2.213v-0.133h-0.031c-0.84-3.704-3.633-6.663-7.238-7.751
		c2.615-1.099,4.854-1.192,6.046,0c0.997,0.997,1.101,2.729,0.462,4.798c1.069-2.774,1.08-5.145-0.223-6.447
		c-1.737-1.737-5.368-1.133-9.325,1.193c-0.003,0-0.006,0-0.009,0c-5.821,0-10.544,4.716-10.552,10.538
		c-2.353,3.978-2.97,7.635-1.225,9.379c1.304,1.305,3.673,1.294,6.446,0.225c-2.069,0.638-3.798,0.536-4.796-0.463
		c-1.2-1.2-1.097-3.459,0.021-6.096c1.303,4.352,5.333,7.524,10.106,7.524c4.682,0,8.648-3.05,10.029-7.27h-6.209
		c-0.925,1.074-2.293,1.758-3.822,1.758c-2.335,0-4.297-1.593-4.869-3.751h15.342C23.301,13.616,23.333,13.186,23.333,12.749z
		 M8.319,10.404c0.845-1.601,2.524-2.695,4.462-2.695c1.937,0,3.618,1.095,4.462,2.695H8.319z"/>
</g>
</svg>
