<?xml version="1.0" encoding="utf-8"?>
<!-- Generator: Adobe Illustrator 16.0.4, SVG Export Plug-In . SVG Version: 6.00 Build 0)  -->
<!DOCTYPE svg PUBLIC "-//W3C//DTD SVG 1.1//EN" "http://www.w3.org/Graphics/SVG/1.1/DTD/svg11.dtd">
<svg version="1.1" id="Capa_1" xmlns="http://www.w3.org/2000/svg" xmlns:xlink="http://www.w3.org/1999/xlink" x="0px" y="0px"
	 width="22.15px" height="23.305px" viewBox="0 0 22.15 23.305" enable-background="new 0 0 22.15 23.305" xml:space="preserve">
<g>
	<polygon points="13.963,1.912 13.963,21.393 22.151,23.303 22.151,0 	"/>
	<path d="M0,21.393h12.699V1.912H0V21.393z M6.187,3.641c1.021,0,1.842,0.823,1.842,1.842c0,1.017-0.82,1.842-1.842,1.842
		c-1.017,0-1.842-0.825-1.842-1.842C4.345,4.465,5.17,3.641,6.187,3.641z M3.689,9.913c0-1.33,1.12-2.402,2.498-2.402
		c1.38,0,2.5,1.072,2.5,2.402v4.089H7.94v6.383H4.434v-6.383H3.689V9.913z"/>
</g>
</svg>
