<?xml version="1.0" encoding="utf-8"?>
<!-- Generator: Adobe Illustrator 16.0.4, SVG Export Plug-In . SVG Version: 6.00 Build 0)  -->
<!DOCTYPE svg PUBLIC "-//W3C//DTD SVG 1.1//EN" "http://www.w3.org/Graphics/SVG/1.1/DTD/svg11.dtd">
<svg version="1.1" id="Capa_1" xmlns="http://www.w3.org/2000/svg" xmlns:xlink="http://www.w3.org/1999/xlink" x="0px" y="0px"
	 width="21px" height="20.973px" viewBox="0 0 21 20.973" enable-background="new 0 0 21 20.973" xml:space="preserve">
<g>
	<path d="M0,0v6.297h21V0H0z M14.072,4.097H2.334V2.201h11.738V4.097z M19.699,4.415l-0.713,0.716l-1.268-1.271l-1.268,1.271
		l-0.713-0.716l1.269-1.27l-1.269-1.265l0.713-0.711l1.268,1.266l1.268-1.266l0.713,0.711l-1.268,1.265L19.699,4.415z"/>
	<path d="M0,13.535h21V7.24H0V13.535z M15.738,9.12l0.713-0.713l1.268,1.27l1.268-1.27l0.713,0.713l-1.268,1.267l1.268,1.268
		l-0.713,0.715l-1.268-1.268l-1.268,1.268l-0.713-0.715l1.269-1.268L15.738,9.12z M2.334,9.439h11.738v1.896H2.334V9.439z"/>
	<path d="M0,20.973h21v-6.298H0V20.973z M15.738,16.557l0.713-0.712l1.268,1.268l1.268-1.268l0.713,0.712l-1.268,1.267l1.268,1.27
		l-0.713,0.712l-1.268-1.268l-1.268,1.268l-0.713-0.712l1.269-1.27L15.738,16.557z M2.334,16.875h11.738v1.896H2.334V16.875z"/>
</g>
</svg>
