<?xml version="1.0" encoding="utf-8"?>
<!-- Generator: Adobe Illustrator 17.0.0, SVG Export Plug-In . SVG Version: 6.00 Build 0)  -->
<!DOCTYPE svg PUBLIC "-//W3C//DTD SVG 1.1//EN" "http://www.w3.org/Graphics/SVG/1.1/DTD/svg11.dtd">
<svg version="1.1" id="Capa_1" xmlns="http://www.w3.org/2000/svg" xmlns:xlink="http://www.w3.org/1999/xlink" x="0px" y="0px"
	 width="17.414px" height="23.303px" viewBox="0 0 17.414 23.303" enable-background="new 0 0 17.414 23.303" xml:space="preserve">
<path d="M0,10.801h5.333v0.79H0V10.801z M11.897,10.801v0.79h5.517v-0.79H11.897z M11.897,14.757h5.517v-0.79h-5.517V14.757z
	 M0,14.757h5.333v-0.79H0V14.757z M0,17.924h5.333v-0.792H0V17.924z M11.897,17.924h5.517v-0.792h-5.517V17.924z M10.613,18.72
	l0.006,1.321l-1.973,1.385l-1.903-1.374l-0.027-9.938C6.222,9.96,5.757,9.752,5.334,9.493C3.807,8.556,2.803,6.992,2.8,5.216
	c-0.006-2.874,2.606-5.21,5.834-5.217c3.228-0.006,5.85,2.319,5.856,5.193c0.004,1.805-1.027,3.397-2.593,4.334
	c-0.403,0.241-0.843,0.435-1.308,0.581l0.01,2.021l-0.914,0.001l0.003,1.291h0.914l0.003,1.289L9.69,14.712l0.003,1.289h0.913
	l0.005,1.427l-0.915,0.003l0.003,1.289H10.613z M9.96,3.563c0-0.728-0.59-1.319-1.319-1.319s-1.32,0.591-1.32,1.319
	c0,0.729,0.591,1.32,1.32,1.32S9.96,4.292,9.96,3.563z"/>
</svg>
