<?xml version="1.0" encoding="utf-8"?>
<!-- Generator: Adobe Illustrator 16.0.4, SVG Export Plug-In . SVG Version: 6.00 Build 0)  -->
<!DOCTYPE svg PUBLIC "-//W3C//DTD SVG 1.1//EN" "http://www.w3.org/Graphics/SVG/1.1/DTD/svg11.dtd">
<svg version="1.1" id="Capa_1" xmlns="http://www.w3.org/2000/svg" xmlns:xlink="http://www.w3.org/1999/xlink" x="0px" y="0px"
	 width="23.305px" height="23.305px" viewBox="0 0 23.305 23.305" enable-background="new 0 0 23.305 23.305" xml:space="preserve">
<g>
	<path d="M12.237,6.867h-0.604v0.418l-0.59,0.001V6.869l-0.651,0.002v0.417L9.803,7.289V6.871l-0.59,0.002V7.29L8.625,7.292
		L8.623,6.875L7.692,6.879C7.364,5.842,6.493,5.095,5.458,5.096C4.145,5.099,3.084,6.299,3.087,7.77
		c0.003,1.475,1.07,2.667,2.381,2.667c1.035-0.005,1.904-0.753,2.228-1.79l4.547-0.013l0.624-0.867L12.237,6.867z M4.715,8.371
		C4.382,8.372,4.111,8.102,4.111,7.768c0-0.33,0.269-0.604,0.601-0.604c0.335-0.002,0.606,0.27,0.606,0.603
		C5.318,8.101,5.05,8.371,4.715,8.371z"/>
	<path d="M23.303,19.994L16.309,13l-0.908,0.55l-1.37-1.327c2.158-3.022,1.89-7.245-0.823-9.958
		C10.184-0.756,5.286-0.754,2.265,2.265s-3.021,7.919,0,10.941c2.714,2.716,6.94,2.981,9.963,0.819l1.286,1.238l-0.519,1.047
		l6.995,6.993c0,0,1.522,0.018,2.441-1.031C23.348,21.226,23.303,19.994,23.303,19.994z M3.523,11.951
		C1.196,9.622,1.198,5.852,3.525,3.523c2.32-2.326,6.097-2.329,8.428-0.001c2.322,2.33,2.324,6.1-0.005,8.43
		C9.625,14.275,5.85,14.276,3.523,11.951z"/>
</g>
</svg>
