<?xml version="1.0" encoding="utf-8"?>
<!-- Generator: Adobe Illustrator 16.0.4, SVG Export Plug-In . SVG Version: 6.00 Build 0)  -->
<!DOCTYPE svg PUBLIC "-//W3C//DTD SVG 1.1//EN" "http://www.w3.org/Graphics/SVG/1.1/DTD/svg11.dtd">
<svg version="1.1" id="Capa_1" xmlns="http://www.w3.org/2000/svg" xmlns:xlink="http://www.w3.org/1999/xlink" x="0px" y="0px"
	 width="20.997px" height="21px" viewBox="0 0 20.997 21" enable-background="new 0 0 20.997 21" xml:space="preserve">
<g>
	<path d="M0,0v21h20.997V0H0z M18.691,1.143c0.377,0,0.681,0.304,0.681,0.679s-0.304,0.68-0.681,0.68
		c-0.375,0-0.678-0.305-0.678-0.68C18.013,1.448,18.316,1.143,18.691,1.143z M16.318,1.143c0.375,0,0.679,0.304,0.679,0.679
		s-0.304,0.68-0.679,0.68c-0.374,0-0.68-0.305-0.68-0.68C15.638,1.448,15.944,1.143,16.318,1.143z M19.374,19.404H1.622V3.973
		h17.751V19.404z"/>
	<path d="M5.52,16.623c-0.15,0.316-0.202,0.533-0.12,0.613c0.077,0.078,0.296,0.029,0.61-0.116l-0.042,0.042l1.575,1.572
		l0.401-0.398l-0.733-1.928c1.301-0.883,3.099-2.348,4.777-3.989l4.091,4.088l0.739-0.739l-2.935-5.326
		c2.064-2.293,3.306-4.203,2.91-4.601c-0.396-0.397-2.308,0.847-4.602,2.909L6.87,5.816L6.131,6.56l4.087,4.087
		c-1.644,1.68-3.108,3.479-3.988,4.777l-1.931-0.73l-0.401,0.402l1.576,1.571L5.52,16.623z"/>
</g>
</svg>
