<?xml version="1.0" encoding="utf-8"?>
<!-- Generator: Adobe Illustrator 16.0.4, SVG Export Plug-In . SVG Version: 6.00 Build 0)  -->
<!DOCTYPE svg PUBLIC "-//W3C//DTD SVG 1.1//EN" "http://www.w3.org/Graphics/SVG/1.1/DTD/svg11.dtd">
<svg version="1.1" id="Capa_1" xmlns="http://www.w3.org/2000/svg" xmlns:xlink="http://www.w3.org/1999/xlink" x="0px" y="0px"
	 width="22.359px" height="23.305px" viewBox="0 0 22.359 23.305" enable-background="new 0 0 22.359 23.305" xml:space="preserve">
<g>
	<path d="M19.884,0H4.689C3.328,0,2.214,1.113,2.214,2.475V17.67c0,0.344,0.072,0.672,0.2,0.97l-1.973,1.963l0.01,0.011
		c-0.603,0.623-0.603,1.614,0.012,2.225c0.611,0.617,1.605,0.619,2.229,0.016L2.7,22.866l2.735-2.721h14.448
		c1.36,0,2.476-1.113,2.476-2.476V2.475C22.359,1.113,21.244,0,19.884,0z M2.044,22.255c-0.272,0.272-0.716,0.273-0.993-0.003
		c-0.273-0.273-0.274-0.72,0-0.993c0.274-0.272,0.718-0.274,0.992-0.001C2.317,21.533,2.317,21.978,2.044,22.255z M20.129,17.97
		H7.621l4.341-4.318l4.359-0.013l1.193-4.457L17.04,8.707l-2.365,2.37L12.36,8.765l2.367-2.369l-0.473-0.476L9.801,7.117
		l-0.015,4.238l-0.024-0.027l-5.486,5.459V4.59h15.854V17.97z"/>
</g>
</svg>
