<?xml version="1.0" encoding="utf-8"?>
<!-- Generator: Adobe Illustrator 16.0.4, SVG Export Plug-In . SVG Version: 6.00 Build 0)  -->
<!DOCTYPE svg PUBLIC "-//W3C//DTD SVG 1.1//EN" "http://www.w3.org/Graphics/SVG/1.1/DTD/svg11.dtd">
<svg version="1.1" id="Capa_1" xmlns="http://www.w3.org/2000/svg" xmlns:xlink="http://www.w3.org/1999/xlink" x="0px" y="0px"
	 width="23.303px" height="20.812px" viewBox="0 0 23.303 20.812" enable-background="new 0 0 23.303 20.812" xml:space="preserve">
<g>
	<path d="M22.277,16.813l-0.411,0.41l-8.159-8.16l0.157-0.16c0.309-0.308,0.309-0.812,0-1.118l-0.006-0.007l1.92-1.92
		c0.197-0.005,0.391-0.082,0.537-0.229l0.372-0.372c0.309-0.307,0.309-0.81,0-1.116l-3.915-3.91c-0.306-0.308-0.808-0.308-1.114,0
		l-0.373,0.371c-0.29,0.292-0.305,0.76-0.043,1.068L9.495,3.418L9.489,3.413c-0.308-0.307-0.811-0.307-1.116,0L6.256,5.529
		c-0.31,0.306-0.31,0.81,0,1.116l0.005,0.007L4.514,8.399c-0.31-0.264-0.777-0.25-1.07,0.042L3.074,8.813
		c-0.308,0.308-0.308,0.811,0,1.118l3.911,3.912c0.308,0.308,0.812,0.308,1.119,0l0.369-0.371c0.148-0.148,0.226-0.342,0.229-0.538
		l1.921-1.92l0.007,0.006c0.308,0.307,0.812,0.307,1.118,0l0.158-0.161l8.162,8.161l-0.41,0.411l1.025,1.026l2.618-2.617
		L22.277,16.813z"/>
	<rect x="0" y="17.908" width="12.412" height="2.905"/>
</g>
</svg>
