<?xml version="1.0" encoding="utf-8"?>
<!-- Generator: Adobe Illustrator 16.0.4, SVG Export Plug-In . SVG Version: 6.00 Build 0)  -->
<!DOCTYPE svg PUBLIC "-//W3C//DTD SVG 1.1//EN" "http://www.w3.org/Graphics/SVG/1.1/DTD/svg11.dtd">
<svg version="1.1" id="Capa_1" xmlns="http://www.w3.org/2000/svg" xmlns:xlink="http://www.w3.org/1999/xlink" x="0px" y="0px"
	 width="23.305px" height="14.575px" viewBox="0 0 23.305 14.575" enable-background="new 0 0 23.305 14.575" xml:space="preserve">
<g>
	<path d="M20.407,0.258c-2.354-0.864-5.027,0.508-5.963,3.058L12.68,8.129c-0.163,0.442-0.241,0.89-0.282,1.334h-1.49
		c-0.041-0.444-0.119-0.892-0.281-1.334L8.861,3.317c-0.935-2.55-3.61-3.922-5.963-3.058c-2.353,0.863-3.509,3.64-2.573,6.19
		l1.764,4.809c0.937,2.551,3.613,3.922,5.967,3.059c1.266-0.465,2.168-1.491,2.602-2.73h1.991c0.433,1.239,1.335,2.266,2.602,2.73
		c2.354,0.863,5.028-0.508,5.966-3.059l1.766-4.81C23.915,3.898,22.759,1.121,20.407,0.258z M7.331,12.34
		c-1.266,0.464-2.729-0.346-3.264-1.805L2.302,5.724c-0.535-1.46,0.059-3.025,1.321-3.488C4.887,1.772,6.35,2.583,6.885,4.042
		l1.766,4.812C8.725,9.056,8.773,9.26,8.805,9.463H7.521c-0.587,0-1.061,0.477-1.061,1.062s0.474,1.061,1.061,1.061h0.794
		C8.063,11.921,7.736,12.192,7.331,12.34z M21.003,5.724l-1.767,4.812c-0.534,1.459-1.998,2.269-3.263,1.805
		c-0.405-0.148-0.731-0.419-0.983-0.754h2.028c0.586,0,1.062-0.475,1.062-1.061s-0.477-1.062-1.062-1.062h-2.52
		c0.032-0.203,0.08-0.407,0.154-0.609l1.767-4.812c0.534-1.459,1.997-2.27,3.262-1.806C20.944,2.699,21.537,4.264,21.003,5.724z"/>
</g>
</svg>
