<?xml version="1.0" encoding="utf-8"?>
<!-- Generator: Adobe Illustrator 16.0.4, SVG Export Plug-In . SVG Version: 6.00 Build 0)  -->
<!DOCTYPE svg PUBLIC "-//W3C//DTD SVG 1.1//EN" "http://www.w3.org/Graphics/SVG/1.1/DTD/svg11.dtd">
<svg version="1.1" id="Capa_1" xmlns="http://www.w3.org/2000/svg" xmlns:xlink="http://www.w3.org/1999/xlink" x="0px" y="0px"
	 width="23.305px" height="23.973px" viewBox="0 0 23.305 23.973" enable-background="new 0 0 23.305 23.973" xml:space="preserve">
<g>
	<path d="M11.596,15.144h0.107c0.149-0.479,0.609-2.099,1.902-3.843c1.478-2,3.25-3.511,3.25-6.072
		C16.858,2.352,14.533,0.017,11.655,0c-0.002,0-0.002,0-0.002,0C8.775,0.017,6.445,2.352,6.445,5.229
		c0,2.562,1.775,4.072,3.252,6.072C10.99,13.046,11.451,14.664,11.596,15.144z M11.653,2.837c1.115,0,2.02,0.908,2.02,2.023
		c0,1.118-0.904,2.019-2.02,2.019c-1.113,0-2.021-0.9-2.021-2.019C9.632,3.745,10.54,2.837,11.653,2.837z"/>
	<path d="M19.384,11.892h-4.547c-0.094,0.121-0.158,0.203-0.158,0.203c-0.317,0.427-0.572,0.843-0.787,1.232h4.761
		c0.252,0.351,1.078,1.483,1.831,2.516H2.822c0.752-1.031,1.573-2.165,1.83-2.516h4.761c-0.216-0.391-0.469-0.808-0.786-1.235
		l-0.159-0.2H3.92l-3.898,5.361H0.006v0.019L0,17.283h0.006v6.688h23.268v-6.688h0.031L19.384,11.892z M9.899,23.083V18.95h3.503
		v4.133H9.899z"/>
</g>
</svg>
