<?xml version="1.0" encoding="utf-8"?>
<!-- Generator: Adobe Illustrator 16.0.4, SVG Export Plug-In . SVG Version: 6.00 Build 0)  -->
<!DOCTYPE svg PUBLIC "-//W3C//DTD SVG 1.1//EN" "http://www.w3.org/Graphics/SVG/1.1/DTD/svg11.dtd">
<svg version="1.1" id="Capa_1" xmlns="http://www.w3.org/2000/svg" xmlns:xlink="http://www.w3.org/1999/xlink" x="0px" y="0px"
	 width="23.303px" height="23.305px" viewBox="0 0 23.303 23.305" enable-background="new 0 0 23.303 23.305" xml:space="preserve">
<g>
	<path d="M23.303,19.996L16.309,13l-0.907,0.551l-1.369-1.327c2.155-3.022,1.887-7.245-0.824-9.956
		c-3.025-3.023-7.922-3.022-10.943,0c-3.021,3.021-3.021,7.918,0,10.942c2.715,2.715,6.942,2.98,9.965,0.819l1.285,1.237
		l-0.519,1.045l6.997,6.994c0,0,1.521,0.019,2.438-1.029C23.349,21.228,23.303,19.996,23.303,19.996z M3.523,11.951
		C1.195,9.623,1.196,5.852,3.525,3.524c2.319-2.327,6.098-2.329,8.429-0.001c2.322,2.329,2.323,6.099-0.005,8.429
		C9.624,14.276,5.851,14.278,3.523,11.951z"/>
	<path d="M7.788,2.891C7.787,2.891,7.787,2.891,7.788,2.891C5.889,2.901,4.35,4.442,4.35,6.344c0,1.692,1.171,2.689,2.147,4.01
		c0.853,1.151,1.155,2.221,1.254,2.537h0.072c0.099-0.316,0.401-1.386,1.255-2.537c0.976-1.32,2.146-2.317,2.146-4.01
		C11.225,4.443,9.688,2.901,7.788,2.891z M7.789,7.145c-0.652-0.01-1.179-0.535-1.179-1.19c0-0.654,0.526-1.182,1.179-1.19
		c0.65,0.009,1.177,0.536,1.177,1.189C8.966,6.61,8.44,7.135,7.789,7.145z"/>
</g>
</svg>
