<?xml version="1.0" encoding="utf-8"?>
<!-- Generator: Adobe Illustrator 16.0.4, SVG Export Plug-In . SVG Version: 6.00 Build 0)  -->
<!DOCTYPE svg PUBLIC "-//W3C//DTD SVG 1.1//EN" "http://www.w3.org/Graphics/SVG/1.1/DTD/svg11.dtd">
<svg version="1.1" id="Capa_1" xmlns="http://www.w3.org/2000/svg" xmlns:xlink="http://www.w3.org/1999/xlink" x="0px" y="0px"
	 width="19.007px" height="23.303px" viewBox="0 0 19.007 23.303" enable-background="new 0 0 19.007 23.303" xml:space="preserve">
<path d="M15.89,13.062c-0.641-3.225,2.421-5.117,2.421-5.117s-1.194-1.726-3.198-2.17c-2.004-0.445-3.007,0.111-4.008,0.528
	C10.103,6.72,9.603,6.72,9.603,6.72c-1.446,0-2.503-1.531-5.258-0.834c-1.898,0.479-3.896,2.67-4.257,5.285
	c-0.361,2.616,0.418,5.954,1.92,8.541c1.502,2.589,3.032,3.562,4.118,3.59c1.086,0.027,2.17-0.778,3.477-0.974
	c1.307-0.194,2.113,0.474,3.395,0.835c1.279,0.361,1.726,0.026,3.199-1.226c1.475-1.252,2.811-4.842,2.811-4.842
	S16.531,16.29,15.89,13.062z"/>
<path d="M13.052,3.687C14.472,2.24,13.99,0,13.99,0s-1.994,0.35-3.33,1.74C9.325,3.131,9.547,5.328,9.547,5.328
	S11.632,5.133,13.052,3.687z"/>
</svg>
