<?xml version="1.0" encoding="utf-8"?>
<!-- Generator: Adobe Illustrator 16.0.4, SVG Export Plug-In . SVG Version: 6.00 Build 0)  -->
<!DOCTYPE svg PUBLIC "-//W3C//DTD SVG 1.1//EN" "http://www.w3.org/Graphics/SVG/1.1/DTD/svg11.dtd">
<svg version="1.1" id="Capa_1" xmlns="http://www.w3.org/2000/svg" xmlns:xlink="http://www.w3.org/1999/xlink" x="0px" y="0px"
	 width="13.771px" height="23.303px" viewBox="0 0 13.771 23.303" enable-background="new 0 0 13.771 23.303" xml:space="preserve">
<g>
	<path d="M12.501,0H1.271C0.572,0,0,0.572,0,1.271v20.762c0,0.698,0.572,1.271,1.271,1.271H12.5c0.698,0,1.271-0.572,1.271-1.271
		h0.001V1.271C13.772,0.572,13.198,0,12.501,0z M6.885,22.032c-0.643,0-1.164-0.522-1.164-1.165c0-0.644,0.521-1.165,1.164-1.165
		c0.644,0,1.165,0.521,1.165,1.165C8.05,21.51,7.528,22.032,6.885,22.032z M12.314,18.431H1.457V2.86h10.857V18.431z"/>
	<rect x="3.074" y="11.44" width="2.116" height="5.509"/>
	<rect x="8.58" y="8.157" width="2.119" height="8.792"/>
	<rect x="5.828" y="9.957" width="2.117" height="6.991"/>
</g>
</svg>
