<?xml version="1.0" encoding="utf-8"?>
<!-- Generator: Adobe Illustrator 16.0.4, SVG Export Plug-In . SVG Version: 6.00 Build 0)  -->
<!DOCTYPE svg PUBLIC "-//W3C//DTD SVG 1.1//EN" "http://www.w3.org/Graphics/SVG/1.1/DTD/svg11.dtd">
<svg version="1.1" id="Capa_1" xmlns="http://www.w3.org/2000/svg" xmlns:xlink="http://www.w3.org/1999/xlink" x="0px" y="0px"
	 width="19.172px" height="23.303px" viewBox="0 0 19.172 23.303" enable-background="new 0 0 19.172 23.303" xml:space="preserve">
<g>
	<path d="M12.314,18.431H1.457V2.859h10.856v1.165h1.458V2.541C13.771,1.144,12.625,0,11.228,0H2.542C1.144,0,0,1.144,0,2.541v18.22
		c0,1.399,1.144,2.542,2.542,2.542h8.686c1.397,0,2.543-1.143,2.543-2.542v-2.357h-1.457V18.431z M6.884,22.031
		c-0.644,0-1.164-0.521-1.164-1.164c0-0.644,0.52-1.165,1.164-1.165c0.645,0,1.166,0.521,1.166,1.165
		C8.05,21.51,7.529,22.031,6.884,22.031z"/>
	<rect x="2.7" y="4.422" width="3.257" height="1.986"/>
	<rect x="2.7" y="9.507" width="3.257" height="1.986"/>
	<rect x="2.7" y="14.829" width="3.257" height="1.985"/>
	<path d="M17.518,10.38c-0.115-0.602-0.348-1.159-0.678-1.646l1.168-1.169l-1.193-1.189l-1.166,1.167
		c-0.486-0.332-1.045-0.562-1.645-0.678V5.21h-1.687v1.655c-0.601,0.116-1.157,0.347-1.646,0.678L9.507,6.376L8.314,7.566
		L9.48,8.735C9.151,9.222,8.919,9.779,8.804,10.38H7.15v1.686h1.653c0.115,0.599,0.348,1.156,0.677,1.645l-1.167,1.167l1.193,1.189
		l1.167-1.166c0.488,0.331,1.045,0.563,1.646,0.679v1.653h1.687v-1.653c0.6-0.115,1.156-0.348,1.645-0.678l1.166,1.166l1.193-1.189
		l-1.168-1.167c0.33-0.488,0.562-1.045,0.678-1.645h1.654v-0.001V10.38H17.518z M13.161,13.058c-1.015,0-1.839-0.82-1.839-1.835
		s0.824-1.84,1.839-1.84c1.016,0,1.836,0.824,1.836,1.84C14.997,12.24,14.176,13.058,13.161,13.058z"/>
</g>
</svg>
