<?xml version="1.0" encoding="utf-8"?>
<!-- Generator: Adobe Illustrator 16.0.4, SVG Export Plug-In . SVG Version: 6.00 Build 0)  -->
<!DOCTYPE svg PUBLIC "-//W3C//DTD SVG 1.1//EN" "http://www.w3.org/Graphics/SVG/1.1/DTD/svg11.dtd">
<svg version="1.1" id="Capa_1" xmlns="http://www.w3.org/2000/svg" xmlns:xlink="http://www.w3.org/1999/xlink" x="0px" y="0px"
	 width="20.936px" height="23.305px" viewBox="0 0 20.936 23.305" enable-background="new 0 0 20.936 23.305" xml:space="preserve">
<g>
	<path d="M12.791,15.22l-0.71,0.435l-1.084-1.048c1.69-2.371,1.488-5.677-0.638-7.804C7.987,4.432,4.145,4.436,1.777,6.804
		c-2.369,2.368-2.369,6.209-0.001,8.581c2.128,2.13,5.438,2.327,7.809,0.634l1.016,0.978l-0.409,0.82l5.489,5.486
		c0,0,1.191,0.014,1.912-0.81c0.72-0.82,0.684-1.785,0.684-1.785L12.791,15.22z M9.377,7.789c1.822,1.825,1.822,4.782-0.004,6.608
		c-1.823,1.825-4.784,1.825-6.609,0C0.938,12.574,0.94,9.615,2.767,7.791C4.586,5.965,7.548,5.963,9.377,7.789z"/>
	<path d="M20.744,4.25c-0.308-0.649-0.534-0.995-1.708-1.707c-0.745-0.451-1.316-1.331-1.637-1.915V0h-0.758v8.318
		c-0.74-0.32-1.844-0.008-2.699,0.835c-1.025,1.014-1.302,2.398-0.62,3.093c0.686,0.69,2.071,0.432,3.097-0.582
		c0.69-0.682,1.032-1.528,0.98-2.221V3.78c0.439,0.107,1.304,0.373,1.993,0.935c0.96,0.784,0.925,1.779,0.925,1.779
		S21.35,5.533,20.744,4.25z"/>
</g>
</svg>
