<?xml version="1.0" encoding="utf-8"?>
<!-- Generator: Adobe Illustrator 16.0.4, SVG Export Plug-In . SVG Version: 6.00 Build 0)  -->
<!DOCTYPE svg PUBLIC "-//W3C//DTD SVG 1.1//EN" "http://www.w3.org/Graphics/SVG/1.1/DTD/svg11.dtd">
<svg version="1.1" id="Capa_1" xmlns="http://www.w3.org/2000/svg" xmlns:xlink="http://www.w3.org/1999/xlink" x="0px" y="0px"
	 width="17.475px" height="23.303px" viewBox="0 0 17.475 23.303" enable-background="new 0 0 17.475 23.303" xml:space="preserve">
<g>
	<path d="M14.507,0c0,0-2.509,1.805-5.752,1.805C5.512,1.805,2.965,0,2.965,0L0,2.463c0,0,0,8.917,0,12.57
		c0,3.655,8.89,8.27,8.89,8.27s8.584-4.431,8.584-8.27c0-3.835,0-12.57,0-12.57L14.507,0z M13.833,8.83h-1.311v3.76h1.311v3.158
		h-3.153v-1.586H6.795v1.586H3.64V12.59h1.312V8.83H3.64V5.672h3.154v1.587h3.885V5.672h3.153V8.83z"/>
	<path d="M10.679,7.924c-1.12,0-2.764,0-3.885,0V8.83H5.618c0,1.049,0,2.71,0,3.76h1.177v0.907c1.121,0,2.765,0,3.885,0V12.59h1.177
		c0-1.05,0-2.71,0-3.76h-1.177V7.924z"/>
</g>
</svg>
