<?xml version="1.0" encoding="utf-8"?>
<!-- Generator: Adobe Illustrator 16.0.4, SVG Export Plug-In . SVG Version: 6.00 Build 0)  -->
<!DOCTYPE svg PUBLIC "-//W3C//DTD SVG 1.1//EN" "http://www.w3.org/Graphics/SVG/1.1/DTD/svg11.dtd">
<svg version="1.1" id="Capa_1" xmlns="http://www.w3.org/2000/svg" xmlns:xlink="http://www.w3.org/1999/xlink" x="0px" y="0px"
	 width="23.303px" height="21.984px" viewBox="0 0 23.303 21.984" enable-background="new 0 0 23.303 21.984" xml:space="preserve">
<g>
	<path d="M17.032,9.126v2.076h-2.291V9.126h-2.856V4.767h2.856V0H8.47v4.767h2.661v4.359H8.47v2.076H6.273V9.126H0v4.769h6.272
		v-1.939H8.47v1.939h2.661v3.323H8.47v4.767h6.271v-4.767h-2.856v-3.323h2.856v-1.939h2.291v1.939h6.271V9.126H17.032z M9.882,1.19
		c0.772,0,2.675,0,3.446,0c0,0.65,0,1.637,0,2.287c-0.771,0-2.674,0-3.446,0C9.882,2.826,9.882,1.84,9.882,1.19z M4.86,12.602
		c-0.771,0-2.674,0-3.446,0c0-0.649,0-1.635,0-2.285c0.773,0,2.675,0,3.446,0C4.86,10.968,4.86,11.953,4.86,12.602z M13.328,18.408
		c0,0.65,0,1.636,0,2.285c-0.771,0-2.674,0-3.446,0c0-0.649,0-1.635,0-2.285C10.655,18.408,12.557,18.408,13.328,18.408z
		 M13.328,12.602c-0.771,0-2.674,0-3.446,0c0-0.649,0-1.635,0-2.285c0.772,0,2.675,0,3.446,0
		C13.328,10.968,13.328,11.953,13.328,12.602z M21.891,12.602c-0.773,0-2.674,0-3.448,0c0-0.649,0-1.635,0-2.285
		c0.775,0,2.675,0,3.448,0C21.891,10.968,21.891,11.953,21.891,12.602z"/>
</g>
</svg>
