<?xml version="1.0" encoding="utf-8"?>
<!-- Generator: Adobe Illustrator 16.0.4, SVG Export Plug-In . SVG Version: 6.00 Build 0)  -->
<!DOCTYPE svg PUBLIC "-//W3C//DTD SVG 1.1//EN" "http://www.w3.org/Graphics/SVG/1.1/DTD/svg11.dtd">
<svg version="1.1" id="Capa_1" xmlns="http://www.w3.org/2000/svg" xmlns:xlink="http://www.w3.org/1999/xlink" x="0px" y="0px"
	 width="23px" height="15.404px" viewBox="0 0 23 15.404" enable-background="new 0 0 23 15.404" xml:space="preserve">
<path d="M20.857,9.128c-0.981,0-1.793,0.66-2.053,1.56h-2.393V5.866h-0.87V4.043C15.542,1.813,13.73,0,11.501,0
	C9.27,0,7.457,1.812,7.457,4.043v1.823h-0.87v4.821H4.191c-0.257-0.899-1.073-1.56-2.049-1.56C0.958,9.128,0,10.086,0,11.268
	c0,1.184,0.958,2.142,2.142,2.142c0.977,0,1.792-0.662,2.05-1.561h2.395v3.556h9.825v-3.556h2.393
	c0.256,0.897,1.07,1.561,2.053,1.561c1.181,0,2.143-0.958,2.143-2.142C23,10.086,22.038,9.128,20.857,9.128z M8.979,4.043
	c0-1.389,1.13-2.521,2.522-2.521c1.388,0,2.519,1.135,2.519,2.521v1.823H8.979V4.043z M12.193,12.323h-1.388l0.211-2.046
	c-0.259-0.158-0.429-0.447-0.429-0.773c0-0.505,0.405-0.912,0.915-0.912c0.501,0,0.909,0.407,0.909,0.912
	c0,0.326-0.171,0.615-0.43,0.773L12.193,12.323z"/>
</svg>
