<?xml version="1.0" encoding="utf-8"?>
<!-- Generator: Adobe Illustrator 16.0.4, SVG Export Plug-In . SVG Version: 6.00 Build 0)  -->
<!DOCTYPE svg PUBLIC "-//W3C//DTD SVG 1.1//EN" "http://www.w3.org/Graphics/SVG/1.1/DTD/svg11.dtd">
<svg version="1.1" id="Capa_1" xmlns="http://www.w3.org/2000/svg" xmlns:xlink="http://www.w3.org/1999/xlink" x="0px" y="0px"
	 width="19.771px" height="23.303px" viewBox="0 0 19.771 23.303" enable-background="new 0 0 19.771 23.303" xml:space="preserve">
<path d="M9.161,0c0,0.787,0,2.781,0,3.57c0.509,0,0.939,0,1.448,0c0-0.789,0-2.783,0-3.57C10.1,0,9.669,0,9.161,0z M2.382,3.405
	C2.94,3.963,4.352,5.375,4.909,5.931c0.36-0.359,0.665-0.665,1.026-1.022C5.377,4.35,3.965,2.938,3.407,2.38
	C3.048,2.74,2.742,3.046,2.382,3.405z M13.837,4.908c0.359,0.357,0.665,0.663,1.025,1.022c0.558-0.559,1.968-1.969,2.526-2.526
	c-0.359-0.358-0.666-0.662-1.025-1.024C15.806,2.938,14.395,4.35,13.837,4.908z M16.199,9.157c0,0.511,0,0.941,0,1.451
	c0.788,0,2.784,0,3.572,0c0-0.51,0-0.94,0-1.451C18.983,9.157,16.987,9.157,16.199,9.157z M0.001,9.157
	C0.001,9.668,0,10.098,0,10.606c0.788,0.001,2.785,0.001,3.573,0.003c0-0.51,0-0.94,0-1.451C2.785,9.157,0.788,9.157,0.001,9.157z"
	/>
<path d="M13.074,15.055H6.7c-1.138,0-2.072,1.047-2.072,2.327v5.921h10.519v-5.921C15.146,16.102,14.214,15.055,13.074,15.055z"/>
<path d="M9.883,14.028c1.996,0,3.605-1.61,3.605-3.598c0-1.99-1.609-3.601-3.605-3.601c-1.985,0-3.594,1.609-3.594,3.601
	C6.29,12.417,7.897,14.028,9.883,14.028z"/>
</svg>
