<?xml version="1.0" encoding="utf-8"?>
<!-- Generator: Adobe Illustrator 16.0.4, SVG Export Plug-In . SVG Version: 6.00 Build 0)  -->
<!DOCTYPE svg PUBLIC "-//W3C//DTD SVG 1.1//EN" "http://www.w3.org/Graphics/SVG/1.1/DTD/svg11.dtd">
<svg version="1.1" id="Capa_1" xmlns="http://www.w3.org/2000/svg" xmlns:xlink="http://www.w3.org/1999/xlink" x="0px" y="0px"
	 width="23.303px" height="22.773px" viewBox="0 0 23.303 22.773" enable-background="new 0 0 23.303 22.773" xml:space="preserve">
<g>
	<path d="M17.073,11.638l-6.226,6.23h2.12v1.566c-1.526,0-4.05,0-4.77,0c0-0.972,0-7.47,0-8.995h5.583
		c1.647,0,2.991-1.342,2.991-2.991c0-1.537-1.177-2.758-2.669-2.928c0-0.005,0.001-0.034,0.001-0.034C14.105,2.01,12.092,0,9.618,0
		C7.901,0,6.401,1.008,5.65,2.51c-0.384-0.3-0.828-0.516-1.323-0.516c-1.224,0-2.216,0.992-2.216,2.215c0,0,0.016,0.107,0.024,0.191
		C0.889,4.824,0,5.967,0,7.314C0,8.15,0.326,8.937,0.915,9.521c0.591,0.592,1.375,0.919,2.21,0.919h3.816v10.253h6.026v2.08h8.218
		v-4.904h2.117L17.073,11.638z M1.541,8.897c-0.424-0.42-0.659-0.983-0.659-1.583c0-1.072,0.765-1.996,1.817-2.2l0.41-0.077
		L3.043,4.562L2.992,4.209c0-0.733,0.598-1.332,1.334-1.332c0.436,0,0.845,0.214,1.093,0.573l0.502,0.718l0.28-0.831
		c0.491-1.466,1.867-2.454,3.417-2.454c1.986,0,3.604,1.616,3.604,3.604L13.18,5.336l0.497,0.008l0.104-0.004
		c1.16,0,2.111,0.944,2.111,2.109c0,1.162-0.951,2.107-2.111,2.107H3.125C2.526,9.556,1.963,9.324,1.541,8.897z M18.335,22.349
		h-2.438v-4.288h2.438V22.349z"/>
</g>
</svg>
