<?xml version="1.0" encoding="utf-8"?>
<!-- Generator: Adobe Illustrator 16.0.4, SVG Export Plug-In . SVG Version: 6.00 Build 0)  -->
<!DOCTYPE svg PUBLIC "-//W3C//DTD SVG 1.1//EN" "http://www.w3.org/Graphics/SVG/1.1/DTD/svg11.dtd">
<svg version="1.1" id="Capa_1" xmlns="http://www.w3.org/2000/svg" xmlns:xlink="http://www.w3.org/1999/xlink" x="0px" y="0px"
	 width="18.691px" height="23.303px" viewBox="0 0 18.691 23.303" enable-background="new 0 0 18.691 23.303" xml:space="preserve">
<g>
	<path d="M9.347,13.362c2.423,0,4.387-1.964,4.387-4.387S11.77,4.588,9.347,4.588S4.96,6.552,4.96,8.975S6.925,13.362,9.347,13.362z
		 M10.754,5.627c0.687,0,1.243,0.557,1.243,1.243s-0.557,1.242-1.243,1.242S9.511,7.557,9.511,6.87S10.067,5.627,10.754,5.627z"/>
	<path d="M12.027,14.642H7.217c-1.693,0-3.079,1.385-3.079,3.08v5.581h10.971v-5.581C15.108,16.028,13.721,14.642,12.027,14.642z"/>
	<path d="M4.332,5.108L2.388,3.162l0.826-0.827L5.16,4.28L4.332,5.108z M15.941,8.375v1.17h2.75v-1.17H15.941z M0,9.545h2.751v-1.17
		H0V9.545z M16.306,3.162l-0.828-0.827L13.531,4.28l0.828,0.828L16.306,3.162z M10.073,0H8.806v2.588h1.267V0z"/>
</g>
</svg>
