<?xml version="1.0" encoding="utf-8"?>
<!-- Generator: Adobe Illustrator 16.0.4, SVG Export Plug-In . SVG Version: 6.00 Build 0)  -->
<!DOCTYPE svg PUBLIC "-//W3C//DTD SVG 1.1//EN" "http://www.w3.org/Graphics/SVG/1.1/DTD/svg11.dtd">
<svg version="1.1" id="Capa_1" xmlns="http://www.w3.org/2000/svg" xmlns:xlink="http://www.w3.org/1999/xlink" x="0px" y="0px"
	 width="21px" height="21px" viewBox="0 0 21 21" enable-background="new 0 0 21 21" xml:space="preserve">
<g>
	<path d="M0,0v21h21V0H0z M18.695,1.143c0.375,0,0.68,0.305,0.679,0.679c0,0.375-0.304,0.681-0.679,0.681s-0.68-0.306-0.68-0.681
		C18.016,1.449,18.32,1.143,18.695,1.143z M16.32,1.143c0.373,0,0.679,0.305,0.678,0.679c0,0.375-0.305,0.681-0.678,0.681
		c-0.377,0-0.68-0.306-0.68-0.681C15.641,1.449,15.945,1.143,16.32,1.143z M19.375,19.407H1.625V3.973h17.75V19.407z"/>
	<path d="M16.537,11.467l-5.532,3.246c-0.437-0.168-0.945-0.121-1.354,0.175c-0.634,0.462-0.774,1.353-0.313,1.985
		c0.464,0.639,1.354,0.776,1.988,0.314c0.408-0.293,0.609-0.764,0.583-1.229l4.79-4.271L16.537,11.467z"/>
	<path d="M3.378,15.935c-0.097-0.472-0.147-0.96-0.147-1.46c0-0.384,0.039-0.759,0.097-1.127l1.458,0.316l0.217-1L3.55,12.351
		c0.202-0.656,0.497-1.271,0.867-1.834l1.06,0.787l0.609-0.821L5.041,9.707c0.476-0.539,1.03-1.004,1.646-1.382l0.604,1.139
		l0.903-0.479L7.59,7.849c0.742-0.321,1.55-0.514,2.396-0.568v1.24h1.021V7.286c0.845,0.064,1.647,0.273,2.386,0.604l-0.581,1.094
		l0.901,0.479l0.578-1.09c0.603,0.38,1.145,0.845,1.609,1.381l-0.981,0.728l0.609,0.821l0.985-0.731
		c0.357,0.554,0.645,1.157,0.84,1.802l-1.351,0.291l0.217,1l1.354-0.293c0.056,0.36,0.093,0.728,0.093,1.104
		c0,0.5-0.051,0.988-0.148,1.46h0.885c0.087-0.476,0.14-0.96,0.14-1.46c0-4.468-3.624-8.093-8.093-8.093
		c-4.471,0-8.094,3.625-8.094,8.093c0,0.5,0.052,0.984,0.138,1.46H3.378z"/>
</g>
</svg>
