<?xml version="1.0" encoding="utf-8"?>
<!-- Generator: Adobe Illustrator 16.0.4, SVG Export Plug-In . SVG Version: 6.00 Build 0)  -->
<!DOCTYPE svg PUBLIC "-//W3C//DTD SVG 1.1//EN" "http://www.w3.org/Graphics/SVG/1.1/DTD/svg11.dtd">
<svg version="1.1" id="Capa_1" xmlns="http://www.w3.org/2000/svg" xmlns:xlink="http://www.w3.org/1999/xlink" x="0px" y="0px"
	 width="23.303px" height="16.889px" viewBox="0 0 23.303 16.889" enable-background="new 0 0 23.303 16.889" xml:space="preserve">
<g>
	<rect x="0" y="0" width="16.889" height="3.299"/>
	<rect x="0" y="14.912" width="16.889" height="1.977"/>
	<rect x="0" y="4.18" width="4.188" height="9.851"/>
	<path d="M23.057,8.713c-0.118-0.154-2.72-3.481-6.168-4.002V4.18H5.111v9.85h11.778v-0.673c3.448-0.521,6.05-3.848,6.168-4.001
		l0.247-0.322L23.057,8.713z M10.048,9.034c0.764-0.872,3.162-3.343,5.948-3.343c2.787,0,5.186,2.471,5.948,3.343
		c-0.764,0.874-3.162,3.343-5.948,3.343C13.211,12.377,10.812,9.908,10.048,9.034z"/>
	<path d="M19.12,9.034c0-1.797-1.459-3.254-3.255-3.254c-1.797,0-3.255,1.457-3.255,3.254s1.458,3.256,3.255,3.256
		C17.661,12.29,19.12,10.831,19.12,9.034z M16.172,8.088c0-0.594,0.481-1.077,1.078-1.077c0.594,0,1.077,0.483,1.077,1.077
		c0.001,0.596-0.482,1.077-1.077,1.077C16.655,9.165,16.172,8.683,16.172,8.088z"/>
</g>
</svg>
