<?xml version="1.0" encoding="utf-8"?>
<!-- Generator: Adobe Illustrator 16.0.4, SVG Export Plug-In . SVG Version: 6.00 Build 0)  -->
<!DOCTYPE svg PUBLIC "-//W3C//DTD SVG 1.1//EN" "http://www.w3.org/Graphics/SVG/1.1/DTD/svg11.dtd">
<svg version="1.1" id="Capa_1" xmlns="http://www.w3.org/2000/svg" xmlns:xlink="http://www.w3.org/1999/xlink" x="0px" y="0px"
	 width="21px" height="21px" viewBox="0 0 21 21" enable-background="new 0 0 21 21" xml:space="preserve">
<g>
	<path d="M18.725,0H2.275C1.025,0,0,1.025,0,2.277v16.448C0,19.975,1.025,21,2.275,21h16.448C19.977,21,21,19.975,21,18.725V2.277
		C21,1.025,19.977,0,18.725,0z M19.277,19.047h-0.002H1.724V4.721h17.553V19.047z"/>
	<path d="M8.812,13.072L7.7,18.17l2.799-1.972l2.798,1.972l-0.998-5.16c1.227-0.651,2.074-1.928,2.074-3.411
		c0-2.134-1.74-3.873-3.877-3.873c-2.134,0.001-3.87,1.739-3.87,3.873C6.626,11.129,7.523,12.442,8.812,13.072z M10.496,6.804
		c1.544,0,2.801,1.254,2.801,2.795c0,1.543-1.257,2.797-2.801,2.797c-1.542,0-2.793-1.254-2.793-2.797
		C7.703,8.058,8.954,6.804,10.496,6.804z"/>
</g>
</svg>
