<?xml version="1.0" encoding="utf-8"?>
<!-- Generator: Adobe Illustrator 16.0.4, SVG Export Plug-In . SVG Version: 6.00 Build 0)  -->
<!DOCTYPE svg PUBLIC "-//W3C//DTD SVG 1.1//EN" "http://www.w3.org/Graphics/SVG/1.1/DTD/svg11.dtd">
<svg version="1.1" id="Capa_1" xmlns="http://www.w3.org/2000/svg" xmlns:xlink="http://www.w3.org/1999/xlink" x="0px" y="0px"
	 width="15.893px" height="23.305px" viewBox="0 0 15.893 23.305" enable-background="new 0 0 15.893 23.305" xml:space="preserve">
<g>
	<path d="M15.893,7.947C15.893,3.564,12.323,0,7.943,0S0,3.565,0,7.947c0,3.284,2,6.109,4.847,7.319l-1.854,8.038l5.136-3.619
		l5.132,3.619l-1.696-8.292C14.129,13.692,15.893,11.024,15.893,7.947z M7.944,13.685c-3.17,0-5.738-2.572-5.738-5.738
		c0-3.164,2.568-5.736,5.738-5.736c3.164,0,5.739,2.572,5.739,5.736C13.683,11.113,11.108,13.685,7.944,13.685z"/>
	<polygon points="9.044,6.408 7.946,3.027 6.848,6.408 3.29,6.408 6.167,8.499 5.07,11.879 7.946,9.791 10.822,11.879 9.724,8.499 
		12.601,6.408 	"/>
</g>
</svg>
