<?xml version="1.0" encoding="utf-8"?>
<!-- Generator: Adobe Illustrator 16.0.4, SVG Export Plug-In . SVG Version: 6.00 Build 0)  -->
<!DOCTYPE svg PUBLIC "-//W3C//DTD SVG 1.1//EN" "http://www.w3.org/Graphics/SVG/1.1/DTD/svg11.dtd">
<svg version="1.1" id="Capa_1" xmlns="http://www.w3.org/2000/svg" xmlns:xlink="http://www.w3.org/1999/xlink" x="0px" y="0px"
	 width="22.438px" height="17.275px" viewBox="0 0 22.438 17.275" enable-background="new 0 0 22.438 17.275" xml:space="preserve">
<g>
	<path d="M18.529,5.909c1.639,0,2.958-1.322,2.958-2.953C21.487,1.324,20.167,0,18.529,0c-1.629,0-2.949,1.323-2.949,2.956
		C15.58,4.586,16.9,5.909,18.529,5.909z"/>
	<path d="M20.901,6.39h-4.737c-0.703,0-1.295,0.543-1.477,1.273l-2.812,5.757c-0.04-0.003-0.074-0.023-0.115-0.023h-1.084
		c-0.04,0-0.075,0.021-0.113,0.023L7.751,7.664C7.57,6.934,6.979,6.39,6.275,6.39H1.536C0.689,6.39,0,7.167,0,8.12v9.156h7.812
		v-5.198l1.706,3.154c0.165,0.548,0.616,0.946,1.159,0.946h1.084c0.544,0,0.995-0.398,1.161-0.946l1.705-3.154v5.198h7.812V8.12
		C22.438,7.167,21.748,6.39,20.901,6.39z"/>
	<path d="M3.908,5.909c1.629,0,2.949-1.322,2.949-2.953C6.858,1.323,5.538,0,3.908,0C2.271,0,0.951,1.323,0.951,2.956
		C0.951,4.586,2.271,5.909,3.908,5.909z"/>
</g>
</svg>
