<?xml version="1.0" encoding="utf-8"?>
<!-- Generator: Adobe Illustrator 16.0.4, SVG Export Plug-In . SVG Version: 6.00 Build 0)  -->
<!DOCTYPE svg PUBLIC "-//W3C//DTD SVG 1.1//EN" "http://www.w3.org/Graphics/SVG/1.1/DTD/svg11.dtd">
<svg version="1.1" id="Capa_1" xmlns="http://www.w3.org/2000/svg" xmlns:xlink="http://www.w3.org/1999/xlink" x="0px" y="0px"
	 width="23.303px" height="22.791px" viewBox="0 0 23.303 22.791" enable-background="new 0 0 23.303 22.791" xml:space="preserve">
<g>
	<path d="M4.956,3.475C4.738,3.719,4.632,4.008,4.632,4.343c0,0.33,0.091,0.605,0.275,0.828C5.093,5.394,5.41,5.562,5.847,5.674
		V3.021C5.469,3.08,5.173,3.231,4.956,3.475z"/>
	<path d="M6.426,6.829v2.904c0.377-0.047,0.69-0.21,0.936-0.491c0.244-0.28,0.372-0.627,0.372-1.04c0-0.354-0.09-0.636-0.264-0.851
		C7.297,7.139,6.95,6.963,6.426,6.829z"/>
	<path d="M22.233,13.271l0.039,0.06l-0.889-3.036c-0.113-0.387-0.371-0.706-0.726-0.9c-0.354-0.193-0.763-0.238-1.147-0.125
		l-0.184,0.054c-0.303,0.088-0.513,0.323-0.703,0.566c-0.271-0.744-1.056-1.178-1.825-0.954L16.37,9.062
		c-0.28,0.083-0.494,0.269-0.679,0.475c-0.002-0.007-0.026-0.095-0.026-0.095c-0.234-0.799-1.077-1.257-1.875-1.022l-0.428,0.125
		c-0.265,0.077-0.434,0.298-0.614,0.497c-0.187-0.634-0.371-1.267-0.527-1.798v-4.83C12.221,1.085,11.134,0,9.809,0H2.415
		C1.088,0,0,1.085,0,2.414v8.448c0,1.329,1.088,2.415,2.415,2.415h7.394c0.189,0,0.371-0.027,0.548-0.069
		c0.136,0.467,0.229,0.784,0.243,0.833c-0.228,0.701-0.647,2.891-0.785,3.613c0.002,0.238,0.105,1.166,0.815,1.662l4.307,2.764
		c0.104,0.064,0.157,0.1,0.157,0.1c1.021,0.58,1.993,0.75,2.84,0.502l2.541-0.744c1.719-0.502,2.852-2.601,2.828-4.242
		C23.286,16.74,22.608,14.019,22.233,13.271z M15.613,21.339c-0.087-0.049-0.171-0.102-0.171-0.102
		c0.017,0.013-4.251-2.723-4.251-2.723c-0.287-0.201-0.392-0.656-0.406-0.815c0.287-1.435,0.657-3.208,0.769-3.46l0.072-0.163
		l-0.046-0.183L9.453,6.637C9.373,6.361,9.537,6.06,9.813,5.978l0.428-0.123c0.28-0.083,0.575,0.079,0.657,0.359l2.146,7.33
		l1.104-0.389l-0.12-0.45l-0.751-2.562c-0.039-0.134-0.022-0.276,0.044-0.401c0.07-0.125,0.182-0.216,0.316-0.256l0.428-0.125
		c0.282-0.083,0.576,0.079,0.658,0.36l0.916,3.122l1.229-0.219l-0.158-0.521l-0.425-1.439c-0.083-0.279,0.081-0.575,0.36-0.658
		l0.429-0.126c0.279-0.082,0.574,0.081,0.656,0.361l0.636,2.163l1.263-0.143l-0.158-0.56l-0.228-0.778
		c-0.038-0.136-0.022-0.279,0.046-0.404c0.065-0.124,0.179-0.214,0.312-0.252l0.188-0.055c0.134-0.04,0.274-0.023,0.398,0.044
		c0.125,0.068,0.217,0.18,0.256,0.315l0.895,3.053l0.01,0.023c0.112,0.302,0.954,2.863,0.977,4.062
		c0.018,1.254-0.851,2.913-2.121,3.286l-2.543,0.744C16.922,21.956,16.138,21.642,15.613,21.339z M8.087,9.826
		c-0.428,0.451-0.98,0.691-1.663,0.724v0.988H5.848v-0.001v-0.974c-0.482-0.06-0.879-0.168-1.186-0.327
		c-0.303-0.156-0.564-0.41-0.784-0.76C3.654,9.125,3.527,8.698,3.494,8.192l0.977-0.188C4.55,8.528,4.679,8.911,4.868,9.156
		c0.272,0.347,0.601,0.54,0.979,0.578V6.682C5.451,6.578,5.044,6.411,4.625,6.176C4.314,6.003,4.076,5.765,3.909,5.458
		C3.74,5.152,3.657,4.806,3.657,4.417c0-0.691,0.244-1.25,0.733-1.679c0.326-0.289,0.813-0.464,1.456-0.53V1.74h0.577v0.468
		c0.563,0.054,1.013,0.221,1.341,0.501c0.426,0.354,0.678,0.843,0.765,1.46L7.529,4.32c-0.06-0.383-0.178-0.675-0.359-0.88
		C6.989,3.236,6.741,3.102,6.425,3.037v2.789c0.491,0.125,0.812,0.223,0.974,0.291C7.7,6.25,7.946,6.413,8.139,6.604
		c0.191,0.19,0.338,0.418,0.438,0.681C8.683,7.548,8.732,7.833,8.732,8.14C8.732,8.814,8.519,9.375,8.087,9.826z"/>
</g>
</svg>
