<?xml version="1.0" encoding="utf-8"?>
<!-- Generator: Adobe Illustrator 16.0.4, SVG Export Plug-In . SVG Version: 6.00 Build 0)  -->
<!DOCTYPE svg PUBLIC "-//W3C//DTD SVG 1.1//EN" "http://www.w3.org/Graphics/SVG/1.1/DTD/svg11.dtd">
<svg version="1.1" id="Capa_1" xmlns="http://www.w3.org/2000/svg" xmlns:xlink="http://www.w3.org/1999/xlink" x="0px" y="0px"
	 width="23.303px" height="22.162px" viewBox="0 0 23.303 22.162" enable-background="new 0 0 23.303 22.162" xml:space="preserve">
<path d="M22.382,12.267c0.21-0.27,0.312-0.618,0.219-0.973l-2.757-10.45c-0.16-0.604-0.781-0.966-1.384-0.806L0.843,4.683
	C0.242,4.842-0.121,5.465,0.037,6.068l2.757,10.449c0.158,0.603,0.782,0.965,1.385,0.807l6.225-1.642v3.499
	c0,1.957,3.243,2.981,6.449,2.981c3.204,0,6.451-1.024,6.451-2.981v-5.306C23.304,13.238,22.955,12.702,22.382,12.267z
	 M20.387,8.665l0.288,1.088l-3.502,0.925l-0.286-1.09L20.387,8.665z M18.355,1.781l0.547,2.072l-5.471,1.444l-0.547-2.072
	L18.355,1.781z M15.9,9.848l0.28,1.064c-1.295,0.058-2.555,0.284-3.567,0.67l-0.214-0.808L15.9,9.848z M3.708,14.228l-0.286-1.086
	l3.501-0.926l0.288,1.092L3.708,14.228z M7.91,11.957l3.499-0.925l0.265,0.997c-0.085,0.052-0.165,0.106-0.243,0.161l-3.235,0.854
	L7.91,11.957z M22.136,19.095c0,1.141-2.364,2.065-5.283,2.065c-2.916,0-5.282-0.925-5.282-2.065V17.81
	c0-0.043,0.025-0.082,0.032-0.123c0.167,1.082,2.441,1.94,5.25,1.94c2.81,0,5.085-0.858,5.251-1.94
	c0.007,0.041,0.032,0.08,0.032,0.123V19.095z M22.136,16.567c0,1.14-2.364,2.064-5.283,2.064c-2.916,0-5.282-0.924-5.282-2.064
	v-1.285c0-0.042,0.025-0.082,0.032-0.123c0.167,1.081,2.441,1.941,5.25,1.941c2.81,0,5.085-0.86,5.251-1.941
	c0.007,0.041,0.032,0.081,0.032,0.123V16.567z M16.853,15.938c-2.916,0-5.282-0.924-5.282-2.063s2.366-2.063,5.282-2.063
	c2.919,0,5.283,0.924,5.283,2.063S19.772,15.938,16.853,15.938z"/>
</svg>
