<?xml version="1.0" encoding="utf-8"?>
<!-- Generator: Adobe Illustrator 16.0.4, SVG Export Plug-In . SVG Version: 6.00 Build 0)  -->
<!DOCTYPE svg PUBLIC "-//W3C//DTD SVG 1.1//EN" "http://www.w3.org/Graphics/SVG/1.1/DTD/svg11.dtd">
<svg version="1.1" id="Capa_1" xmlns="http://www.w3.org/2000/svg" xmlns:xlink="http://www.w3.org/1999/xlink" x="0px" y="0px"
	 width="23.303px" height="15.4px" viewBox="0 0 23.303 15.4" enable-background="new 0 0 23.303 15.4" xml:space="preserve">
<path d="M18.908,8.892V1.872H17.93v6.042l-0.876-0.876V0H0v12.022h17.055v-0.757l0.876,0.876v0.711H1.854v1.041h17.056v-0.774
	l2.28,2.281l2.113-2.113L18.908,8.892z M7.694,2.234c1.205,0,2.178,0.972,2.178,2.176c0,1.202-0.973,2.175-2.178,2.175
	c-1.199,0-2.173-0.973-2.173-2.175C5.521,3.206,6.493,2.234,7.694,2.234z M10.966,11.059H4.424V8.734
	c0-0.797,0.581-1.448,1.288-1.448h3.967c0.708,0,1.287,0.651,1.287,1.448V11.059z M21.156,14.212L12.108,5.14l0.948-0.945
	l9.049,9.071L21.156,14.212z"/>
</svg>
