<?xml version="1.0" encoding="utf-8"?>
<!-- Generator: Adobe Illustrator 16.0.4, SVG Export Plug-In . SVG Version: 6.00 Build 0)  -->
<!DOCTYPE svg PUBLIC "-//W3C//DTD SVG 1.1//EN" "http://www.w3.org/Graphics/SVG/1.1/DTD/svg11.dtd">
<svg version="1.1" id="Capa_1" xmlns="http://www.w3.org/2000/svg" xmlns:xlink="http://www.w3.org/1999/xlink" x="0px" y="0px"
	 width="16.023px" height="23.303px" viewBox="0 0 16.023 23.303" enable-background="new 0 0 16.023 23.303" xml:space="preserve">
<g>
	<path d="M8.015,0C8.012,0,8.012,0,8.012,0C3.586,0.022,0,3.615,0,8.045c0,3.944,2.729,6.268,5.005,9.343
		c1.991,2.687,2.696,5.176,2.922,5.914h0.167c0.23-0.738,0.938-3.229,2.925-5.914c2.276-3.075,5.005-5.398,5.005-9.343
		C16.024,3.615,12.442,0.022,8.015,0z M13.317,8.177h-1.69c-0.096,0.497-0.288,0.959-0.562,1.363l1.192,1.192l-0.988,0.99
		l-1.193-1.193c-0.404,0.274-0.866,0.465-1.363,0.561v1.691h-1.4v-1.692c-0.497-0.096-0.958-0.288-1.362-0.562l-1.195,1.194
		l-0.987-0.99L4.961,9.54C4.687,9.136,4.495,8.674,4.4,8.177H2.706V6.778H4.4C4.495,6.281,4.687,5.819,4.96,5.415L3.768,4.223
		l0.987-0.992l1.194,1.195C6.353,4.152,6.815,3.96,7.312,3.864V2.172h1.4v1.691c0.497,0.096,0.959,0.288,1.363,0.561l1.193-1.194
		l0.988,0.992l-1.192,1.191c0.274,0.404,0.466,0.867,0.562,1.363h1.69V8.177z"/>
	<circle cx="8.013" cy="7.477" r="1.383"/>
</g>
</svg>
