<?xml version="1.0" encoding="utf-8"?>
<!-- Generator: Adobe Illustrator 16.0.4, SVG Export Plug-In . SVG Version: 6.00 Build 0)  -->
<!DOCTYPE svg PUBLIC "-//W3C//DTD SVG 1.1//EN" "http://www.w3.org/Graphics/SVG/1.1/DTD/svg11.dtd">
<svg version="1.1" id="Capa_1" xmlns="http://www.w3.org/2000/svg" xmlns:xlink="http://www.w3.org/1999/xlink" x="0px" y="0px"
	 width="23.303px" height="19.396px" viewBox="0 0 23.303 19.396" enable-background="new 0 0 23.303 19.396" xml:space="preserve">
<g>
	<path d="M18.383,2.577l-0.399,0.439V0H0v19.396h17.983V9.208l3.475-3.821L18.383,2.577z M16.572,17.985c-1.235,0-13.923,0-15.159,0
		c0-1.25,0-15.321,0-16.572c1.236,0,13.924,0,15.159,0c0,0.327,0,1.535,0,3.157l-4.877,5.363l3.073,2.812l1.804-1.983
		C16.572,14.211,16.572,17.417,16.572,17.985z"/>
	<path d="M23.05,2.62l-2.051-1.875c-0.279-0.258-0.689-0.276-0.904-0.038l-1.012,1.188l3.073,2.81l1.014-1.188
		C23.387,3.281,23.332,2.875,23.05,2.62z"/>
	<polygon points="9.855,14.73 10.011,14.876 14.017,13.534 10.94,10.723 	"/>
	<circle cx="5.51" cy="13.786" r="2.583"/>
	<polygon points="2.454,8.569 8.79,8.569 5.62,3.855 	"/>
</g>
</svg>
