<?xml version="1.0" encoding="utf-8"?>
<!-- Generator: Adobe Illustrator 16.0.4, SVG Export Plug-In . SVG Version: 6.00 Build 0)  -->
<!DOCTYPE svg PUBLIC "-//W3C//DTD SVG 1.1//EN" "http://www.w3.org/Graphics/SVG/1.1/DTD/svg11.dtd">
<svg version="1.1" id="Capa_1" xmlns="http://www.w3.org/2000/svg" xmlns:xlink="http://www.w3.org/1999/xlink" x="0px" y="0px"
	 width="17.924px" height="22.805px" viewBox="0 0 17.924 22.805" enable-background="new 0 0 17.924 22.805" xml:space="preserve">
<g>
	<path d="M10.563,5.585c0.143-0.389,0.148-0.712-0.019-0.913C10.229,4.299,9.401,4.439,8.42,4.949L5.698,1.695
		c0.446-0.652,0.619-1.225,0.38-1.513C5.665-0.309,4.213,0.227,2.836,1.378C1.458,2.531,0.678,3.864,1.091,4.359
		c0.24,0.287,0.833,0.217,1.555-0.107l1.116,1.333H0v17.22h17.924V5.585H10.563z M16.69,21.57c-1.099,0-14.358,0-15.458,0
		c0-1.094,0-13.658,0-14.753c0.326,0,1.728,0,3.561,0l0.576,0.688C4.695,8.381,4.411,9.172,4.725,9.546
		C5.16,10.066,6.581,9.604,8.034,8.52l2.283,2.582c0,0,0.449,0.205,0.758-0.104c0.309-0.307,0.162-0.665,0.162-0.665L8.955,7.749
		c0.331-0.31,0.622-0.625,0.867-0.932c3.284,0,6.363,0,6.868,0C16.69,7.912,16.69,20.476,16.69,21.57z"/>
	<rect x="2.93" y="12.385" width="11.995" height="1.628"/>
	<rect x="2.93" y="16.825" width="11.995" height="1.628"/>
</g>
</svg>
