<?xml version="1.0" encoding="utf-8"?>
<!-- Generator: Adobe Illustrator 16.0.4, SVG Export Plug-In . SVG Version: 6.00 Build 0)  -->
<!DOCTYPE svg PUBLIC "-//W3C//DTD SVG 1.1//EN" "http://www.w3.org/Graphics/SVG/1.1/DTD/svg11.dtd">
<svg version="1.1" id="Capa_1" xmlns="http://www.w3.org/2000/svg" xmlns:xlink="http://www.w3.org/1999/xlink" x="0px" y="0px"
	 width="21.822px" height="22px" viewBox="0 0 21.822 22" enable-background="new 0 0 21.822 22" xml:space="preserve">
<g>
	<path d="M21.81,17.959l-4.51-3.64V0H0v22h17.301v-3.326l2.381,1.92c0,0,1.097-0.104,1.676-0.931
		C21.936,18.84,21.81,17.959,21.81,17.959z M15.902,20.602c-1.22,0-13.284,0-14.503,0c0-1.26,0-17.943,0-19.204
		c1.22,0,13.284,0,14.503,0c0,0.742,0,6.831,0,11.97l-1.548-0.433l-1.16,1.437l0.918,1.731l1.79,1.443
		C15.902,19.148,15.902,20.305,15.902,20.602z"/>
	<path d="M12.723,5.729C10.314,3.787,6.793,4.166,4.852,6.57c-1.939,2.404-1.562,5.926,0.842,7.87
		c2.405,1.941,5.928,1.562,7.87-0.84C15.504,11.193,15.126,7.669,12.723,5.729z M12.562,12.791c-1.493,1.85-4.209,2.141-6.062,0.646
		c-1.854-1.496-2.142-4.208-0.645-6.062c1.489-1.851,4.203-2.143,6.061-0.648C13.765,8.223,14.055,10.936,12.562,12.791z"/>
</g>
</svg>
