<?xml version="1.0" encoding="utf-8"?>
<!-- Generator: Adobe Illustrator 16.0.4, SVG Export Plug-In . SVG Version: 6.00 Build 0)  -->
<!DOCTYPE svg PUBLIC "-//W3C//DTD SVG 1.1//EN" "http://www.w3.org/Graphics/SVG/1.1/DTD/svg11.dtd">
<svg version="1.1" id="Capa_1" xmlns="http://www.w3.org/2000/svg" xmlns:xlink="http://www.w3.org/1999/xlink" x="0px" y="0px"
	 width="23.305px" height="19.176px" viewBox="0 0 23.305 19.176" enable-background="new 0 0 23.305 19.176" xml:space="preserve">
<g>
	<path fill="none" d="M5.738,17.796c1.17,0,10.659,0,11.828,0c0-0.276,0-0.55,0-0.823H5.738C5.738,17.246,5.738,17.519,5.738,17.796
		z"/>
	<path d="M22.305,7.215H18.37V0H4.936v7.215H1c-0.55,0-1,0.45-1,1v7.758c0,0.549,0.45,1,1,1h3.357v2.202h14.587v-2.202h3.36
		c0.55,0,1-0.451,1-1V8.215C23.305,7.665,22.855,7.215,22.305,7.215z M6.312,1.377c1.152,0,9.529,0,10.68,0c0,0.814,0,3.946,0,5.838
		H6.312C6.312,5.323,6.312,2.191,6.312,1.377z M17.566,17.796c-1.169,0-10.658,0-11.828,0c0-0.277,0-0.55,0-0.823h11.828
		C17.566,17.246,17.566,17.52,17.566,17.796z M20.945,10.256c-0.521,0-0.943-0.422-0.943-0.944s0.423-0.944,0.943-0.944
		c0.521,0,0.944,0.422,0.944,0.944S21.466,10.256,20.945,10.256z"/>
</g>
</svg>
