<?xml version="1.0" encoding="utf-8"?>
<!-- Generator: Adobe Illustrator 16.0.4, SVG Export Plug-In . SVG Version: 6.00 Build 0)  -->
<!DOCTYPE svg PUBLIC "-//W3C//DTD SVG 1.1//EN" "http://www.w3.org/Graphics/SVG/1.1/DTD/svg11.dtd">
<svg version="1.1" id="Capa_1" xmlns="http://www.w3.org/2000/svg" xmlns:xlink="http://www.w3.org/1999/xlink" x="0px" y="0px"
	 width="23.303px" height="16.277px" viewBox="0 0 23.303 16.277" enable-background="new 0 0 23.303 16.277" xml:space="preserve">
<g>
	<path d="M17.357,6.447l5.945-5.056V0H0v1.393l5.944,5.056c0.2,0.166-3.79-2.32-5.944-3.663v13.492h23.303V2.785
		C21.148,4.128,17.159,6.614,17.357,6.447z M8.044,5.255c0-1.987,1.62-3.604,3.609-3.604c1.984,0,3.603,1.616,3.603,3.604v2.093
		h-1.359V5.255c0-1.238-1.009-2.25-2.242-2.25c-1.24,0-2.25,1.012-2.25,2.25v2.093h-1.36V5.255z M16.03,14.331H7.272V7.972h8.758
		V14.331z"/>
	<path d="M11.218,10.813l-0.185,1.826h1.233l-0.188-1.826c0.232-0.145,0.385-0.4,0.385-0.689c0-0.45-0.365-0.813-0.81-0.813
		c-0.454,0-0.815,0.363-0.815,0.813C10.839,10.413,10.992,10.669,11.218,10.813z"/>
</g>
</svg>
