<?xml version="1.0" encoding="utf-8"?>
<!-- Generator: Adobe Illustrator 16.0.4, SVG Export Plug-In . SVG Version: 6.00 Build 0)  -->
<!DOCTYPE svg PUBLIC "-//W3C//DTD SVG 1.1//EN" "http://www.w3.org/Graphics/SVG/1.1/DTD/svg11.dtd">
<svg version="1.1" id="Capa_1" xmlns="http://www.w3.org/2000/svg" xmlns:xlink="http://www.w3.org/1999/xlink" x="0px" y="0px"
	 width="23.303px" height="22.084px" viewBox="0 0 23.303 22.084" enable-background="new 0 0 23.303 22.084" xml:space="preserve">
<g>
	<polygon points="0,11.129 6.296,14.878 12.596,11.129 6.296,7.383 	"/>
	<polygon points="5.887,4.34 5.887,5.985 5.065,5.985 6.221,7.142 7.373,5.985 6.555,5.985 6.555,4.34 	"/>
	<polygon points="5.887,15.187 5.887,16.833 5.065,16.833 6.221,17.987 7.373,16.833 6.555,16.833 6.555,15.187 	"/>
	<polygon points="15.179,10.86 12.796,10.861 12.796,11.532 15.179,11.53 15.179,12.353 16.335,11.196 15.179,10.041 	"/>
	<polygon points="1.408,22.084 8.576,22.084 10.395,18.503 3.224,18.503 	"/>
	<path d="M21.292,9.094h-2.66c-1.108,0-2.012,0.902-2.012,2.012c0,1.113,0.904,2.014,2.012,2.014h2.66
		c1.11,0,2.011-0.902,2.011-2.014C23.303,9.996,22.402,9.095,21.292,9.094z"/>
	<path d="M4.325,4.026h4.132c1.112,0,2.016-0.903,2.016-2.012C10.473,0.902,9.569,0,8.457,0H4.325C3.214,0,2.311,0.902,2.31,2.014
		C2.31,3.124,3.214,4.026,4.325,4.026z"/>
</g>
</svg>
