<?xml version="1.0" encoding="utf-8"?>
<!-- Generator: Adobe Illustrator 16.0.4, SVG Export Plug-In . SVG Version: 6.00 Build 0)  -->
<!DOCTYPE svg PUBLIC "-//W3C//DTD SVG 1.1//EN" "http://www.w3.org/Graphics/SVG/1.1/DTD/svg11.dtd">
<svg version="1.1" id="Capa_1" xmlns="http://www.w3.org/2000/svg" xmlns:xlink="http://www.w3.org/1999/xlink" x="0px" y="0px"
	 width="20.166px" height="23.303px" viewBox="0 0 20.166 23.303" enable-background="new 0 0 20.166 23.303" xml:space="preserve">
<polygon points="6.924,15.199 1.953,16.301 0,23.303 8.557,23.303 9.453,15.81 7.943,14.176 "/>
<polygon points="18.213,16.301 13.237,15.199 12.216,14.177 10.711,15.811 11.606,23.304 20.167,23.304 "/>
<path d="M10.083,7.884c3.365,0,6.092-0.338,6.092-0.756c0-0.09-0.15-0.178-0.394-0.258C15.597,3.785,15.616,0,10.085,0
	C4.554,0,4.571,3.785,4.389,6.869C4.144,6.95,3.992,7.038,3.992,7.128C3.992,7.546,6.721,7.884,10.083,7.884z"/>
<path d="M15.165,8.342c-1.111,0.181-2.846,0.298-4.818,0.298c-2.323,0-4.322-0.162-5.345-0.399c0.361,3.206,2.488,5.681,5.09,5.681
	C12.663,13.92,14.765,11.498,15.165,8.342z"/>
</svg>
