<?xml version="1.0" encoding="utf-8"?>
<!-- Generator: Adobe Illustrator 16.0.4, SVG Export Plug-In . SVG Version: 6.00 Build 0)  -->
<!DOCTYPE svg PUBLIC "-//W3C//DTD SVG 1.1//EN" "http://www.w3.org/Graphics/SVG/1.1/DTD/svg11.dtd">
<svg version="1.1" id="Capa_1" xmlns="http://www.w3.org/2000/svg" xmlns:xlink="http://www.w3.org/1999/xlink" x="0px" y="0px"
	 width="21.123px" height="21px" viewBox="0 0 21.123 21" enable-background="new 0 0 21.123 21" xml:space="preserve">
<g>
	<path d="M20.274,0c-0.357,0-0.66,0.236-0.787,0.57c-1.473,0.767-4.896,2.502-7.418,3.464C7.347,5.839,3.227,6.312,3.227,6.312
		v6.797c0,0,1.41,0.164,3.518,0.657L6.777,20.1c0.003,0.496,0.414,0.902,0.912,0.9l1.473-0.007c0.498-0.004,0.902-0.412,0.901-0.912
		l-0.03-5.404c0.66,0.211,1.34,0.445,2.037,0.712c2.521,0.963,5.945,2.698,7.42,3.463c0.126,0.334,0.429,0.57,0.785,0.57
		c0.467,0,0.849-0.406,0.849-0.906V0.907C21.123,0.408,20.74,0,20.274,0z"/>
	<rect y="6.389" width="2.473" height="6.645"/>
</g>
</svg>
