<?xml version="1.0" encoding="utf-8"?>
<!-- Generator: Adobe Illustrator 16.0.4, SVG Export Plug-In . SVG Version: 6.00 Build 0)  -->
<!DOCTYPE svg PUBLIC "-//W3C//DTD SVG 1.1//EN" "http://www.w3.org/Graphics/SVG/1.1/DTD/svg11.dtd">
<svg version="1.1" id="Capa_1" xmlns="http://www.w3.org/2000/svg" xmlns:xlink="http://www.w3.org/1999/xlink" x="0px" y="0px"
	 width="23.303px" height="23.229px" viewBox="0 0 23.303 23.229" enable-background="new 0 0 23.303 23.229" xml:space="preserve">
<g>
	<path d="M23.07,0H0.233v14.945H23.07V0z M16.98,9.851c0.043,0.55-0.227,1.221-0.774,1.761c-0.812,0.8-1.907,1.007-2.449,0.46
		c-0.541-0.548-0.321-1.642,0.491-2.446c0.677-0.665,1.546-0.912,2.132-0.661V6.254h-7.37v3.598c0.043,0.55-0.226,1.221-0.773,1.761
		c-0.811,0.8-1.905,1.007-2.448,0.46c-0.54-0.548-0.322-1.642,0.488-2.446c0.679-0.665,1.55-0.912,2.135-0.661V3.461h8.569V9.851z"
		/>
	<path d="M23.303,18.105H12.278c-0.5-1.614-1.99-2.797-3.766-2.797s-3.266,1.183-3.766,2.797H0v2.717h4.872
		c0.606,1.413,2.009,2.406,3.64,2.406s3.034-0.993,3.641-2.406h11.15V18.105z M11.115,19.267c0,1.435-1.169,2.602-2.604,2.602
		s-2.603-1.168-2.603-2.602c0-1.436,1.168-2.603,2.603-2.603S11.115,17.832,11.115,19.267z"/>
</g>
</svg>
