<?xml version="1.0" encoding="utf-8"?>
<!-- Generator: Adobe Illustrator 16.0.4, SVG Export Plug-In . SVG Version: 6.00 Build 0)  -->
<!DOCTYPE svg PUBLIC "-//W3C//DTD SVG 1.1//EN" "http://www.w3.org/Graphics/SVG/1.1/DTD/svg11.dtd">
<svg version="1.1" id="Capa_1" xmlns="http://www.w3.org/2000/svg" xmlns:xlink="http://www.w3.org/1999/xlink" x="0px" y="0px"
	 width="23.303px" height="22.076px" viewBox="0 0 23.303 22.076" enable-background="new 0 0 23.303 22.076" xml:space="preserve">
<rect x="0" y="12.821" width="6.892" height="9.255"/>
<rect x="16.411" y="10.442" width="6.892" height="11.633"/>
<rect x="8.205" y="6.992" width="6.894" height="15.084"/>
<path d="M19.91,3.431l0.976,1.98l2.186,0.318l-1.58,1.541l0.372,2.177L19.91,8.419l-1.954,1.028l0.372-2.177l-1.58-1.541
	l2.184-0.318L19.91,3.431z"/>
<path d="M11.689,0l0.977,1.981l2.186,0.318l-1.58,1.542l0.373,2.175l-1.955-1.027L9.735,6.016l0.372-2.175l-1.58-1.542l2.185-0.318
	L11.689,0z"/>
<path d="M3.326,5.74l0.976,1.981L6.488,8.04L4.909,9.58l0.372,2.176l-1.955-1.027l-1.955,1.027L1.744,9.58l-1.58-1.54l2.185-0.319
	L3.326,5.74z"/>
</svg>
