<?xml version="1.0" encoding="utf-8"?>
<!-- Generator: Adobe Illustrator 16.0.4, SVG Export Plug-In . SVG Version: 6.00 Build 0)  -->
<!DOCTYPE svg PUBLIC "-//W3C//DTD SVG 1.1//EN" "http://www.w3.org/Graphics/SVG/1.1/DTD/svg11.dtd">
<svg version="1.1" id="Capa_1" xmlns="http://www.w3.org/2000/svg" xmlns:xlink="http://www.w3.org/1999/xlink" x="0px" y="0px"
	 width="23.303px" height="21.693px" viewBox="0 0 23.303 21.693" enable-background="new 0 0 23.303 21.693" xml:space="preserve">
<path d="M17.8,11.328V4.691h-7.039V0H0v14.868h10.761V6.023c1.615,0,4.853,0,5.707,0c0,0.59,0,3.032,0,5.303l-5.503,5.505h2.099
	v4.862h8.143v-4.862h2.097L17.8,11.328z M1.571,1.57h2.901v1.723H1.571V1.57z M1.571,4.834h2.901v1.725H1.571V4.834z M6.613,14.312
	H3.965v-4.86h2.647V14.312z M9.005,6.558h-2.9V4.834h2.9V6.558z M9.005,3.293h-2.9V1.57h2.9V3.293z M18.383,21.269h-2.416v-4.247
	h2.416V21.269z"/>
</svg>
