<?xml version="1.0" encoding="utf-8"?>
<!-- Generator: Adobe Illustrator 16.0.4, SVG Export Plug-In . SVG Version: 6.00 Build 0)  -->
<!DOCTYPE svg PUBLIC "-//W3C//DTD SVG 1.1//EN" "http://www.w3.org/Graphics/SVG/1.1/DTD/svg11.dtd">
<svg version="1.1" id="Capa_1" xmlns="http://www.w3.org/2000/svg" xmlns:xlink="http://www.w3.org/1999/xlink" x="0px" y="0px"
	 width="23.305px" height="21.266px" viewBox="0 0 23.305 21.266" enable-background="new 0 0 23.305 21.266" xml:space="preserve">
<g>
	<path d="M23.305,13.501c0-1.103-0.8-2.129-2.184-3.006V0H0v13.998h19.35c-0.866,1.373-3.696,2.263-7.078,2.946l-0.509-2.459
		l-4.946,4.739l6.347,2.041l-0.456-2.207C18.849,18.293,23.305,16.111,23.305,13.501z M18.618,1.459
		c-2.07,1.402-7.566,5.123-8.059,5.457c-0.489-0.334-5.983-4.055-8.055-5.457H18.618z M1.107,1.849l9.453,6.4l9.452-6.4v8.04
		c-1.768-0.854-4.139-1.519-6.874-1.898c3.144,0.986,6.242,3.186,6.469,4.904h-18.5V1.849z"/>
</g>
</svg>
