<?xml version="1.0" encoding="utf-8"?>
<!-- Generator: Adobe Illustrator 16.0.4, SVG Export Plug-In . SVG Version: 6.00 Build 0)  -->
<!DOCTYPE svg PUBLIC "-//W3C//DTD SVG 1.1//EN" "http://www.w3.org/Graphics/SVG/1.1/DTD/svg11.dtd">
<svg version="1.1" id="Capa_1" xmlns="http://www.w3.org/2000/svg" xmlns:xlink="http://www.w3.org/1999/xlink" x="0px" y="0px"
	 width="23.305px" height="21.244px" viewBox="0 0 23.305 21.244" enable-background="new 0 0 23.305 21.244" xml:space="preserve">
<g>
	<path d="M21.761,8.335h-2.078v-6.2C19.683,0.961,18.721,0,17.548,0H2.135C0.961,0,0,0.961,0,2.135v9.011
		c0,1.176,0.961,2.135,2.135,2.135h1.97v6.207c0,0.968,0.791,1.756,1.756,1.756h3.906c0.966,0,1.757-0.789,1.757-1.756V13.28h1.412
		v3.107c0,0.848,0.694,1.543,1.544,1.543h7.281c0.85,0,1.544-0.693,1.544-1.543V9.877C23.305,9.028,22.61,8.335,21.761,8.335z
		 M21.309,9.182c0.264,0,0.478,0.213,0.478,0.477c0,0.263-0.214,0.477-0.478,0.477s-0.477-0.213-0.477-0.477
		C20.832,9.396,21.045,9.182,21.309,9.182z M22.136,16.606h-8.03v-5.749h8.03V16.606z M19.942,9.183
		c0.264,0,0.477,0.213,0.477,0.476c0,0.263-0.213,0.476-0.477,0.476c-0.263,0-0.476-0.213-0.476-0.476
		C19.466,9.396,19.679,9.183,19.942,9.183z M17.069,1.089c0.345,0,0.624,0.279,0.624,0.624s-0.279,0.624-0.624,0.624
		c-0.344,0-0.624-0.279-0.624-0.624S16.725,1.089,17.069,1.089z M15.281,1.09c0.344,0,0.622,0.279,0.622,0.623
		c0,0.344-0.278,0.623-0.622,0.623c-0.345,0-0.623-0.279-0.623-0.623C14.658,1.369,14.937,1.09,15.281,1.09z M7.789,9.957
		c0-0.263,0.213-0.476,0.476-0.476s0.477,0.213,0.477,0.476s-0.214,0.476-0.477,0.476S7.789,10.22,7.789,9.957z M9.154,9.957
		c0-0.264,0.214-0.477,0.478-0.477s0.477,0.213,0.477,0.477c0,0.263-0.213,0.477-0.477,0.477S9.154,10.22,9.154,9.957z
		 M10.195,19.737H5.437v-8.418h4.759L10.195,19.737L10.195,19.737z M11.524,11.449v-1.138c0-0.965-0.791-1.756-1.756-1.756H5.861
		c-0.965,0-1.756,0.791-1.756,1.756v1.138H1.617V3.391h16.447v4.944H14.48c-0.85,0-1.544,0.693-1.544,1.542v1.572H11.524z"/>
</g>
</svg>
