<?xml version="1.0" encoding="utf-8"?>
<!-- Generator: Adobe Illustrator 16.0.4, SVG Export Plug-In . SVG Version: 6.00 Build 0)  -->
<!DOCTYPE svg PUBLIC "-//W3C//DTD SVG 1.1//EN" "http://www.w3.org/Graphics/SVG/1.1/DTD/svg11.dtd">
<svg version="1.1" id="Capa_1" xmlns="http://www.w3.org/2000/svg" xmlns:xlink="http://www.w3.org/1999/xlink" x="0px" y="0px"
	 width="19.959px" height="21px" viewBox="0 0 19.959 21" enable-background="new 0 0 19.959 21" xml:space="preserve">
<g>
	<path d="M0,0v21h19.959V0H0z M9.978,15.449c-4.681,0-8.476-4.94-8.476-4.94s3.795-4.94,8.476-4.94c4.682,0,8.477,4.94,8.477,4.94
		S14.66,15.449,9.978,15.449z"/>
	<path d="M9.823,6.644c-2.135,0-3.864,1.731-3.864,3.865s1.729,3.865,3.864,3.865c2.135,0,3.865-1.729,3.865-3.865
		C13.688,8.375,11.958,6.644,9.823,6.644z M11.469,10.664c-0.706,0-1.279-0.573-1.279-1.279c0-0.707,0.573-1.279,1.279-1.279
		s1.279,0.572,1.279,1.279C12.748,10.091,12.175,10.664,11.469,10.664z"/>
</g>
</svg>
