<?xml version="1.0" encoding="utf-8"?>
<!-- Generator: Adobe Illustrator 16.0.4, SVG Export Plug-In . SVG Version: 6.00 Build 0)  -->
<!DOCTYPE svg PUBLIC "-//W3C//DTD SVG 1.1//EN" "http://www.w3.org/Graphics/SVG/1.1/DTD/svg11.dtd">
<svg version="1.1" id="Capa_1" xmlns="http://www.w3.org/2000/svg" xmlns:xlink="http://www.w3.org/1999/xlink" x="0px" y="0px"
	 width="22.561px" height="23.303px" viewBox="0 0 22.561 23.303" enable-background="new 0 0 22.561 23.303" xml:space="preserve">
<g>
	<path d="M12.02,9.184h0.51V2.548C12.53,1.146,11.381,0,9.98,0H2.548C1.146,0,0,1.146,0,2.548v7.431
		c0,1.403,1.146,2.549,2.548,2.549h5.915c0.057-0.864,0.408-1.673,1.031-2.294C10.168,9.556,11.066,9.184,12.02,9.184z M2.126,7.459
		V5.068h4.723V3.426l3.528,2.838L6.848,9.102V7.459H2.126z"/>
	<path d="M19.216,9.978h-7.432c-1.401,0-2.548,1.146-2.548,2.549v7.432c0,1.4,1.146,2.548,2.548,2.548h7.432
		c1.4,0,2.549-1.147,2.549-2.548v-7.432C21.764,11.125,20.617,9.978,19.216,9.978z M19.638,17.439h-4.723v1.642l-3.529-2.837
		l3.529-2.837v1.642h4.723V17.439z"/>
</g>
</svg>
