<?xml version="1.0" encoding="utf-8"?>
<!-- Generator: Adobe Illustrator 16.0.4, SVG Export Plug-In . SVG Version: 6.00 Build 0)  -->
<!DOCTYPE svg PUBLIC "-//W3C//DTD SVG 1.1//EN" "http://www.w3.org/Graphics/SVG/1.1/DTD/svg11.dtd">
<svg version="1.1" id="Capa_1" xmlns="http://www.w3.org/2000/svg" xmlns:xlink="http://www.w3.org/1999/xlink" x="0px" y="0px"
	 width="21.365px" height="21.846px" viewBox="0 0 21.365 21.846" enable-background="new 0 0 21.365 21.846" xml:space="preserve">
<path d="M3.035,15.779C1.356,15.779,0,17.138,0,18.812c0,1.676,1.356,3.033,3.035,3.033c1.675,0,3.032-1.357,3.032-3.033
	C6.066,17.138,4.71,15.779,3.035,15.779z"/>
<path d="M0,0v3.62c9.817,0.197,17.741,8.238,17.741,18.104c0,0.041-0.002,0.083-0.002,0.122h3.623c0-0.041,0.003-0.081,0.003-0.122
	C21.365,9.863,11.813,0.197,0,0z"/>
<path d="M0,7.255v3.622c5.815,0.194,10.486,4.981,10.486,10.847c0,0.041-0.001,0.083-0.004,0.122h3.623
	c0-0.039,0.004-0.081,0.004-0.122C14.108,13.863,7.812,7.452,0,7.255z"/>
</svg>
