<?xml version="1.0" encoding="utf-8"?>
<!-- Generator: Adobe Illustrator 16.0.4, SVG Export Plug-In . SVG Version: 6.00 Build 0)  -->
<!DOCTYPE svg PUBLIC "-//W3C//DTD SVG 1.1//EN" "http://www.w3.org/Graphics/SVG/1.1/DTD/svg11.dtd">
<svg version="1.1" id="Capa_1" xmlns="http://www.w3.org/2000/svg" xmlns:xlink="http://www.w3.org/1999/xlink" x="0px" y="0px"
	 width="23.303px" height="18.168px" viewBox="0 0 23.303 18.168" enable-background="new 0 0 23.303 18.168" xml:space="preserve">
<g>
	<rect x="2.907" y="4.006" width="12.129" height="1.212"/>
	<polygon points="11.551,8.149 2.907,8.149 2.907,9.361 10.302,9.361 	"/>
	<polygon points="2.907,13.507 8.759,13.507 9.02,12.293 2.907,12.293 	"/>
	<path d="M18.17,3.022V1.969C18.169,0.886,17.282,0,16.199,0H1.971C0.887,0,0,0.886,0,1.969v14.228c0,1.084,0.887,1.971,1.971,1.971
		H16.2c1.083,0,1.97-0.887,1.97-1.971V9.46l3.326-3.838L18.311,2.86L18.17,3.022z M16.678,16.479H1.491V3.428V2.062h15.186v1.366
		v1.317l-5.319,6.14l3.184,2.764l2.137-2.467V16.479z"/>
	<path d="M23.031,2.776l-2.123-1.838c-0.29-0.254-0.705-0.26-0.916-0.016l-1.33,1.535l3.188,2.761l1.328-1.535
		C23.392,3.44,23.324,3.027,23.031,2.776z"/>
	<polygon points="10.008,15.387 10.171,15.527 14.183,14.066 10.997,11.303 	"/>
</g>
</svg>
