<?xml version="1.0" encoding="utf-8"?>
<!-- Generator: Adobe Illustrator 16.0.4, SVG Export Plug-In . SVG Version: 6.00 Build 0)  -->
<!DOCTYPE svg PUBLIC "-//W3C//DTD SVG 1.1//EN" "http://www.w3.org/Graphics/SVG/1.1/DTD/svg11.dtd">
<svg version="1.1" id="Capa_1" xmlns="http://www.w3.org/2000/svg" xmlns:xlink="http://www.w3.org/1999/xlink" x="0px" y="0px"
	 width="23.303px" height="19.785px" viewBox="0 0 23.303 19.785" enable-background="new 0 0 23.303 19.785" xml:space="preserve">
<g>
	<path d="M23.303,5.387C23.301,2.411,20.889,0,17.914,0c-2.789,0-5.054,2.125-5.334,4.839H1.599C0.72,4.839,0,5.559,0,6.438v11.555
		c0,0.881,0.72,1.599,1.599,1.599h11.556c0.88,0,1.602-0.718,1.602-1.599V9.736c0.661,0.481,1.433,0.812,2.273,0.951l0.023,1.254
		l-0.77,0.258v6.889c0,0,0.741,0.76,1.71,0.694c0.968-0.065,1.55-0.692,1.55-0.692l0.001-6.89l-0.719-0.177l-0.021-1.336
		C21.354,10.259,23.301,8.058,23.303,5.387z M17.913,9.537c-2.289,0-4.147-1.858-4.147-4.15s1.856-4.147,4.149-4.147
		c2.289-0.003,4.147,1.855,4.149,4.15C22.063,7.679,20.208,9.537,17.913,9.537z M11.997,16.424H2.756v-1.052h9.241V16.424z
		 M11.997,12.743H2.756v-1.054h9.241V12.743z M11.997,9.063H2.756V8.009h9.241V9.063z"/>
</g>
</svg>
