<?xml version="1.0" encoding="utf-8"?>
<!-- Generator: Adobe Illustrator 16.0.4, SVG Export Plug-In . SVG Version: 6.00 Build 0)  -->
<!DOCTYPE svg PUBLIC "-//W3C//DTD SVG 1.1//EN" "http://www.w3.org/Graphics/SVG/1.1/DTD/svg11.dtd">
<svg version="1.1" id="Capa_1" xmlns="http://www.w3.org/2000/svg" xmlns:xlink="http://www.w3.org/1999/xlink" x="0px" y="0px"
	 width="23.404px" height="23.305px" viewBox="0 0 23.404 23.305" enable-background="new 0 0 23.404 23.305" xml:space="preserve">
<g>
	<rect x="3.416" y="3.97" width="10.066" height="3.372"/>
	<path d="M18.156,3.97h-3.312v3.372h3.312V3.97z M16.514,6.408c-0.488,0-0.882-0.396-0.882-0.883s0.394-0.883,0.882-0.883
		s0.883,0.396,0.883,0.883C17.396,6.012,17.003,6.408,16.514,6.408z"/>
	<path d="M23.404,21.159l-1.799-1.799V0H0v20.247h18.2l3.058,3.057c0,0,0.987,0.011,1.582-0.67
		C23.435,21.957,23.404,21.159,23.404,21.159z M1.464,18.809V1.977H20.14v15.917l-1.27-1.27l-0.588,0.357l-0.896-0.865
		c1.396-1.96,1.229-4.692-0.527-6.448c-1.849-1.849-4.768-1.929-6.735-0.288H3.416v1.287h5.601
		c-0.389,0.656-0.609,1.376-0.673,2.113H3.416v1.281h4.968c0.129,0.752,0.438,1.473,0.911,2.114H3.416v1.285h7.254
		c1.706,1.063,3.902,1.001,5.553-0.178l0.839,0.807l-0.337,0.681l0.038,0.038H1.464z M10.583,15.945
		c-1.507-1.51-1.507-3.952,0.003-5.46c1.505-1.509,3.951-1.511,5.463-0.002c1.508,1.509,1.508,3.953-0.003,5.463
		C14.539,17.451,12.093,17.454,10.583,15.945z"/>
</g>
</svg>
