<?xml version="1.0" encoding="utf-8"?>
<!-- Generator: Adobe Illustrator 16.0.4, SVG Export Plug-In . SVG Version: 6.00 Build 0)  -->
<!DOCTYPE svg PUBLIC "-//W3C//DTD SVG 1.1//EN" "http://www.w3.org/Graphics/SVG/1.1/DTD/svg11.dtd">
<svg version="1.1" id="Capa_1" xmlns="http://www.w3.org/2000/svg" xmlns:xlink="http://www.w3.org/1999/xlink" x="0px" y="0px"
	 width="23.303px" height="18.062px" viewBox="0 0 23.303 18.062" enable-background="new 0 0 23.303 18.062" xml:space="preserve">
<g>
	<polygon points="0,7.622 0,10.443 11.8,10.443 11.17,7.622 	"/>
	<path d="M0,15.24v2.822h18.999v-2.639c-0.184-0.038-0.362-0.104-0.536-0.184H0z"/>
	<polygon points="11.254,0.51 15.222,2.823 18.999,2.823 18.999,0 0,0 0,2.823 10.098,2.823 9.819,1.57 	"/>
	<path d="M11.324,1.861l-0.243,0.183l2.734,12.239l2.205-3.729l2.339,3.2c0.446,0.604,1.232,0.778,1.763,0.389
		c0.528-0.388,0.603-1.19,0.16-1.794L17.942,9.15l4.224-0.976L11.324,1.861z"/>
</g>
</svg>
