<?xml version="1.0" encoding="utf-8"?>
<!-- Generator: Adobe Illustrator 16.0.4, SVG Export Plug-In . SVG Version: 6.00 Build 0)  -->
<!DOCTYPE svg PUBLIC "-//W3C//DTD SVG 1.1//EN" "http://www.w3.org/Graphics/SVG/1.1/DTD/svg11.dtd">
<svg version="1.1" id="Capa_1" xmlns="http://www.w3.org/2000/svg" xmlns:xlink="http://www.w3.org/1999/xlink" x="0px" y="0px"
	 width="14.182px" height="23.305px" viewBox="0 0 14.182 23.305" enable-background="new 0 0 14.182 23.305" xml:space="preserve">
<path d="M14.169,13.297c0,0-0.093-1.087-0.807-1.684c-0.399-0.338-0.781-0.382-1.052-0.356v2.044h-0.489v-2.239
	c-0.146-0.317-0.438-0.807-0.902-0.991c-0.462-0.186-0.935-0.14-1.225-0.084v2.307H9.207v-2.59C9,9.455,8.628,9.158,7.976,9.119
	C7.624,9.098,7.31,9.24,7.062,9.396l-0.048,2.217h-0.49l0.015-4.025C8.119,7.093,9.274,5.635,9.274,3.89
	C9.273,1.741,7.531,0,5.383,0c-2.149,0-3.89,1.741-3.89,3.891c0,1.682,1.071,3.102,2.565,3.645v6.831c0,0-1.258-2.707-2.327-3.064
	C0.664,10.947,0,11.588,0,11.588s1.212,2.246,2.101,4.736c0.571,1.602,0.742,3.459,1.246,4.379c1.281,2.351,2.917,2.595,4.891,2.595
	c1.97,0,4.65,0.183,5.362-1.456C14.313,20.205,14.169,13.297,14.169,13.297z M3.167,3.889c0-1.223,0.992-2.216,2.216-2.216
	c1.223,0,2.216,0.993,2.216,2.216c0,0.797-0.424,1.488-1.053,1.879l0.005-1.433c0,0-0.287-1.492-1.211-1.492
	c-0.927,0-1.281,1.28-1.281,1.28v1.533C3.521,5.253,3.167,4.615,3.167,3.889z"/>
</svg>
