<?xml version="1.0" encoding="utf-8"?>
<!-- Generator: Adobe Illustrator 16.0.4, SVG Export Plug-In . SVG Version: 6.00 Build 0)  -->
<!DOCTYPE svg PUBLIC "-//W3C//DTD SVG 1.1//EN" "http://www.w3.org/Graphics/SVG/1.1/DTD/svg11.dtd">
<svg version="1.1" id="Capa_1" xmlns="http://www.w3.org/2000/svg" xmlns:xlink="http://www.w3.org/1999/xlink" x="0px" y="0px"
	 width="23.303px" height="19.864px" viewBox="0 0 23.303 19.864" enable-background="new 0 0 23.303 19.864" xml:space="preserve">
<g>
	<path d="M13.92,10.024c1.046-0.429,1.992-1.139,2.776-2.066c5.02-0.904,6.575-6.785,6.592-6.848
		c0.052-0.201-0.038-0.414-0.219-0.514c-0.182-0.105-0.408-0.073-0.557,0.072c-0.009,0.009-0.881,0.859-2.242,1.201
		c-0.435,0.109-0.858,0.154-1.244,0.17c0.025-0.312,0.038-0.63,0.038-0.952c0-0.366-0.02-0.729-0.053-1.087H4.292
		C4.258,0.357,4.239,0.721,4.239,1.087c0,0.322,0.015,0.64,0.038,0.954c-0.385-0.018-0.81-0.062-1.244-0.172
		C1.673,1.527,0.8,0.677,0.79,0.668C0.643,0.522,0.415,0.49,0.234,0.596c-0.181,0.1-0.271,0.313-0.219,0.514
		c0.017,0.062,1.572,5.943,6.591,6.848c0.785,0.927,1.731,1.637,2.777,2.066c0.074,0.74,0.627,1.362,1.405,1.632v5.235L6.478,19.14
		v0.724h10.349V19.14l-4.311-2.258v-5.227C13.293,11.386,13.846,10.763,13.92,10.024z M18.916,2.975
		c0.475-0.014,1.017-0.067,1.58-0.206c0.551-0.139,0.999-0.346,1.396-0.562c-0.635,1.45-1.959,3.689-4.351,4.57
		C18.207,5.673,18.689,4.384,18.916,2.975z M1.412,2.208C1.808,2.424,2.256,2.631,2.808,2.77c0.562,0.139,1.104,0.192,1.58,0.206
		c0.228,1.409,0.709,2.698,1.375,3.802C3.37,5.896,2.048,3.657,1.412,2.208z"/>
</g>
</svg>
