<?xml version="1.0" encoding="utf-8"?>
<!-- Generator: Adobe Illustrator 16.0.4, SVG Export Plug-In . SVG Version: 6.00 Build 0)  -->
<!DOCTYPE svg PUBLIC "-//W3C//DTD SVG 1.1//EN" "http://www.w3.org/Graphics/SVG/1.1/DTD/svg11.dtd">
<svg version="1.1" id="Capa_1" xmlns="http://www.w3.org/2000/svg" xmlns:xlink="http://www.w3.org/1999/xlink" x="0px" y="0px"
	 width="19.252px" height="23.307px" viewBox="0 0 19.252 23.307" enable-background="new 0 0 19.252 23.307" xml:space="preserve">
<g>
	<path d="M18.576,12.924l-8.111-8.109c-0.899-0.9-1.794-0.875-3.84-0.567L5.192,4.432c0.282-0.788,0.736-1.605,1.475-2.22
		c1.253-1.046,3.088-1.313,5.451-0.804c0.312,0.069,0.619-0.131,0.688-0.443c0.068-0.312-0.132-0.619-0.443-0.688
		c-2.734-0.591-4.9-0.237-6.443,1.049c-1.108,0.926-1.689,2.171-1.998,3.27L1.279,4.938L0.885,5.333l-0.692,5.347
		c-0.307,2.046-0.333,2.94,0.567,3.841l8.11,8.109c0.902,0.902,2.374,0.9,3.273,0l6.432-6.432
		C19.476,15.298,19.478,13.826,18.576,12.924z M5.148,9.202c-0.664,0.665-1.741,0.664-2.405,0c-0.663-0.663-0.664-1.74,0-2.404
		c0.246-0.246,0.549-0.399,0.866-0.463C3.573,6.771,3.579,7.062,3.58,7.102c0.012,0.319,0.279,0.568,0.598,0.56
		c0.318-0.011,0.569-0.277,0.56-0.598c0-0.008-0.004-0.216,0.021-0.548C4.897,6.592,5.03,6.68,5.147,6.798
		C5.811,7.461,5.812,8.538,5.148,9.202z"/>
</g>
</svg>
