<?xml version="1.0" encoding="utf-8"?>
<!-- Generator: Adobe Illustrator 16.0.4, SVG Export Plug-In . SVG Version: 6.00 Build 0)  -->
<!DOCTYPE svg PUBLIC "-//W3C//DTD SVG 1.1//EN" "http://www.w3.org/Graphics/SVG/1.1/DTD/svg11.dtd">
<svg version="1.1" id="Capa_1" xmlns="http://www.w3.org/2000/svg" xmlns:xlink="http://www.w3.org/1999/xlink" x="0px" y="0px"
	 width="22.167px" height="23.303px" viewBox="0 0 22.167 23.303" enable-background="new 0 0 22.167 23.303" xml:space="preserve">
<g>
	<path d="M5.899,15.585H1.444C0.652,15.585,0,16.314,0,17.21v4.468c0,0.894,0.652,1.625,1.444,1.625h4.455
		c0.792,0,1.441-0.731,1.441-1.625V17.21C7.341,16.314,6.691,15.585,5.899,15.585z"/>
	<path d="M3.669,15.132c1.537,0,2.778-1.242,2.778-2.775S5.206,9.581,3.669,9.581c-1.533,0-2.772,1.242-2.772,2.775
		C0.896,13.89,2.136,15.132,3.669,15.132z"/>
	<path d="M20.722,15.585H16.27c-0.792,0-1.442,0.729-1.442,1.625v4.468c0,0.894,0.65,1.625,1.442,1.625h4.452
		c0.796,0,1.445-0.731,1.445-1.625V17.21C22.167,16.314,21.518,15.585,20.722,15.585z"/>
	<path d="M15.72,12.357c0,1.533,1.242,2.775,2.773,2.775c1.536,0,2.778-1.242,2.778-2.775s-1.242-2.775-2.778-2.775
		C16.962,9.581,15.72,10.823,15.72,12.357z"/>
	<path d="M11.617,8.647c3.466-0.175,6.195-2.038,6.195-4.314C17.812,1.94,14.799,0,11.083,0S4.354,1.94,4.354,4.332
		c0,1.985,2.076,3.654,4.904,4.167l-1.322,2.433L11.617,8.647z"/>
</g>
</svg>
