<?xml version="1.0" encoding="utf-8"?>
<!-- Generator: Adobe Illustrator 16.0.4, SVG Export Plug-In . SVG Version: 6.00 Build 0)  -->
<!DOCTYPE svg PUBLIC "-//W3C//DTD SVG 1.1//EN" "http://www.w3.org/Graphics/SVG/1.1/DTD/svg11.dtd">
<svg version="1.1" id="Capa_1" xmlns="http://www.w3.org/2000/svg" xmlns:xlink="http://www.w3.org/1999/xlink" x="0px" y="0px"
	 width="23.303px" height="23.305px" viewBox="0 0 23.303 23.305" enable-background="new 0 0 23.303 23.305" xml:space="preserve">
<g>
	<path d="M23.302,19.996L16.309,13l-0.907,0.551l-1.369-1.326c2.155-3.023,1.887-7.246-0.823-9.957
		c-3.026-3.023-7.922-3.022-10.943,0c-3.021,3.021-3.021,7.918,0,10.942c1.233,1.233,2.781,1.954,4.384,2.181l-0.01,4.061h0.01
		c0.011,0.641,0.527,1.157,1.167,1.155c0.642,0.001,1.158-0.516,1.169-1.154l0.011,0.001l0.01-4.089
		c1.141-0.189,2.244-0.635,3.223-1.335l1.285,1.237l-0.519,1.045l6.997,6.994c0,0,1.521,0.019,2.438-1.029
		S23.302,19.996,23.302,19.996z M7.817,19.993c-0.285,0-0.518-0.23-0.518-0.518c0.001-0.286,0.229-0.519,0.516-0.519
		s0.52,0.232,0.521,0.52C8.336,19.762,8.104,19.992,7.817,19.993z M9.011,13.547L9.021,9.82l2.267-2.278L9.586,4.598L9.092,4.597
		l0.001,2.47H6.681V4.599L6.188,4.597L4.489,7.542l2.202,2.216H6.664l-0.01,3.834c-1.147-0.21-2.245-0.754-3.132-1.641
		C1.195,9.623,1.197,5.852,3.525,3.524c2.319-2.327,6.099-2.329,8.429-0.001c2.322,2.329,2.324,6.099-0.005,8.429
		C11.113,12.788,10.087,13.311,9.011,13.547z"/>
</g>
</svg>
