<?xml version="1.0" encoding="utf-8"?>
<!-- Generator: Adobe Illustrator 16.0.4, SVG Export Plug-In . SVG Version: 6.00 Build 0)  -->
<!DOCTYPE svg PUBLIC "-//W3C//DTD SVG 1.1//EN" "http://www.w3.org/Graphics/SVG/1.1/DTD/svg11.dtd">
<svg version="1.1" id="Capa_1" xmlns="http://www.w3.org/2000/svg" xmlns:xlink="http://www.w3.org/1999/xlink" x="0px" y="0px"
	 width="20.309px" height="23.305px" viewBox="0 0 20.309 23.305" enable-background="new 0 0 20.309 23.305" xml:space="preserve">
<g>
	<path fill="none" d="M1.054,19.876c0.957,0,14.473,0,15.429,0c0-0.972,0-17.85,0-18.821c-0.956,0-14.471,0-15.429,0
		C1.054,2.025,1.054,18.903,1.054,19.876z M2.894,3.399h11.988v1.106H2.894V3.399z M2.894,6.884h11.988v1.105H2.894V6.884z
		 M3.342,12.451c0.725-0.001,1.317,0.588,1.317,1.316c0,0.126-0.039,0.24-0.072,0.356c0.461,0.377,0.977,0.799,1.394,1.141
		c0.21-0.142,0.449-0.244,0.721-0.244c0.125,0,0.238,0.039,0.353,0.071c0.565-0.849,1.467-2.202,2.158-3.24
		c-0.115-0.196-0.199-0.411-0.199-0.655c0-0.727,0.588-1.315,1.314-1.315s1.315,0.589,1.315,1.315c0,0.022-0.012,0.042-0.013,0.063
		l1.683,0.982c0.229-0.192,0.514-0.321,0.836-0.321c0.728,0,1.316,0.59,1.316,1.317s-0.589,1.317-1.316,1.317
		s-1.317-0.59-1.317-1.317c0-0.019,0.01-0.033,0.011-0.052c-0.555-0.323-1.197-0.698-1.692-0.987
		c-0.228,0.187-0.506,0.312-0.822,0.312c-0.09,0-0.169-0.034-0.255-0.052c-0.554,0.831-1.478,2.217-2.2,3.301
		c0.087,0.176,0.146,0.366,0.146,0.575c0,0.728-0.59,1.317-1.317,1.317s-1.317-0.59-1.317-1.317c0-0.06,0.026-0.11,0.034-0.168
		l-1.504-1.23c-0.175,0.086-0.365,0.145-0.573,0.145c-0.729,0-1.318-0.59-1.318-1.315C2.023,13.039,2.612,12.451,3.342,12.451z"/>
	<path d="M17.537,0H0V20.93h17.537V0z M16.483,19.876c-0.956,0-14.472,0-15.429,0c0-0.973,0-17.851,0-18.821
		c0.958,0,14.473,0,15.429,0C16.483,2.026,16.483,18.904,16.483,19.876z"/>
	<rect x="2.894" y="3.399" width="11.988" height="1.106"/>
	<rect x="2.894" y="6.884" width="11.988" height="1.105"/>
	<polygon points="18.259,2.372 18.259,3.427 19.252,3.427 19.252,22.247 3.822,22.247 3.822,21.516 2.766,21.516 2.766,23.304 
		20.308,23.304 20.308,2.372 	"/>
	<path d="M3.342,15.083c0.208,0,0.398-0.059,0.573-0.145l1.504,1.23c-0.008,0.058-0.034,0.108-0.034,0.168
		c0,0.728,0.59,1.317,1.317,1.317s1.317-0.59,1.317-1.317c0-0.209-0.06-0.399-0.146-0.575c0.723-1.084,1.646-2.47,2.2-3.301
		c0.085,0.018,0.165,0.052,0.255,0.052c0.316,0,0.595-0.126,0.822-0.312c0.495,0.289,1.138,0.664,1.692,0.987
		c-0.001,0.019-0.011,0.033-0.011,0.052c0,0.728,0.59,1.317,1.317,1.317s1.316-0.59,1.316-1.317s-0.589-1.317-1.316-1.317
		c-0.322,0-0.606,0.129-0.836,0.321l-1.683-0.982c0.001-0.022,0.013-0.041,0.013-0.063c0-0.727-0.589-1.315-1.315-1.315
		s-1.314,0.589-1.314,1.315c0,0.244,0.084,0.459,0.199,0.655c-0.691,1.038-1.593,2.391-2.158,3.24
		C6.94,15.059,6.827,15.02,6.702,15.02c-0.272,0-0.511,0.103-0.721,0.244c-0.417-0.342-0.933-0.764-1.394-1.141
		c0.033-0.116,0.072-0.23,0.072-0.356c0-0.729-0.593-1.317-1.317-1.316c-0.729,0-1.318,0.588-1.318,1.316
		C2.023,14.493,2.612,15.083,3.342,15.083z"/>
</g>
</svg>
