<?xml version="1.0" encoding="utf-8"?>
<!-- Generator: Adobe Illustrator 16.0.4, SVG Export Plug-In . SVG Version: 6.00 Build 0)  -->
<!DOCTYPE svg PUBLIC "-//W3C//DTD SVG 1.1//EN" "http://www.w3.org/Graphics/SVG/1.1/DTD/svg11.dtd">
<svg version="1.1" id="Capa_1" xmlns="http://www.w3.org/2000/svg" xmlns:xlink="http://www.w3.org/1999/xlink" x="0px" y="0px"
	 width="23.303px" height="14.264px" viewBox="0 0 23.303 14.264" enable-background="new 0 0 23.303 14.264" xml:space="preserve">
<g>
	<path d="M23.302,11.652C23.303,5.216,18.087,0,11.651,0C5.215,0,0,5.216,0,11.651c0,0.073,0.02,0.139,0.021,0.212h9.039
		c-0.006-0.071-0.021-0.14-0.021-0.212c0-1.443,1.17-2.613,2.612-2.613c0.476,0,0.917,0.137,1.301,0.359l6.218-5.566l0.238,0.232
		l-5.516,6.264c0.23,0.39,0.372,0.839,0.372,1.324c0,0.072-0.016,0.141-0.021,0.212h9.036v0.001
		C23.282,11.79,23.302,11.725,23.302,11.652z M2.865,10.824H1.799c-0.254,0-0.46-0.205-0.46-0.455c0-0.255,0.206-0.459,0.46-0.459
		h1.066c0.253,0,0.459,0.205,0.459,0.459C3.324,10.619,3.118,10.824,2.865,10.824z M12.11,2.736c0,0.252-0.203,0.458-0.457,0.458
		s-0.459-0.206-0.459-0.458V1.668c0-0.252,0.205-0.457,0.459-0.457s0.457,0.205,0.457,0.457V2.736z M21.509,10.824h-1.068
		c-0.254,0-0.459-0.205-0.459-0.455c0-0.255,0.205-0.459,0.459-0.459h1.068c0.251,0,0.458,0.205,0.458,0.459
		C21.967,10.619,21.76,10.824,21.509,10.824z"/>
</g>
</svg>
