<svg width="21" xmlns="http://www.w3.org/2000/svg" height="20.824" viewBox="0 0 21 20.824" xmlns:xlink="http://www.w3.org/1999/xlink" enable-background="new 0 0 21 20.824">
<path d="m0,0v20.824h21v-20.824h-21zm19.611,1.389c0,1.242 0,16.804 0,18.047-1.244,0-16.979,0-18.223,0 0-1.243 0-16.805 0-18.047 1.244,0 16.979,0 18.223,0z"/>
<path d="m10.5,5.489v1.375h7.196v-1.375h-7.196zm-2.047,6.178h9.244v-1.374h-9.244v1.374zm-5.339,4.804h14.583v-1.374h-14.583v1.374z"/>
<path d="m9.079,5.855c0-1.76-1.428-3.188-3.185-3.188-1.762,0-3.186,1.426-3.187,3.188 0,1.581 1.155,2.883 2.662,3.134l.015,.742-.457,.156 .001,3.64c0,0 .438,.447 1.011,.409 .573-.036 .917-.409 .917-.409l.001-3.642-.424-.102-.014-.794c1.508-.253 2.66-1.554 2.66-3.134zm-3.187,2.457c-1.354,0-2.455-1.1-2.455-2.456s1.1-2.453 2.457-2.455c1.354,0 2.454,1.099 2.455,2.455-.001,1.356-1.099,2.454-2.457,2.456z"/>
</svg>
