<?xml version="1.0" encoding="utf-8"?>
<!-- Generator: Adobe Illustrator 16.0.4, SVG Export Plug-In . SVG Version: 6.00 Build 0)  -->
<!DOCTYPE svg PUBLIC "-//W3C//DTD SVG 1.1//EN" "http://www.w3.org/Graphics/SVG/1.1/DTD/svg11.dtd">
<svg version="1.1" id="Capa_1" xmlns="http://www.w3.org/2000/svg" xmlns:xlink="http://www.w3.org/1999/xlink" x="0px" y="0px"
	 width="23.305px" height="22.938px" viewBox="0 0 23.305 22.938" enable-background="new 0 0 23.305 22.938" xml:space="preserve">
<g>
	<path d="M18.644,16.075L18.04,16.44l-0.919-0.889c1.432-2.013,1.261-4.819-0.541-6.624c-0.077-0.077-0.167-0.131-0.248-0.202V0H0
		v21.393h16.332v-4.247l0.454,0.437l-0.348,0.696l4.66,4.659c0,0,1.012,0.011,1.624-0.688c0.609-0.697,0.582-1.518,0.582-1.518
		L18.644,16.075z M15.741,15.377c-1.55,1.545-4.061,1.548-5.611,0c-1.551-1.551-1.551-4.064,0.002-5.613
		c1.545-1.551,4.061-1.551,5.609-0.001S17.291,13.826,15.741,15.377z M9.594,8.68c-0.1,0.085-0.208,0.153-0.303,0.247
		c-0.379,0.379-0.663,0.812-0.899,1.264c-0.683,0-1.429,0-1.656,0c0-0.345,0-1.281,0-1.627c0.405,0,2.454,0,2.858,0
		C9.594,8.592,9.594,8.644,9.594,8.68z M7.785,12.587c0.002,0.552,0.11,1.099,0.288,1.628c-0.582,0-1.146,0-1.338,0
		c0-0.345,0-1.283,0-1.628C6.895,12.587,7.314,12.587,7.785,12.587z M1.889,2.62h12.552v3.434H1.889V2.62z M4.952,18.238
		c-0.405,0-2.454,0-2.856,0c0-0.345,0-1.281,0-1.627c0.402,0,2.451,0,2.856,0C4.952,16.956,4.952,17.893,4.952,18.238z
		 M4.952,14.215c-0.405,0-2.454,0-2.856,0c0-0.345,0-1.283,0-1.628c0.402,0,2.451,0,2.856,0C4.952,12.932,4.952,13.87,4.952,14.215z
		 M4.952,10.191c-0.405,0-2.454,0-2.856,0c0-0.345,0-1.281,0-1.627c0.402,0,2.451,0,2.856,0C4.952,8.909,4.952,9.845,4.952,10.191z
		 M9.594,18.238c-0.404,0-2.454,0-2.858,0c0-0.345,0-1.281,0-1.627c0.405,0,2.454,0,2.858,0C9.594,16.956,9.594,17.893,9.594,18.238
		z M11.38,18.238c0-0.166,0-0.47,0-0.778c0.93,0.294,1.916,0.32,2.856,0.075c0,0.28,0,0.552,0,0.703
		C13.83,18.238,11.783,18.238,11.38,18.238z"/>
</g>
</svg>
