<?xml version="1.0" encoding="utf-8"?>
<!-- Generator: Adobe Illustrator 16.0.4, SVG Export Plug-In . SVG Version: 6.00 Build 0)  -->
<!DOCTYPE svg PUBLIC "-//W3C//DTD SVG 1.1//EN" "http://www.w3.org/Graphics/SVG/1.1/DTD/svg11.dtd">
<svg version="1.1" id="Capa_1" xmlns="http://www.w3.org/2000/svg" xmlns:xlink="http://www.w3.org/1999/xlink" x="0px" y="0px"
	 width="23.305px" height="23.311px" viewBox="0 0 23.305 23.311" enable-background="new 0 0 23.305 23.311" xml:space="preserve">
<g>
	<path d="M23.304,20.005l-6.992-6.996l-0.909,0.548L14.02,12.22c2.159-3.025,1.897-7.245-0.813-9.953
		c-3.026-3.024-7.929-3.019-10.942,0c-3.019,3.02-3.019,7.914,0,10.945c2.717,2.714,6.933,2.97,9.954,0.81l1.297,1.247l-0.519,1.05
		l6.995,6.992c0,0,1.527,0.018,2.444-1.028C23.352,21.234,23.304,20.005,23.304,20.005z M11.951,11.955
		c-2.325,2.323-6.101,2.328-8.433,0C1.195,9.628,1.195,5.852,3.522,3.525c2.318-2.325,6.099-2.331,8.431,0
		C14.278,5.852,14.278,9.624,11.951,11.955z"/>
	<polygon points="7.13,9.147 8.206,9.147 8.822,2.988 6.514,2.988 	"/>
	<rect x="6.653" y="10.567" width="2.032" height="1.925"/>
</g>
</svg>
