<?xml version="1.0" encoding="utf-8"?>
<!-- Generator: Adobe Illustrator 16.0.4, SVG Export Plug-In . SVG Version: 6.00 Build 0)  -->
<!DOCTYPE svg PUBLIC "-//W3C//DTD SVG 1.1//EN" "http://www.w3.org/Graphics/SVG/1.1/DTD/svg11.dtd">
<svg version="1.1" id="Capa_1" xmlns="http://www.w3.org/2000/svg" xmlns:xlink="http://www.w3.org/1999/xlink" x="0px" y="0px"
	 width="22.381px" height="23.303px" viewBox="0 0 22.381 23.303" enable-background="new 0 0 22.381 23.303" xml:space="preserve">
<g>
	<path d="M21.187,1.9h-8.863c0.097-0.182,0.166-0.38,0.166-0.601c0-0.718-0.582-1.3-1.3-1.3c-0.718,0-1.3,0.582-1.3,1.3
		c0,0.221,0.069,0.418,0.166,0.601h-8.86C0.536,1.9,0,2.438,0,3.096V16.28c0,0.658,0.536,1.197,1.195,1.197h7.245L7.033,22.44
		c-0.098,0.344,0.109,0.68,0.461,0.744l0.56,0.107c0.352,0.065,0.719-0.163,0.816-0.505l1.506-5.31h1.63l1.507,5.309
		c0.096,0.343,0.465,0.571,0.816,0.505l0.557-0.107c0.352-0.064,0.559-0.4,0.461-0.744l-1.407-4.962h7.247
		c0.656,0,1.194-0.539,1.194-1.197V3.096C22.381,2.439,21.844,1.9,21.187,1.9z M20.106,15.145H2.273V3.985h17.833V15.145z"/>
	<path d="M4.375,13.272c0.512,0,0.927-0.415,0.927-0.927c0-0.093-0.027-0.177-0.053-0.261c1.184-0.955,3.277-2.639,4.23-3.373
		c0.151,0.106,0.325,0.182,0.523,0.182c0.164,0,0.31-0.054,0.444-0.129c0.613,0.521,1.655,1.407,2.396,2.036
		c-0.01,0.053-0.032,0.102-0.032,0.158c0,0.513,0.416,0.928,0.928,0.928c0.514,0,0.929-0.415,0.929-0.928
		c0-0.091-0.027-0.173-0.052-0.256l2.395-2.161c0.129,0.067,0.269,0.115,0.424,0.115c0.512,0,0.926-0.415,0.926-0.927
		c0-0.511-0.414-0.926-0.926-0.926s-0.926,0.415-0.926,0.926c0,0.122,0.026,0.237,0.069,0.344c-0.669,0.604-1.702,1.536-2.346,2.118
		c-0.145-0.093-0.308-0.162-0.493-0.162c-0.218,0-0.41,0.087-0.568,0.213c-0.612-0.52-1.601-1.36-2.305-1.958
		c0.037-0.1,0.064-0.205,0.064-0.317c0-0.512-0.415-0.926-0.926-0.926S9.076,7.456,9.076,7.968c0,0.113,0.027,0.218,0.064,0.317
		l-4.252,3.308c-0.148-0.102-0.319-0.175-0.513-0.175c-0.512,0-0.927,0.415-0.927,0.927S3.863,13.272,4.375,13.272z"/>
</g>
</svg>
