<?xml version="1.0" encoding="utf-8"?>
<!-- Generator: Adobe Illustrator 16.0.4, SVG Export Plug-In . SVG Version: 6.00 Build 0)  -->
<!DOCTYPE svg PUBLIC "-//W3C//DTD SVG 1.1//EN" "http://www.w3.org/Graphics/SVG/1.1/DTD/svg11.dtd">
<svg version="1.1" id="Capa_1" xmlns="http://www.w3.org/2000/svg" xmlns:xlink="http://www.w3.org/1999/xlink" x="0px" y="0px"
	 width="23.305px" height="23.704px" viewBox="0 0 23.305 23.704" enable-background="new 0 0 23.305 23.704" xml:space="preserve">
<g>
	<path d="M5.426,19.069c2.496,0.748,5.103-0.461,6.215-2.729l1.179,0.33l0.024,0.793l6.442,1.926c0,0,0.919-0.479,1.126-1.403
		c0.217-0.923-0.213-1.642-0.213-1.642l-6.437-1.93l-0.366,0.619l-1.259-0.352c0.312-2.505-1.202-4.948-3.698-5.69
		c-2.785-0.836-5.715,0.75-6.545,3.528C1.06,15.299,2.642,18.23,5.426,19.069z M3.05,12.866c0.641-2.139,2.897-3.359,5.046-2.717
		c2.142,0.643,3.357,2.898,2.717,5.041c-0.641,2.141-2.899,3.364-5.046,2.723C3.629,17.271,2.409,15.01,3.05,12.866z"/>
	<polygon points="0,19.555 0,20.542 1.126,20.542 5.84,23.704 17.464,23.704 22.177,20.542 23.304,20.542 23.304,19.555 	"/>
	<path d="M9.471,8.849c0,0,1.91-0.219,2.293-1.857c0.384-1.637-1.664-3.318-1.527-4.587C10.399,0.875,11.328,0,11.328,0
		S8.05,1.422,9.471,3.934C10.891,6.447,11.764,7.321,9.471,8.849z"/>
	<path d="M13.362,8.849c0,0,1.911-0.219,2.294-1.857c0.383-1.638-1.665-3.319-1.529-4.588C14.291,0.875,15.219,0,15.219,0
		s-3.276,1.422-1.856,3.934C14.782,6.447,15.656,7.321,13.362,8.849z"/>
</g>
</svg>
