<?xml version="1.0" encoding="utf-8"?>
<!-- Generator: Adobe Illustrator 16.0.4, SVG Export Plug-In . SVG Version: 6.00 Build 0)  -->
<!DOCTYPE svg PUBLIC "-//W3C//DTD SVG 1.1//EN" "http://www.w3.org/Graphics/SVG/1.1/DTD/svg11.dtd">
<svg version="1.1" id="Capa_1" xmlns="http://www.w3.org/2000/svg" xmlns:xlink="http://www.w3.org/1999/xlink" x="0px" y="0px"
	 width="21.568px" height="21px" viewBox="0 0 21.568 21" enable-background="new 0 0 21.568 21" xml:space="preserve">
<g>
	<path d="M0,21h21.568V3.778H0V21z M6.405,7.838c1.625-1.626,4.266-1.631,5.896-0.001c1.461,1.461,1.6,3.733,0.438,5.364l0.746,0.72
		l0.489-0.294l3.77,3.768c0,0,0.026,0.662-0.47,1.228c-0.492,0.563-1.314,0.554-1.314,0.554l-3.771-3.767l0.279-0.565l-0.697-0.673
		c-1.63,1.164-3.9,1.028-5.365-0.435C4.779,12.105,4.779,9.464,6.405,7.838z"/>
	<path d="M11.622,13.059c1.255-1.254,1.255-3.288,0.003-4.542c-1.257-1.257-3.293-1.254-4.543,0
		c-1.255,1.255-1.255,3.289-0.004,4.542C8.336,14.312,10.372,14.311,11.622,13.059z"/>
	<polygon points="17.713,0 3.856,0 0,2.839 21.569,2.839 	"/>
</g>
</svg>
