<?xml version="1.0" encoding="utf-8"?>
<!-- Generator: Adobe Illustrator 16.0.4, SVG Export Plug-In . SVG Version: 6.00 Build 0)  -->
<!DOCTYPE svg PUBLIC "-//W3C//DTD SVG 1.1//EN" "http://www.w3.org/Graphics/SVG/1.1/DTD/svg11.dtd">
<svg version="1.1" id="Capa_1" xmlns="http://www.w3.org/2000/svg" xmlns:xlink="http://www.w3.org/1999/xlink" x="0px" y="0px"
	 width="23.305px" height="16.16px" viewBox="0 0 23.305 16.16" enable-background="new 0 0 23.305 16.16" xml:space="preserve">
<g>
	<path d="M6.411,4.217h11.998v-0.75c0-0.619-0.507-1.125-1.125-1.125h-4.952V1.687C12.332,0.755,11.574,0,10.645,0h-2.88
		c-0.45,0-0.873,0.176-1.193,0.496c-0.32,0.32-0.495,0.74-0.495,1.191v0.656H1.125C0.506,2.342,0,2.848,0,3.467v10.047l3.782-7.662
		C4.241,4.919,5.373,4.217,6.411,4.217z M7.202,1.687c0-0.149,0.061-0.29,0.166-0.396c0.105-0.108,0.247-0.167,0.396-0.167h2.88
		c0.311,0,0.562,0.252,0.562,0.563v0.656H7.202V1.687z"/>
	<path d="M22.571,5.34H6.411c-0.618,0-1.349,0.454-1.62,1.008l-4.346,8.804c-0.274,0.553,0.009,1.007,0.627,1.007h16.16
		c0.618,0,1.35-0.453,1.622-1.007l4.345-8.804C23.472,5.794,23.191,5.34,22.571,5.34z"/>
</g>
</svg>
