<?xml version="1.0" encoding="utf-8"?>
<!-- Generator: Adobe Illustrator 16.0.4, SVG Export Plug-In . SVG Version: 6.00 Build 0)  -->
<!DOCTYPE svg PUBLIC "-//W3C//DTD SVG 1.1//EN" "http://www.w3.org/Graphics/SVG/1.1/DTD/svg11.dtd">
<svg version="1.1" id="Capa_1" xmlns="http://www.w3.org/2000/svg" xmlns:xlink="http://www.w3.org/1999/xlink" x="0px" y="0px"
	 width="20.73px" height="23.303px" viewBox="0 0 20.73 23.303" enable-background="new 0 0 20.73 23.303" xml:space="preserve">
<path d="M8.262,15.009c0.001,1.162,0.939,2.103,2.101,2.103c1.164,0,2.104-0.94,2.104-2.103c0-1.163-0.94-2.104-2.104-2.104
	C9.202,12.905,8.262,13.845,8.262,15.009z"/>
<path d="M12.053,17.455H8.679c-0.603,0-1.097,0.554-1.097,1.231v3.387c0,0.677,0.494,1.23,1.097,1.23h3.374
	c0.6,0,1.094-0.554,1.094-1.23v-3.387C13.146,18.008,12.652,17.455,12.053,17.455z"/>
<circle cx="2.778" cy="15.008" r="2.104"/>
<path d="M4.467,17.455H1.094C0.493,17.455,0,18.008,0,18.687v3.387c0,0.677,0.493,1.23,1.094,1.23h3.373
	c0.604,0,1.097-0.554,1.097-1.23v-3.387C5.562,18.008,5.069,17.455,4.467,17.455z"/>
<path d="M19.638,17.455h-3.376c-0.601,0-1.095,0.554-1.095,1.231v3.387c0,0.677,0.494,1.23,1.095,1.23h3.376
	c0.6,0,1.093-0.554,1.093-1.23v-3.387C20.73,18.008,20.237,17.455,19.638,17.455z"/>
<path d="M15.847,15.009c0.001,1.162,0.94,2.103,2.099,2.103c1.167,0,2.107-0.94,2.107-2.103c0-1.163-0.94-2.104-2.107-2.104
	C16.788,12.905,15.847,13.845,15.847,15.009z"/>
<path d="M3.639,11.97l3.341-3.357h3.04v3.821h0.693V8.613h3.036l3.345,3.355l0.492-0.49L14.73,8.613h2.582V0H3.419v8.612h2.58
	L3.146,11.48L3.639,11.97z M4.225,2.987h12.123v4.445H4.225V2.987z"/>
</svg>
