<?xml version="1.0" encoding="utf-8"?>
<!-- Generator: Adobe Illustrator 17.0.0, SVG Export Plug-In . SVG Version: 6.00 Build 0)  -->
<!DOCTYPE svg PUBLIC "-//W3C//DTD SVG 1.1//EN" "http://www.w3.org/Graphics/SVG/1.1/DTD/svg11.dtd">
<svg version="1.1" id="Capa_1" xmlns="http://www.w3.org/2000/svg" xmlns:xlink="http://www.w3.org/1999/xlink" x="0px" y="0px"
	 width="23.303px" height="21.215px" viewBox="0 0 23.303 21.215" enable-background="new 0 0 23.303 21.215" xml:space="preserve">
<path d="M18.853,6.686c0-0.006,0.002-0.044,0.002-0.044c-0.001-3.116-2.536-5.651-5.653-5.651c-2.163,0-4.05,1.266-4.997,3.16
	C7.72,3.775,7.165,3.503,6.537,3.503c-1.538,0-2.79,1.251-2.79,2.789c0,0,0.019,0.136,0.034,0.241
	c-1.572,0.535-2.692,1.973-2.692,3.673c0,1.05,0.41,2.04,1.152,2.782c0.743,0.743,1.732,1.153,2.782,1.153h13.421
	c2.079,0,3.77-1.69,3.77-3.768C22.215,8.44,20.731,6.898,18.853,6.686z M18.445,13.029H5.023c-0.753,0-1.462-0.295-1.996-0.828
	c-0.532-0.533-0.826-1.242-0.826-1.996c0-1.353,0.963-2.518,2.287-2.772l0.518-0.099L4.92,6.738L4.859,6.292
	c0-0.926,0.752-1.677,1.678-1.677c0.548,0,1.064,0.268,1.379,0.72l0.63,0.907l0.351-1.046C9.521,3.346,11.25,2.104,13.2,2.104
	c2.505,0,4.542,2.036,4.542,4.539l-0.056,1.065l0.627,0.011l0.131-0.004c1.466,0,2.659,1.192,2.659,2.658
	C21.103,11.836,19.911,13.029,18.445,13.029z M18.613,18.232v1.993h-3.907v-1.993c0-0.406,0.332-0.736,0.733-0.736h2.441
	C18.282,17.496,18.612,17.826,18.613,18.232z M10.399,16.032c0-0.742,0.602-1.344,1.344-1.344c0.742,0,1.343,0.602,1.343,1.344
	s-0.602,1.344-1.343,1.344C11.001,17.375,10.399,16.774,10.399,16.032z M15.316,16.032c0-0.742,0.602-1.344,1.344-1.344
	s1.344,0.602,1.344,1.344s-0.602,1.344-1.344,1.344S15.316,16.774,15.316,16.032z M5.484,16.032c0-0.742,0.602-1.344,1.344-1.344
	s1.344,0.602,1.344,1.344s-0.602,1.344-1.344,1.344S5.484,16.774,5.484,16.032z M13.697,18.232v1.993H9.792v-1.993
	c0-0.406,0.329-0.736,0.734-0.736h2.437C13.368,17.496,13.696,17.826,13.697,18.232z M8.782,18.232v1.993H4.875v-1.993
	c0-0.406,0.332-0.736,0.733-0.736h2.441C8.45,17.496,8.782,17.826,8.782,18.232z"/>
</svg>
