<?xml version="1.0" encoding="utf-8"?>
<!-- Generator: Adobe Illustrator 16.0.4, SVG Export Plug-In . SVG Version: 6.00 Build 0)  -->
<!DOCTYPE svg PUBLIC "-//W3C//DTD SVG 1.1//EN" "http://www.w3.org/Graphics/SVG/1.1/DTD/svg11.dtd">
<svg version="1.1" id="Capa_1" xmlns="http://www.w3.org/2000/svg" xmlns:xlink="http://www.w3.org/1999/xlink" x="0px" y="0px"
	 width="20.668px" height="21px" viewBox="0 0 20.668 21" enable-background="new 0 0 20.668 21" xml:space="preserve">
<g>
	<path d="M0,0v21h20.668V0H0z M1.127,19.873c0-0.665,0-7.807,0-13.092h18.414c0,5.284,0,12.426,0,13.092
		C18.509,19.873,2.159,19.873,1.127,19.873z"/>
	<rect x="11.395" y="8.259" width="6.922" height="1.009"/>
	<rect x="11.395" y="11.284" width="6.922" height="1.009"/>
	<rect x="11.395" y="14.309" width="6.922" height="1.006"/>
	<rect x="11.395" y="17.332" width="6.922" height="1.007"/>
	<rect x="2.523" y="17.332" width="6.922" height="1.007"/>
	<path d="M2.523,15.305h6.922v-7.06H2.523V15.305z M5.872,9.028c0.752,0,1.362,0.61,1.362,1.362s-0.61,1.362-1.362,1.362
		c-0.752,0-1.362-0.609-1.362-1.362S5.12,9.028,5.872,9.028z M4.228,12.439c0-0.274,0.225-0.5,0.5-0.5h2.335
		c0.275,0,0.5,0.226,0.5,0.5v1.725H7.562c0,0.275-0.225,0.5-0.5,0.5H4.728c-0.275,0-0.5-0.225-0.5-0.5V12.439z"/>
</g>
</svg>
