<?xml version="1.0" encoding="utf-8"?>
<!-- Generator: Adobe Illustrator 16.0.4, SVG Export Plug-In . SVG Version: 6.00 Build 0)  -->
<!DOCTYPE svg PUBLIC "-//W3C//DTD SVG 1.1//EN" "http://www.w3.org/Graphics/SVG/1.1/DTD/svg11.dtd">
<svg version="1.1" id="Capa_1" xmlns="http://www.w3.org/2000/svg" xmlns:xlink="http://www.w3.org/1999/xlink" x="0px" y="0px"
	 width="23.303px" height="20.418px" viewBox="0 0 23.303 20.418" enable-background="new 0 0 23.303 20.418" xml:space="preserve">
<g>
	<path d="M17.805,9.747c-3.04,0-5.499,1.804-5.499,4.03c0,1.367,0.938,2.572,2.362,3.301l-1.275,3.341l2.872-2.792
		c0.491,0.105,1.003,0.18,1.54,0.18c3.038,0,5.498-1.804,5.498-4.029C23.303,11.55,20.843,9.747,17.805,9.747z"/>
	<path d="M5.5,9.747c-3.037,0-5.5,1.803-5.5,4.03c0,2.226,2.463,4.029,5.5,4.029c0.537,0,1.045-0.074,1.539-0.18l2.871,2.792
		l-1.271-3.341C10.063,16.35,11,15.145,11,13.777C11,11.551,8.536,9.747,5.5,9.747z"/>
	<path d="M17.153,4.028C17.153,1.803,14.689,0,11.652,0c-3.036,0-5.5,1.803-5.5,4.028c0,2.022,2.039,3.68,4.688,3.97l0.759,3.354
		L12.32,8.01C15.039,7.766,17.153,6.086,17.153,4.028z"/>
</g>
</svg>
