<?xml version="1.0" encoding="utf-8"?>
<!-- Generator: Adobe Illustrator 16.0.4, SVG Export Plug-In . SVG Version: 6.00 Build 0)  -->
<!DOCTYPE svg PUBLIC "-//W3C//DTD SVG 1.1//EN" "http://www.w3.org/Graphics/SVG/1.1/DTD/svg11.dtd">
<svg version="1.1" id="Capa_1" xmlns="http://www.w3.org/2000/svg" xmlns:xlink="http://www.w3.org/1999/xlink" x="0px" y="0px"
	 width="23.303px" height="22.301px" viewBox="0 0 23.303 22.301" enable-background="new 0 0 23.303 22.301" xml:space="preserve">
<g>
	<circle cx="11.653" cy="3.033" r="3.03"/>
	<polygon points="15.94,7.32 13.316,6.739 12.777,6.2 11.983,7.062 12.456,11.014 16.972,11.014 	"/>
	<polygon points="9.984,6.739 7.363,7.32 6.334,11.013 10.848,11.013 11.321,7.061 10.524,6.2 	"/>
	<circle cx="5.019" cy="14.77" r="2.861"/>
	<polygon points="6.588,18.266 6.083,17.757 5.332,18.57 5.776,22.3 10.037,22.3 9.064,18.812 	"/>
	<polygon points="3.447,18.266 0.975,18.812 0,22.301 4.26,22.301 4.705,18.57 3.956,17.759 	"/>
	<path d="M21.148,14.77c0-1.58-1.281-2.859-2.864-2.859c-1.576,0-2.857,1.279-2.857,2.859s1.282,2.859,2.857,2.859
		C19.865,17.629,21.148,16.35,21.148,14.77z"/>
	<polygon points="22.329,18.812 19.855,18.266 19.347,17.757 18.598,18.568 19.044,22.299 23.302,22.299 	"/>
	<polygon points="16.714,18.266 14.24,18.812 13.266,22.301 17.527,22.301 17.972,18.57 17.219,17.759 	"/>
</g>
</svg>
