<?xml version="1.0" encoding="utf-8"?>
<!-- Generator: Adobe Illustrator 16.0.4, SVG Export Plug-In . SVG Version: 6.00 Build 0)  -->
<!DOCTYPE svg PUBLIC "-//W3C//DTD SVG 1.1//EN" "http://www.w3.org/Graphics/SVG/1.1/DTD/svg11.dtd">
<svg version="1.1" id="Capa_1" xmlns="http://www.w3.org/2000/svg" xmlns:xlink="http://www.w3.org/1999/xlink" x="0px" y="0px"
	 width="23.303px" height="17.291px" viewBox="0 0 23.303 17.291" enable-background="new 0 0 23.303 17.291" xml:space="preserve">
<g>
	<circle cx="11.642" cy="1.295" r="1.295"/>
	<circle cx="22.007" cy="11.213" r="1.295"/>
	<path d="M18.851,5.461c0.348,0,0.672-0.136,0.917-0.379c0.504-0.505,0.505-1.328,0-1.832c-0.506-0.507-1.326-0.507-1.831,0
		c-0.505,0.504-0.505,1.327,0,1.832C18.181,5.326,18.504,5.461,18.851,5.461z"/>
	<circle cx="1.294" cy="11.213" r="1.295"/>
	<path d="M4.452,5.461c0.346,0,0.67-0.136,0.914-0.379c0.504-0.505,0.504-1.328,0-1.832c-0.507-0.507-1.326-0.507-1.832,0
		C3.029,3.754,3.03,4.577,3.535,5.082C3.779,5.325,4.104,5.461,4.452,5.461z"/>
	<path d="M11.289,3.041v4.002c0.117-0.01,0.229-0.035,0.352-0.035c0.119,0,0.232,0.025,0.351,0.035v-4
		c-0.124-0.004-0.237-0.038-0.36-0.038C11.512,3.006,11.405,3.039,11.289,3.041z"/>
	<path d="M16.189,11.051V7.353L17.86,5.68c-0.159-0.17-0.342-0.317-0.518-0.474l-1.839,1.838h-7.73L5.937,5.208
		C5.761,5.363,5.582,5.511,5.419,5.68l1.673,1.672v3.698H3.079c-0.015,0.197-0.059,0.38-0.059,0.582
		c0,0.042,0.012,0.082,0.014,0.125h4.058v5.533h9.097v-5.533h4.062c0-0.044,0.013-0.083,0.013-0.125
		c0-0.202-0.045-0.385-0.058-0.582H16.189z M11.639,8.235c0.916,0,1.654,0.738,1.654,1.65c0,0.919-0.738,1.652-1.654,1.652
		c-0.912,0-1.65-0.735-1.65-1.652C9.989,8.974,10.727,8.235,11.639,8.235z M13.825,15.435c0,0.028-0.013,0.055-0.014,0.084H9.473
		c-0.003-0.028-0.017-0.055-0.017-0.084v-2.66c0-0.53,0.389-0.969,0.861-0.969h2.649c0.474,0,0.857,0.438,0.858,0.969V15.435z"/>
</g>
</svg>
