<?xml version="1.0" encoding="utf-8"?>
<!-- Generator: Adobe Illustrator 16.0.4, SVG Export Plug-In . SVG Version: 6.00 Build 0)  -->
<!DOCTYPE svg PUBLIC "-//W3C//DTD SVG 1.1//EN" "http://www.w3.org/Graphics/SVG/1.1/DTD/svg11.dtd">
<svg version="1.1" id="Capa_1" xmlns="http://www.w3.org/2000/svg" xmlns:xlink="http://www.w3.org/1999/xlink" x="0px" y="0px"
	 width="23.305px" height="22.598px" viewBox="0 0 23.305 22.598" enable-background="new 0 0 23.305 22.598" xml:space="preserve">
<g>
	<path d="M23.304,11.722c0-3.929-3-7.155-6.834-7.519V0H0v22.598H16.47v-3.356C20.304,18.877,23.304,15.651,23.304,11.722z
		 M15.749,17.994c-3.464,0-6.271-2.809-6.271-6.272s2.808-6.271,6.271-6.271s6.272,2.808,6.272,6.271S19.213,17.994,15.749,17.994z"
		/>
	<path d="M15.748,8.414c-1.827,0-3.308,1.48-3.308,3.308s1.48,3.308,3.308,3.308s3.309-1.48,3.309-3.308S17.575,8.414,15.748,8.414z
		 M15.748,12.837c-0.615,0-1.115-0.499-1.115-1.115c0-0.615,0.5-1.115,1.115-1.115c0.616,0,1.115,0.5,1.115,1.115
		C16.863,12.338,16.364,12.837,15.748,12.837z"/>
</g>
</svg>
