<?xml version="1.0" encoding="utf-8"?>
<!-- Generator: Adobe Illustrator 16.0.4, SVG Export Plug-In . SVG Version: 6.00 Build 0)  -->
<!DOCTYPE svg PUBLIC "-//W3C//DTD SVG 1.1//EN" "http://www.w3.org/Graphics/SVG/1.1/DTD/svg11.dtd">
<svg version="1.1" id="Capa_1" xmlns="http://www.w3.org/2000/svg" xmlns:xlink="http://www.w3.org/1999/xlink" x="0px" y="0px"
	 width="23.303px" height="23.471px" viewBox="0 0 23.303 23.471" enable-background="new 0 0 23.303 23.471" xml:space="preserve">
<g>
	<path d="M18.787,3.636V2.557c1.007-0.129,1.775-0.627,1.775-1.252C20.563,0.585,19.56,0,18.318,0c-1.238,0-2.246,0.585-2.246,1.305
		c0,0.625,0.77,1.123,1.774,1.252v1.079H5.482V2.557C6.489,2.428,7.26,1.93,7.26,1.305C7.26,0.585,6.253,0,5.014,0
		C3.772,0,2.768,0.585,2.768,1.305c0,0.625,0.771,1.123,1.775,1.252v1.079H0v14.213h3.468v5.622h1.82v-3.424h12.724v3.424h1.819
		v-5.622h3.472V3.636H18.787z M18.012,19.055H5.288v-1.206h12.724V19.055z M20.866,15.619H2.435v-10h18.432V15.619z"/>
</g>
</svg>
