<?xml version="1.0" encoding="utf-8"?>
<!-- Generator: Adobe Illustrator 16.0.4, SVG Export Plug-In . SVG Version: 6.00 Build 0)  -->
<!DOCTYPE svg PUBLIC "-//W3C//DTD SVG 1.1//EN" "http://www.w3.org/Graphics/SVG/1.1/DTD/svg11.dtd">
<svg version="1.1" id="Capa_1" xmlns="http://www.w3.org/2000/svg" xmlns:xlink="http://www.w3.org/1999/xlink" x="0px" y="0px"
	 width="18.8px" height="23.305px" viewBox="0 0 18.8 23.305" enable-background="new 0 0 18.8 23.305" xml:space="preserve">
<g>
	<path d="M18.8,7.239V4.86h-1.29c-0.858-1.596-3.613-2.812-7.025-3.028V0h-2.17v1.832C4.902,2.048,2.148,3.264,1.291,4.86H0v2.379
		h0.996v13.686H0v2.38h18.8v-2.38h-0.994V7.239H18.8z M15.855,9.339v9.485c0,0.804-0.611,1.456-1.367,1.456
		c-0.754,0-1.365-0.652-1.365-1.456V9.339c0-0.805,0.611-1.456,1.365-1.456C15.244,7.883,15.854,8.535,15.855,9.339z M10.766,9.339
		v9.485c0,0.804-0.612,1.456-1.367,1.456c-0.753,0-1.366-0.652-1.366-1.456V9.339c0-0.805,0.613-1.456,1.366-1.456
		C10.155,7.883,10.766,8.535,10.766,9.339z M5.677,9.339v9.485c0,0.804-0.61,1.456-1.365,1.456s-1.367-0.652-1.367-1.456V9.339
		c0-0.805,0.613-1.456,1.367-1.456S5.677,8.535,5.677,9.339z"/>
</g>
</svg>
