<?xml version="1.0" encoding="utf-8"?>
<!-- Generator: Adobe Illustrator 16.0.4, SVG Export Plug-In . SVG Version: 6.00 Build 0)  -->
<!DOCTYPE svg PUBLIC "-//W3C//DTD SVG 1.1//EN" "http://www.w3.org/Graphics/SVG/1.1/DTD/svg11.dtd">
<svg version="1.1" id="Capa_1" xmlns="http://www.w3.org/2000/svg" xmlns:xlink="http://www.w3.org/1999/xlink" x="0px" y="0px"
	 width="17.15px" height="23.303px" viewBox="0 0 17.15 23.303" enable-background="new 0 0 17.15 23.303" xml:space="preserve">
<g>
	<path d="M15.637,10.246V7.059C15.638,3.166,12.469,0,8.578,0C4.684,0,1.517,3.166,1.517,7.059v3.188H0v13.057h17.15V10.246H15.637z
		 M4.176,7.059c0-2.425,1.974-4.396,4.401-4.396c2.423,0,4.396,1.972,4.396,4.396v3.188H4.176V7.059z M9.79,19.724H7.367
		l0.363-3.579c-0.448-0.279-0.75-0.777-0.75-1.348c0-0.879,0.714-1.593,1.598-1.593c0.879,0,1.591,0.714,1.591,1.593
		c0,0.571-0.297,1.068-0.749,1.348L9.79,19.724z"/>
</g>
</svg>
