<?xml version="1.0" encoding="utf-8"?>
<!-- Generator: Adobe Illustrator 16.0.4, SVG Export Plug-In . SVG Version: 6.00 Build 0)  -->
<!DOCTYPE svg PUBLIC "-//W3C//DTD SVG 1.1//EN" "http://www.w3.org/Graphics/SVG/1.1/DTD/svg11.dtd">
<svg version="1.1" id="Capa_1" xmlns="http://www.w3.org/2000/svg" xmlns:xlink="http://www.w3.org/1999/xlink" x="0px" y="0px"
	 width="18.012px" height="23.303px" viewBox="0 0 18.012 23.303" enable-background="new 0 0 18.012 23.303" xml:space="preserve">
<g>
	<path d="M16.93,8.353C16.731,3.703,13.266,0,9.007,0c-4.26,0-7.725,3.703-7.924,8.352C0.46,8.518,0,9.079,0,9.752v3.619
		c0,0.803,0.65,1.454,1.455,1.454s1.456-0.65,1.456-1.454h0.001v-0.28c0.688,3.203,2.355,7.35,6.095,7.35
		c3.738,0,5.406-4.144,6.095-7.347v0.277c0,0.641,0.417,1.178,0.992,1.372c-0.041,0.734-0.438,4.607-4.223,6.223
		c-0.237-0.147-0.526-0.197-0.81-0.094L9.396,21.49c-0.484,0.179-0.731,0.718-0.553,1.199c0.181,0.486,0.717,0.733,1.202,0.555
		l1.665-0.617c0.363-0.134,0.593-0.47,0.61-0.832c4.24-1.875,4.675-6.349,4.717-7.058c0.565-0.198,0.975-0.731,0.975-1.366V9.752
		C18.012,9.08,17.551,8.518,16.93,8.353z M9.007,2.761c-3.311,0-6.039,2.629-6.464,6.033C2.43,8.666,2.296,8.561,2.146,8.479
		C2.284,4.422,5.299,1.18,9.007,1.18c3.707,0,6.721,3.242,6.86,7.299c-0.149,0.082-0.283,0.187-0.396,0.313
		C15.046,5.389,12.318,2.761,9.007,2.761z"/>
</g>
</svg>
