<svg width="22.178" xmlns="http://www.w3.org/2000/svg" height="23.304" viewBox="0 0 22.178 23.304" xmlns:xlink="http://www.w3.org/1999/xlink" enable-background="new 0 0 22.178 23.304">
<path d="M8.882,7.117l1.742,3.416l2.582-7.953L5.252,0L6.98,3.39C2.913,4.842,0,8.717,0,13.282c0,4.7,3.085,8.677,7.341,10.021   c-2.564-1.618-4.272-4.468-4.272-7.72C3.068,11.718,5.487,8.446,8.882,7.117z"/>
<path d="m13.297,16.188l-1.743-3.417-2.579,7.952 7.951,2.581-1.729-3.391c4.068-1.45 6.98-5.326 6.98-9.893 0-4.699-3.084-8.676-7.34-10.021 2.563,1.618 4.273,4.467 4.273,7.72 .001,3.867-2.418,7.137-5.813,8.469z"/>
</svg>
