<?xml version="1.0" encoding="utf-8"?>
<!-- Generator: Adobe Illustrator 16.0.4, SVG Export Plug-In . SVG Version: 6.00 Build 0)  -->
<!DOCTYPE svg PUBLIC "-//W3C//DTD SVG 1.1//EN" "http://www.w3.org/Graphics/SVG/1.1/DTD/svg11.dtd">
<svg version="1.1" id="Capa_1" xmlns="http://www.w3.org/2000/svg" xmlns:xlink="http://www.w3.org/1999/xlink" x="0px" y="0px"
	 width="23.303px" height="23.307px" viewBox="0 0 23.303 23.307" enable-background="new 0 0 23.303 23.307" xml:space="preserve">
<g>
	<path d="M11.652,0C5.216,0,0,5.218,0,11.652c0,6.437,5.216,11.653,11.651,11.653c6.437,0,11.651-5.218,11.651-11.653
		C23.303,5.218,18.087,0,11.652,0z M12.652,21.374v-2.521h-2.005v2.521c-4.678-0.479-8.372-4.258-8.729-8.97H5.95v-2.007H1.967
		c0.574-4.478,4.17-8.006,8.681-8.467v1.791h2.005v-1.79c4.516,0.461,8.108,3.989,8.682,8.467h-3.982v2.007h4.034
		C21.025,17.117,17.331,20.898,12.652,21.374z"/>
	<path d="M11.649,10.374c1.626,0,2.938-1.312,2.938-2.932c0-1.622-1.312-2.936-2.938-2.936c-1.617,0-2.928,1.312-2.928,2.936
		C8.721,9.061,10.031,10.374,11.649,10.374z"/>
	<path d="M14.002,10.851H9.301c-0.84,0-1.528,0.771-1.528,1.718v4.723c0,0.051,0.025,0.1,0.028,0.152H15.5
		c0.005-0.054,0.029-0.103,0.029-0.152v-4.723C15.53,11.623,14.843,10.851,14.002,10.851z"/>
</g>
</svg>
