<?xml version="1.0" encoding="utf-8"?>
<!-- Generator: Adobe Illustrator 16.0.4, SVG Export Plug-In . SVG Version: 6.00 Build 0)  -->
<!DOCTYPE svg PUBLIC "-//W3C//DTD SVG 1.1//EN" "http://www.w3.org/Graphics/SVG/1.1/DTD/svg11.dtd">
<svg version="1.1" id="Capa_1" xmlns="http://www.w3.org/2000/svg" xmlns:xlink="http://www.w3.org/1999/xlink" x="0px" y="0px"
	 width="21px" height="21px" viewBox="0 0 21 21" enable-background="new 0 0 21 21" xml:space="preserve">
<g>
	<path d="M0,0v21h21V0H0z M10.657,18.753c-4.527,0-8.196-3.669-8.196-8.196s3.669-8.196,8.196-8.196
		c4.526,0,8.196,3.669,8.196,8.196S15.184,18.753,10.657,18.753z"/>
	<path d="M10.657,3.665c-3.801,0-6.892,3.091-6.892,6.892c0,3.8,3.092,6.893,6.892,6.893c3.801,0,6.894-3.093,6.894-6.893
		c0-1.841-0.717-3.572-2.019-4.874C14.23,4.382,12.498,3.665,10.657,3.665z M10.657,14.825c-2.353,0-4.267-1.915-4.267-4.268
		s1.914-4.268,4.267-4.268c1.14,0,2.212,0.444,3.019,1.25s1.25,1.877,1.25,3.018C14.926,12.911,13.012,14.825,10.657,14.825z"/>
	<circle cx="10.657" cy="10.557" r="1.601"/>
</g>
</svg>
