<?xml version="1.0" encoding="utf-8"?>
<!-- Generator: Adobe Illustrator 16.0.4, SVG Export Plug-In . SVG Version: 6.00 Build 0)  -->
<!DOCTYPE svg PUBLIC "-//W3C//DTD SVG 1.1//EN" "http://www.w3.org/Graphics/SVG/1.1/DTD/svg11.dtd">
<svg version="1.1" id="Capa_1" xmlns="http://www.w3.org/2000/svg" xmlns:xlink="http://www.w3.org/1999/xlink" x="0px" y="0px"
	 width="22.094px" height="23.303px" viewBox="0 0 22.094 23.303" enable-background="new 0 0 22.094 23.303" xml:space="preserve">
<g>
	<path d="M21.609,18.84l0.015-0.009l-7.885-7.917l3.579-3.579l3.197-2.06l1.271-2.285l-1.477-1.479l-2.285,1.273l-2.062,3.196
		l-3.575,3.576L8.84,5.994L8.824,1.289L4.015,0L3.5,0.511l2.558,2.555L3.564,5.565L1.008,3.011L0.493,3.52l1.291,4.81L6.36,8.342
		l-0.028,0.03l3.614,3.629L8.61,13.338l-0.877-0.875l-1.352,1.353l0.42,0.418c-1.215,0.465-4.567,3.818-5.033,5.031L1.35,18.846
		L0,20.199l3.104,3.104l1.353-1.354l-0.422-0.42c1.215-0.462,4.569-3.817,5.033-5.03l0.419,0.421l1.352-1.354L9.964,14.69
		l1.333-1.333l7.881,7.912l0.014-0.01c0.672,0.65,1.744,0.651,2.401-0.013C22.257,20.585,22.259,19.515,21.609,18.84z M20.96,20.609
		c-0.296,0.296-0.774,0.299-1.073,0c-0.291-0.296-0.296-0.771-0.002-1.071c0.301-0.296,0.777-0.296,1.075,0
		C21.259,19.833,21.259,20.311,20.96,20.609z"/>
</g>
</svg>
