<?xml version="1.0" encoding="utf-8"?>
<!-- Generator: Adobe Illustrator 16.0.4, SVG Export Plug-In . SVG Version: 6.00 Build 0)  -->
<!DOCTYPE svg PUBLIC "-//W3C//DTD SVG 1.1//EN" "http://www.w3.org/Graphics/SVG/1.1/DTD/svg11.dtd">
<svg version="1.1" id="Capa_1" xmlns="http://www.w3.org/2000/svg" xmlns:xlink="http://www.w3.org/1999/xlink" x="0px" y="0px"
	 width="23.305px" height="21.029px" viewBox="0 0 23.305 21.029" enable-background="new 0 0 23.305 21.029" xml:space="preserve">
<g>
	<path d="M11.654,0C5.213,0,0,3.823,0,8.535c0,2.9,1.985,5.454,5.005,6.997L2.112,21.03l6.277-4.336
		c1.041,0.224,2.126,0.382,3.265,0.382c6.437,0,11.649-3.823,11.649-8.54C23.304,3.823,18.091,0,11.654,0z M17.573,8.972H16.02
		c-0.108,0.565-0.325,1.089-0.634,1.544l1.094,1.097l-1.119,1.12l-1.096-1.096c-0.455,0.31-0.98,0.529-1.541,0.635v1.553h-1.58
		v-1.553c-0.563-0.11-1.086-0.327-1.543-0.636l-1.097,1.097l-1.118-1.12l1.095-1.097c-0.309-0.455-0.526-0.979-0.635-1.544H6.294
		V7.394h1.553C7.955,6.83,8.173,6.308,8.481,5.853L7.386,4.755l1.118-1.118l1.098,1.097c0.456-0.311,0.979-0.527,1.542-0.638v-1.55
		h1.58v1.55c0.561,0.111,1.086,0.327,1.541,0.638l1.096-1.097l1.119,1.119l-1.094,1.097c0.309,0.455,0.525,0.979,0.634,1.541h1.553
		V8.972z"/>
	<circle cx="11.933" cy="8.185" r="1.725"/>
</g>
</svg>
