<?xml version="1.0" encoding="utf-8"?>
<!-- Generator: Adobe Illustrator 16.0.4, SVG Export Plug-In . SVG Version: 6.00 Build 0)  -->
<!DOCTYPE svg PUBLIC "-//W3C//DTD SVG 1.1//EN" "http://www.w3.org/Graphics/SVG/1.1/DTD/svg11.dtd">
<svg version="1.1" id="Capa_1" xmlns="http://www.w3.org/2000/svg" xmlns:xlink="http://www.w3.org/1999/xlink" x="0px" y="0px"
	 width="22.598px" height="19.824px" viewBox="0 0 22.598 19.824" enable-background="new 0 0 22.598 19.824" xml:space="preserve">
<g>
	<rect x="7.37" y="17.822" width="7.856" height="2.002"/>
	<path d="M0,0v17.052h22.598V0H0z M19.542,16.089c-0.404,0-0.732-0.328-0.732-0.732s0.328-0.732,0.732-0.732
		s0.731,0.328,0.731,0.732S19.947,16.089,19.542,16.089z M20.757,13.537H1.84V1.438h18.917V13.537z"/>
	<path d="M3.859,7.252c0.029,0,0.053-0.015,0.082-0.017l3.007,1.815c0.143,0.542,0.614,0.951,1.201,0.951
		c0.657,0,1.179-0.506,1.242-1.147c1.657-0.941,4.278-2.431,5.252-2.984c0.166,0.08,0.346,0.133,0.542,0.133
		c0.137,0,0.262-0.038,0.385-0.078c0.517,0.236,1.276,0.583,1.973,0.9c0.062,0.64,0.584,1.146,1.241,1.146
		c0.698,0,1.265-0.566,1.265-1.265s-0.566-1.265-1.265-1.265c-0.279,0-0.524,0.108-0.733,0.262l-1.644-0.75
		c0.014-0.073,0.044-0.139,0.044-0.215c0-0.699-0.566-1.265-1.266-1.265c-0.698,0-1.265,0.566-1.265,1.265
		c0,0.04,0.02,0.074,0.022,0.113c-1.353,0.769-3.747,2.129-5.065,2.879C8.669,7.58,8.426,7.472,8.149,7.472
		c-0.334,0-0.633,0.135-0.859,0.347C6.667,7.443,5.774,6.904,5.03,6.455C5.088,6.31,5.124,6.153,5.124,5.987
		c0-0.698-0.566-1.265-1.266-1.265c-0.698,0-1.265,0.566-1.265,1.265C2.594,6.686,3.16,7.252,3.859,7.252z"/>
</g>
</svg>
