<?xml version="1.0" encoding="utf-8"?>
<!-- Generator: Adobe Illustrator 16.0.4, SVG Export Plug-In . SVG Version: 6.00 Build 0)  -->
<!DOCTYPE svg PUBLIC "-//W3C//DTD SVG 1.1//EN" "http://www.w3.org/Graphics/SVG/1.1/DTD/svg11.dtd">
<svg version="1.1" id="Capa_1" xmlns="http://www.w3.org/2000/svg" xmlns:xlink="http://www.w3.org/1999/xlink" x="0px" y="0px"
	 width="23.303px" height="16.115px" viewBox="0 0 23.303 16.115" enable-background="new 0 0 23.303 16.115" xml:space="preserve">
<path d="M16.853,0.109c-3.382,0.672-3.141,3.424-5.86,4.581C9.789,5.201,7.015,5.51,6.713,5.367
	C4.871,4.501,2.162,2.335,2.162,2.335s0.242,1.764,1.186,3.287C1.141,5.1,0,3.971,0,3.971s1.462,12.738,11.441,12.123
	c7.594-0.467,7.141-7.188,8.385-9.144c1.242-1.953,3.477-1.548,3.477-1.548S21.936-0.899,16.853,0.109z M18.63,3.941
	c-0.464,0-0.839-0.376-0.839-0.839s0.375-0.839,0.839-0.839c0.462,0,0.838,0.377,0.838,0.839S19.093,3.941,18.63,3.941z"/>
</svg>
