<?xml version="1.0" encoding="utf-8"?>
<!-- Generator: Adobe Illustrator 16.0.4, SVG Export Plug-In . SVG Version: 6.00 Build 0)  -->
<!DOCTYPE svg PUBLIC "-//W3C//DTD SVG 1.1//EN" "http://www.w3.org/Graphics/SVG/1.1/DTD/svg11.dtd">
<svg version="1.1" id="Capa_1" xmlns="http://www.w3.org/2000/svg" xmlns:xlink="http://www.w3.org/1999/xlink" x="0px" y="0px"
	 width="23.053px" height="20.925px" viewBox="0 0 23.053 20.925" enable-background="new 0 0 23.053 20.925" xml:space="preserve">
<g>
	<polygon points="20.427,19.404 20.456,10.911 23.053,8.296 21.102,4.92 20.535,4.919 20.537,7.75 17.77,7.751 17.77,4.92 
		17.203,4.918 15.255,8.295 17.782,10.839 17.749,10.839 17.732,16.224 16.383,14.626 13.873,14.069 13.873,17.705 12.636,17.705 
		12.636,13.794 11.907,13.634 10.99,12.714 9.636,14.184 9.64,14.216 8.499,14.216 8.502,14.184 7.144,12.714 6.228,13.634 
		5.503,13.794 5.503,17.705 4.267,17.705 4.267,14.069 1.757,14.626 0,20.925 21.7,20.925 20.415,19.403 	"/>
	<path d="M9.075,12.822c2.062,0,3.75-2.874,4.165-5.426H4.908C5.317,9.968,7.013,12.822,9.075,12.822z"/>
	<path d="M14.703,5.773h-0.975C13.566,3.303,13.057,0,9.07,0C5.08,0,4.573,3.303,4.407,5.773H3.385v0.716h11.318V5.773z"/>
</g>
</svg>
