<?xml version="1.0" encoding="utf-8"?>
<!-- Generator: Adobe Illustrator 16.0.4, SVG Export Plug-In . SVG Version: 6.00 Build 0)  -->
<!DOCTYPE svg PUBLIC "-//W3C//DTD SVG 1.1//EN" "http://www.w3.org/Graphics/SVG/1.1/DTD/svg11.dtd">
<svg version="1.1" id="Capa_1" xmlns="http://www.w3.org/2000/svg" xmlns:xlink="http://www.w3.org/1999/xlink" x="0px" y="0px"
	 width="18.657px" height="23.303px" viewBox="0 0 18.657 23.303" enable-background="new 0 0 18.657 23.303" xml:space="preserve">
<path d="M16.985,21.743v-0.979h0.881V3.567h-1.103V2.498H16.09c0.052-0.174,0.084-0.355,0.084-0.547C16.174,0.874,15.303,0,14.226,0
	c-1.078,0-1.953,0.874-1.953,1.951c0,0.191,0.036,0.373,0.09,0.547H11.69v1.068H0.79v17.197h0.882v0.979H0v1.561h4.526v-1.561H2.854
	v-0.979h12.947v0.979h-1.672v1.561h4.527v-1.561H16.985z M13.434,4.91h1.943l-2.394,2.905h-1.938L13.434,4.91z M11.511,4.91
	L9.124,7.816H7.181l2.39-2.905H11.511z M7.652,4.91L5.259,7.816h-1.94L5.712,4.91H7.652z M1.675,5.12l0.174-0.209h1.94L1.675,7.477
	V5.12z M1.675,19.27v-2.355l0.174-0.21h1.94L1.675,19.27z M3.319,19.609l2.392-2.904h1.94l-2.393,2.904H3.319z M7.18,19.609
	l2.391-2.904h1.939l-2.387,2.904H7.18z M11.045,19.609l2.389-2.904h1.943l-2.394,2.904H11.045z M16.879,19.569l-0.032,0.039h-1.94
	l1.973-2.396V19.569z M16.879,7.776l-0.033,0.04h-1.939l1.973-2.396V7.776z"/>
</svg>
