<?xml version="1.0" encoding="utf-8"?>
<!-- Generator: Adobe Illustrator 16.0.4, SVG Export Plug-In . SVG Version: 6.00 Build 0)  -->
<!DOCTYPE svg PUBLIC "-//W3C//DTD SVG 1.1//EN" "http://www.w3.org/Graphics/SVG/1.1/DTD/svg11.dtd">
<svg version="1.1" id="Capa_1" xmlns="http://www.w3.org/2000/svg" xmlns:xlink="http://www.w3.org/1999/xlink" x="0px" y="0px"
	 width="23.303px" height="20.014px" viewBox="0 0 23.303 20.014" enable-background="new 0 0 23.303 20.014" xml:space="preserve">
<g>
	<path d="M17.24,0c-3.344,0-6.064,2.718-6.064,6.062v2.737H0v11.214h14.73V8.799H13.46V6.062c0-2.083,1.693-3.776,3.778-3.776
		c2.082,0,3.776,1.693,3.776,3.776v3.517h2.287V6.062C23.303,2.718,20.583,0,17.24,0z M8.407,16.938H6.328l0.312-3.072
		c-0.386-0.24-0.643-0.667-0.643-1.157c0-0.756,0.61-1.369,1.369-1.369c0.757,0,1.366,0.613,1.366,1.369
		c0,0.49-0.254,0.917-0.643,1.158L8.407,16.938z M13.46,9.579L13.46,9.579L13.46,9.579z"/>
</g>
</svg>
