<?xml version="1.0" encoding="utf-8"?>
<!-- Generator: Adobe Illustrator 16.0.4, SVG Export Plug-In . SVG Version: 6.00 Build 0)  -->
<!DOCTYPE svg PUBLIC "-//W3C//DTD SVG 1.1//EN" "http://www.w3.org/Graphics/SVG/1.1/DTD/svg11.dtd">
<svg version="1.1" id="Capa_1" xmlns="http://www.w3.org/2000/svg" xmlns:xlink="http://www.w3.org/1999/xlink" x="0px" y="0px"
	 width="23.656px" height="18.123px" viewBox="0 0 23.656 18.123" enable-background="new 0 0 23.656 18.123" xml:space="preserve">
<g>
	<path d="M19.891,6.378c0-0.007,0.002-0.049,0.002-0.049c0-3.49-2.84-6.329-6.33-6.329c-2.421,0-4.535,1.418-5.595,3.539
		C7.426,3.118,6.803,2.812,6.1,2.812c-1.722,0-3.124,1.4-3.124,3.124c0,0,0.021,0.152,0.037,0.27C1.253,6.805,0,8.414,0,10.319
		c0,1.176,0.458,2.283,1.29,3.113c0.833,0.834,1.938,1.293,3.116,1.293h6.039v3.397h3.892v-3.397h5.097
		c2.328,0,4.223-1.894,4.223-4.219C23.656,8.34,21.994,6.616,19.891,6.378z M19.434,13.481h-5.097v-2.594h2.535l-4.433-4.727
		l-4.528,4.727h2.534v2.594H4.406c-0.844,0-1.638-0.328-2.235-0.926c-0.597-0.598-0.925-1.392-0.925-2.234
		c0-1.515,1.076-2.819,2.561-3.104l0.58-0.111L4.29,6.437l-0.068-0.5c0-1.036,0.843-1.878,1.878-1.878
		c0.615,0,1.192,0.302,1.544,0.807L8.351,5.88l0.394-1.173c0.696-2.07,2.633-3.461,4.817-3.461c2.804,0,5.086,2.281,5.086,5.083
		l-0.062,1.192l0.701,0.014l0.146-0.004c1.643,0,2.977,1.335,2.977,2.977C22.41,12.147,21.076,13.481,19.434,13.481z"/>
</g>
</svg>
