<?xml version="1.0" encoding="utf-8"?>
<!-- Generator: Adobe Illustrator 16.0.4, SVG Export Plug-In . SVG Version: 6.00 Build 0)  -->
<!DOCTYPE svg PUBLIC "-//W3C//DTD SVG 1.1//EN" "http://www.w3.org/Graphics/SVG/1.1/DTD/svg11.dtd">
<svg version="1.1" id="Capa_1" xmlns="http://www.w3.org/2000/svg" xmlns:xlink="http://www.w3.org/1999/xlink" x="0px" y="0px"
	 width="16.064px" height="23.301px" viewBox="0 0 16.064 23.301" enable-background="new 0 0 16.064 23.301" xml:space="preserve">
<g>
	<path d="M8.07,11.856c3.274,0,5.929-2.654,5.929-5.93C13.998,2.656,11.345,0,8.07,0C4.795,0,2.143,2.656,2.143,5.927
		C2.143,9.202,4.795,11.856,8.07,11.856z M3.612,5.37h8.916c0.021,0.187,0.054,0.368,0.054,0.557c0,2.494-2.021,4.515-4.512,4.515
		S3.558,8.421,3.558,5.927C3.559,5.738,3.591,5.557,3.612,5.37z"/>
	<path d="M10.714,11.771c-0.334,1.169-1.401,2.034-2.685,2.034c-1.277,0-2.345-0.865-2.679-2.034C2.238,12.833,0,15.659,0,19.018
		v4.283h16.064v-4.283C16.065,15.659,13.825,12.833,10.714,11.771z"/>
</g>
</svg>
