<?xml version="1.0" encoding="utf-8"?>
<!-- Generator: Adobe Illustrator 16.0.4, SVG Export Plug-In . SVG Version: 6.00 Build 0)  -->
<!DOCTYPE svg PUBLIC "-//W3C//DTD SVG 1.1//EN" "http://www.w3.org/Graphics/SVG/1.1/DTD/svg11.dtd">
<svg version="1.1" id="Capa_1" xmlns="http://www.w3.org/2000/svg" xmlns:xlink="http://www.w3.org/1999/xlink" x="0px" y="0px"
	 width="23.303px" height="23.227px" viewBox="0 0 23.303 23.227" enable-background="new 0 0 23.303 23.227" xml:space="preserve">
<g>
	<path d="M23.069,0H0.233v14.944h22.836V0z M4.878,13.943h-3.1v-2.041h3.1V13.943z M4.878,10.311h-3.1V8.27h3.1V10.311z
		 M4.878,6.676h-3.1V4.635h3.1V6.676z M4.878,3.042h-3.1V1h3.1V3.042z M21.521,13.943h-3.096v-2.041h3.096V13.943z M21.521,10.311
		h-3.096V8.27h3.096V10.311z M21.521,6.676h-3.096V4.635h3.096V6.676z M21.521,3.042h-3.096V1h3.096V3.042z"/>
	<path d="M23.303,18.105H12.278c-0.5-1.614-1.99-2.798-3.766-2.798c-1.776,0-3.266,1.184-3.766,2.798H0v2.716h4.871
		c0.605,1.413,2.009,2.406,3.641,2.406c1.631,0,3.035-0.993,3.641-2.406h11.15V18.105z M11.115,19.267
		c0,1.436-1.167,2.603-2.604,2.603c-1.435-0.001-2.603-1.168-2.603-2.603s1.168-2.603,2.603-2.603
		C9.948,16.664,11.115,17.832,11.115,19.267z"/>
</g>
</svg>
