<?xml version="1.0" encoding="utf-8"?>
<!-- Generator: Adobe Illustrator 16.0.4, SVG Export Plug-In . SVG Version: 6.00 Build 0)  -->
<!DOCTYPE svg PUBLIC "-//W3C//DTD SVG 1.1//EN" "http://www.w3.org/Graphics/SVG/1.1/DTD/svg11.dtd">
<svg version="1.1" id="Capa_1" xmlns="http://www.w3.org/2000/svg" xmlns:xlink="http://www.w3.org/1999/xlink" x="0px" y="0px"
	 width="23.303px" height="23.247px" viewBox="0 0 23.303 23.247" enable-background="new 0 0 23.303 23.247" xml:space="preserve">
<g>
	<path d="M19.164,9.799h-2.792V5.328H0v12.59h16.372V14.34h2.789l4.142,3.441V6.353L19.164,9.799z M8.222,16.418
		c-2.261,0-4.158-1.547-4.702-3.639H2.414l1.655-1.657l1.654,1.657H4.631c0.513,1.494,1.923,2.569,3.59,2.569
		c1.774,0,3.256-1.215,3.677-2.854h1.101C12.556,14.728,10.585,16.418,8.222,16.418z M12.364,11.979l-1.654-1.656H11.8
		c-0.51-1.494-1.924-2.568-3.589-2.568c-1.773,0-3.256,1.214-3.674,2.855H3.437c0.438-2.235,2.407-3.923,4.772-3.923
		c2.26,0,4.156,1.545,4.702,3.636h1.106L12.364,11.979z"/>
</g>
</svg>
