<?xml version="1.0" encoding="utf-8"?>
<!-- Generator: Adobe Illustrator 16.0.4, SVG Export Plug-In . SVG Version: 6.00 Build 0)  -->
<!DOCTYPE svg PUBLIC "-//W3C//DTD SVG 1.1//EN" "http://www.w3.org/Graphics/SVG/1.1/DTD/svg11.dtd">
<svg version="1.1" id="Capa_1" xmlns="http://www.w3.org/2000/svg" xmlns:xlink="http://www.w3.org/1999/xlink" x="0px" y="0px"
	 width="21px" height="21px" viewBox="0 0 21 21" enable-background="new 0 0 21 21" xml:space="preserve">
<g>
	<path d="M18.792,0H2.211C0.995,0,0,0.993,0,2.21v16.58C0,20.004,0.995,21,2.211,21h16.581C20.006,21,21,20.004,21,18.79V2.21
		C21,0.993,20.006,0,18.792,0z M2.398,2.991h16.204v11.054H2.398V2.991z M19.482,18.027H8.168C7.97,18.859,7.226,19.48,6.332,19.48
		s-1.638-0.621-1.836-1.453H1.519v-0.875h2.975c0.198-0.834,0.943-1.457,1.838-1.457s1.64,0.623,1.838,1.457h11.312V18.027z"/>
	<rect x="12.434" y="4.594" width="2.26" height="7.583"/>
	<rect x="6.198" y="7.51" width="2.261" height="4.667"/>
	<rect x="9.316" y="6.271" width="2.261" height="5.906"/>
</g>
</svg>
