<?xml version="1.0" encoding="utf-8"?>
<!-- Generator: Adobe Illustrator 16.0.4, SVG Export Plug-In . SVG Version: 6.00 Build 0)  -->
<!DOCTYPE svg PUBLIC "-//W3C//DTD SVG 1.1//EN" "http://www.w3.org/Graphics/SVG/1.1/DTD/svg11.dtd">
<svg version="1.1" id="Capa_1" xmlns="http://www.w3.org/2000/svg" xmlns:xlink="http://www.w3.org/1999/xlink" x="0px" y="0px"
	 width="23.303px" height="24.066px" viewBox="0 0 23.303 24.066" enable-background="new 0 0 23.303 24.066" xml:space="preserve">
<g>
	<path d="M20.613,0H6.896C5.417,0,4.206,1.211,4.206,2.689V6.23C3.315,6.512,2.469,6.98,1.763,7.687
		c-2.351,2.352-2.351,6.165-0.001,8.52c2.113,2.113,5.398,2.31,7.75,0.627l1.007,0.972l-0.402,0.815l5.445,5.445
		c0,0,1.187,0.012,1.9-0.804c0.714-0.816,0.676-1.773,0.676-1.773l-5.443-5.445l-0.706,0.43l-1.076-1.042
		c0.144-0.201,0.262-0.411,0.377-0.624h9.323c1.479,0,2.69-1.21,2.69-2.688v-9.43C23.303,1.21,22.091,0,20.613,0z M9.3,15.227
		c-1.809,1.811-4.747,1.812-6.56-0.002c-1.812-1.812-1.812-4.746,0.003-6.557C4.55,6.855,7.488,6.854,9.304,8.666
		C11.113,10.478,11.113,13.413,9.3,15.227z M12.221,9.692V4.277l5.241,2.707L12.221,9.692z"/>
</g>
</svg>
