<?xml version="1.0" encoding="utf-8"?>
<!-- Generator: Adobe Illustrator 16.0.4, SVG Export Plug-In . SVG Version: 6.00 Build 0)  -->
<!DOCTYPE svg PUBLIC "-//W3C//DTD SVG 1.1//EN" "http://www.w3.org/Graphics/SVG/1.1/DTD/svg11.dtd">
<svg version="1.1" id="Capa_1" xmlns="http://www.w3.org/2000/svg" xmlns:xlink="http://www.w3.org/1999/xlink" x="0px" y="0px"
	 width="23.303px" height="22.564px" viewBox="0 0 23.303 22.564" enable-background="new 0 0 23.303 22.564" xml:space="preserve">
<path d="M13.139,0C7.535,0,2.975,4.56,2.975,10.165c0,2.02,0.599,3.898,1.619,5.482l-4.126,4.061l0.009,0.011
	c-0.637,0.659-0.637,1.707,0.013,2.354c0.646,0.652,1.696,0.655,2.356,0.016l0.01,0.013l4.017-3.95
	c1.729,1.36,3.903,2.18,6.268,2.18c5.604,0,10.164-4.56,10.164-10.165C23.303,4.56,18.743,0,13.139,0z M2.163,21.455
	c-0.291,0.288-0.761,0.289-1.054-0.003c-0.288-0.291-0.29-0.761,0-1.05s0.76-0.291,1.051-0.001
	C2.45,20.692,2.45,21.163,2.163,21.455z M19.281,8.759c-0.109,0.764-1.418,1.636-1.091,2.399c0.327,0.763-0.218,1.635-0.218,1.635
	S17.427,15.3,17.1,15.627s-2.289,1.2-1.854,1.745c0.438,0.544,1.744-0.108,3.053-0.437c0.323-0.081,0.646-0.181,0.955-0.296
	c-1.599,1.511-3.748,2.444-6.115,2.444c-2.017,0-3.874-0.682-5.37-1.815l3.506-3.448l4.609-0.013l1.259-4.71l-0.5-0.505
	l-2.501,2.507l-2.446-2.444l2.503-2.504l-0.5-0.503L8.988,6.912l-0.015,4.48l-0.027-0.027l-3.441,3.386
	c-0.61-1.011-1.023-2.148-1.191-3.367C5.07,10.99,6.301,10.328,6.744,9.96c0.653-0.545-0.22-0.763-0.327-1.091
	c-0.109-0.327,0-1.09,0-1.853c0-0.764,1.524-0.765,2.069-1.527c0.39-0.543-0.324-1.74-0.769-2.39
	c1.504-1.157,3.381-1.854,5.421-1.854c0.54,0,1.067,0.056,1.581,0.149c0.152,0.939,0.466,2.231,1.072,2.568
	c0.98,0.544,2.181,1.744,2.617,1.962C18.847,6.143,19.389,7.997,19.281,8.759z M20.59,9.414c-0.54-0.387-0.982-2.072-0.654-2.617
	c0.196-0.329,0.708-0.616,1.086-0.793c0.659,1.243,1.036,2.658,1.036,4.161c0,0.451-0.045,0.892-0.109,1.325
	C21.757,10.723,21.385,9.985,20.59,9.414z"/>
</svg>
