<?xml version="1.0" encoding="utf-8"?>
<!-- Generator: Adobe Illustrator 16.0.4, SVG Export Plug-In . SVG Version: 6.00 Build 0)  -->
<!DOCTYPE svg PUBLIC "-//W3C//DTD SVG 1.1//EN" "http://www.w3.org/Graphics/SVG/1.1/DTD/svg11.dtd">
<svg version="1.1" id="Capa_1" xmlns="http://www.w3.org/2000/svg" xmlns:xlink="http://www.w3.org/1999/xlink" x="0px" y="0px"
	 width="23.305px" height="21.273px" viewBox="0 0 23.305 21.273" enable-background="new 0 0 23.305 21.273" xml:space="preserve">
<g>
	<path d="M19.512,8.013v10.852H6.136V5.391h10.853l0.982-1.032c0,0,1.501-1.532,2.945-2.243V0H0v21.273h20.917V6.681
		c-0.196,0.197-0.324,0.315-0.324,0.315S20.117,7.444,19.512,8.013z"/>
	<path d="M22.429,2.641c-0.884-0.64-3.9,2.276-3.9,2.276s-2.624,2.689-3.671,3.857c0.146,0.249,0.347,0.509,0.592,0.758
		c0.23,0.228,0.468,0.418,0.697,0.562c1.177-1.041,3.889-3.662,3.889-3.662S23.312,3.28,22.429,2.641z"/>
	<path d="M12.813,12.748c0.747-0.479,1.825-1.331,3.116-2.459c-0.227-0.142-0.461-0.325-0.686-0.553
		c-0.241-0.243-0.437-0.498-0.584-0.739c-1.124,1.272-1.974,2.338-2.462,3.081c-0.151-0.003-1.47-0.014-2.41,0.922
		c-0.999,0.993-1.005,3.466-1.005,3.466s0.647-0.955,1.821-1.198C11.964,14.987,12.596,14.148,12.813,12.748z"/>
</g>
</svg>
