<?xml version="1.0" encoding="utf-8"?>
<!-- Generator: Adobe Illustrator 16.0.4, SVG Export Plug-In . SVG Version: 6.00 Build 0)  -->
<!DOCTYPE svg PUBLIC "-//W3C//DTD SVG 1.1//EN" "http://www.w3.org/Graphics/SVG/1.1/DTD/svg11.dtd">
<svg version="1.1" id="Capa_1" xmlns="http://www.w3.org/2000/svg" xmlns:xlink="http://www.w3.org/1999/xlink" x="0px" y="0px"
	 width="25.305px" height="23.379px" viewBox="0 0 25.305 23.379" enable-background="new 0 0 25.305 23.379" xml:space="preserve">
<path d="M21.292,2.908l-1.004,1.004V0H0v23.379h20.289V11.933l5.014-5.015L21.292,2.908z M19.052,22.145c-1.112,0-16.701,0-17.815,0
	c0-1.138,0-19.772,0-20.911c1.114,0,16.703,0,17.815,0c0,0.3,0,1.823,0,3.915L6.258,17.943l4.011,4.011l8.783-8.784
	C19.052,17.578,19.052,21.633,19.052,22.145z M17.748,9.563l-0.732,0.733L15.828,9.11l0.731-0.735L17.748,9.563z M15.696,11.615
	l-0.733,0.734l-1.188-1.188l0.733-0.735L15.696,11.615z M13.644,13.67L12.91,14.4l-1.187-1.185l0.732-0.733L13.644,13.67z
	 M11.59,15.721l-0.733,0.735l-1.188-1.188l0.735-0.731L11.59,15.721z M9.538,17.775l-0.734,0.73l-1.188-1.188l0.733-0.73
	L9.538,17.775z M19.069,8.245l-1.188-1.189l0.736-0.734l1.186,1.185L19.069,8.245z M19.935,5.002l0.733-0.733l1.188,1.184
	L21.123,6.19L19.935,5.002z"/>
</svg>
