<?xml version="1.0" encoding="utf-8"?>
<!-- Generator: Adobe Illustrator 16.0.4, SVG Export Plug-In . SVG Version: 6.00 Build 0)  -->
<!DOCTYPE svg PUBLIC "-//W3C//DTD SVG 1.1//EN" "http://www.w3.org/Graphics/SVG/1.1/DTD/svg11.dtd">
<svg version="1.1" id="Capa_1" xmlns="http://www.w3.org/2000/svg" xmlns:xlink="http://www.w3.org/1999/xlink" x="0px" y="0px"
	 width="22.975px" height="22.977px" viewBox="0 0 22.975 22.977" enable-background="new 0 0 22.975 22.977" xml:space="preserve">
<g>
	<path d="M20.484,0H2.49C1.121,0,0,1.122,0,2.492v17.993c0,1.37,1.121,2.491,2.49,2.491h17.993c1.37,0,2.49-1.122,2.49-2.491V2.492
		C22.975,1.122,21.854,0,20.484,0z M19.836,2.059c0.649,0,1.176,0.526,1.176,1.176s-0.526,1.176-1.176,1.176
		S18.66,3.885,18.66,3.235S19.187,2.059,19.836,2.059z M16.167,2.058c0.649,0,1.177,0.526,1.177,1.177s-0.527,1.177-1.177,1.177
		c-0.65,0-1.177-0.526-1.177-1.177S15.517,2.058,16.167,2.058z M21.09,20.839H1.887V6.099H21.09V20.839z"/>
	<rect x="5.938" y="14.698" width="3.673" height="3.672"/>
	<rect x="13.513" y="14.698" width="3.674" height="3.672"/>
	<rect x="5.938" y="8.729" width="3.673" height="3.672"/>
	<rect x="13.513" y="8.729" width="3.674" height="3.672"/>
</g>
</svg>
