<?xml version="1.0" encoding="utf-8"?>
<!-- Generator: Adobe Illustrator 16.0.4, SVG Export Plug-In . SVG Version: 6.00 Build 0)  -->
<!DOCTYPE svg PUBLIC "-//W3C//DTD SVG 1.1//EN" "http://www.w3.org/Graphics/SVG/1.1/DTD/svg11.dtd">
<svg version="1.1" id="Capa_1" xmlns="http://www.w3.org/2000/svg" xmlns:xlink="http://www.w3.org/1999/xlink" x="0px" y="0px"
	 width="22px" height="21.35px" viewBox="0 0 22 21.35" enable-background="new 0 0 22 21.35" xml:space="preserve">
<g>
	<path d="M6.542,10.425L5.11,11.856l1.464,1.46l1.432-1.43c0.598,0.406,1.282,0.69,2.018,0.831v2.029h2.066v-2.029
		c0.735-0.141,1.419-0.425,2.018-0.831l1.431,1.43l1.465-1.46l-1.433-1.433c0.404-0.598,0.688-1.281,0.83-2.016h2.031V6.341H16.4
		c-0.143-0.737-0.426-1.421-0.832-2.018l1.434-1.435L15.537,1.43l-1.43,1.432c-0.6-0.405-1.282-0.688-2.019-0.832V0h-2.066V2.03
		c-0.735,0.144-1.42,0.426-2.018,0.832L6.574,1.43L5.11,2.89l1.432,1.435c-0.403,0.597-0.688,1.279-0.83,2.018H3.685v2.067h2.027
		C5.854,9.143,6.139,9.826,6.542,10.425z M11.057,5.12c1.246,0,2.251,1.01,2.251,2.256s-1.006,2.251-2.251,2.251
		c-1.245,0-2.256-1.005-2.256-2.251S9.812,5.12,11.057,5.12z"/>
	<path d="M18.782,14.915H14.5c-1.507,0-2.766,1.045-3.113,2.445h-0.773c-0.348-1.4-1.606-2.445-3.113-2.445H3.218
		C1.443,14.915,0,16.358,0,18.132s1.443,3.218,3.218,3.218H7.5c1.53,0,2.809-1.076,3.134-2.509h0.732
		c0.325,1.433,1.604,2.509,3.134,2.509h4.282c1.774,0,3.218-1.442,3.218-3.218S20.557,14.915,18.782,14.915z M7.5,19.846H3.218
		c-0.944,0-1.714-0.769-1.714-1.713s0.77-1.713,1.714-1.713H7.5c0.666,0,1.237,0.385,1.521,0.94h-1.68
		c-0.472,0-0.854,0.332-0.854,0.74c0,0.409,0.382,0.741,0.854,0.741h1.715C8.785,19.433,8.191,19.846,7.5,19.846z M18.782,19.846
		H14.5c-0.691,0-1.285-0.413-1.557-1.004h1.716c0.473,0,0.854-0.332,0.854-0.741s-0.383-0.74-0.854-0.74h-1.681
		c0.283-0.556,0.854-0.94,1.521-0.94h4.282c0.943,0,1.714,0.769,1.714,1.713S19.727,19.846,18.782,19.846z"/>
</g>
</svg>
