<?xml version="1.0" encoding="utf-8"?>
<!-- Generator: Adobe Illustrator 16.0.4, SVG Export Plug-In . SVG Version: 6.00 Build 0)  -->
<!DOCTYPE svg PUBLIC "-//W3C//DTD SVG 1.1//EN" "http://www.w3.org/Graphics/SVG/1.1/DTD/svg11.dtd">
<svg version="1.1" id="Capa_1" xmlns="http://www.w3.org/2000/svg" xmlns:xlink="http://www.w3.org/1999/xlink" x="0px" y="0px"
	 width="23.303px" height="23.122px" viewBox="0 0 23.303 23.122" enable-background="new 0 0 23.303 23.122" xml:space="preserve">
<g>
	<path d="M21.129,3.079h-1.086V2.173C20.042,0.978,19.064,0,17.87,0H2.173C0.979,0,0,0.978,0,2.173V17.87
		c0,1.194,0.979,2.174,2.173,2.174H3.26v0.906c0,1.194,0.978,2.172,2.173,2.172h15.696c1.195,0,2.174-0.979,2.174-2.172V5.252
		C23.303,4.057,22.324,3.079,21.129,3.079z M1.645,4.505h16.753v13.674H1.645V4.505z M4.905,21.256v-1.213H17.87
		c1.193,0,2.173-0.979,2.173-2.174V7.583h1.615v13.673H4.905z"/>
	<path d="M5.956,12.029c0.115,0.601,0.348,1.159,0.677,1.647l-1.169,1.17l1.195,1.193l1.169-1.17
		c0.488,0.332,1.047,0.563,1.646,0.68v1.658h1.688v-1.658c0.601-0.116,1.158-0.348,1.646-0.68l1.17,1.17l1.195-1.193l-1.17-1.17
		c0.331-0.488,0.563-1.047,0.677-1.647h1.66v-1.688h-1.659c-0.113-0.602-0.346-1.161-0.677-1.649l1.17-1.169L13.98,6.33l-1.17,1.169
		c-0.488-0.331-1.046-0.562-1.646-0.678V5.162H9.475v1.659c-0.6,0.117-1.159,0.347-1.646,0.678L6.659,6.33L5.464,7.523l1.169,1.169
		c-0.33,0.488-0.562,1.047-0.677,1.649H4.298v1.688H5.956z M10.319,13.025c-1.017,0-1.842-0.823-1.842-1.84
		c0-1.017,0.825-1.841,1.842-1.841c1.018,0,1.842,0.824,1.842,1.841C12.16,12.202,11.336,13.025,10.319,13.025z"/>
</g>
</svg>
