<?xml version="1.0" encoding="utf-8"?>
<!-- Generator: Adobe Illustrator 16.0.4, SVG Export Plug-In . SVG Version: 6.00 Build 0)  -->
<!DOCTYPE svg PUBLIC "-//W3C//DTD SVG 1.1//EN" "http://www.w3.org/Graphics/SVG/1.1/DTD/svg11.dtd">
<svg version="1.1" id="Capa_1" xmlns="http://www.w3.org/2000/svg" xmlns:xlink="http://www.w3.org/1999/xlink" x="0px" y="0px"
	 width="21px" height="21px" viewBox="0 0 21 21" enable-background="new 0 0 21 21" xml:space="preserve">
<g>
	<path d="M18.723,0H2.277C1.025,0,0,1.025,0,2.277v16.445C0,19.974,1.025,21,2.277,21h16.446C19.975,21,21,19.974,21,18.722V2.277
		C21,1.025,19.975,0,18.723,0z M19.275,19.046H1.725V4.72h17.55V19.046z"/>
	<path d="M10.394,5.841c-1.49,0.026-2.975,0.604-4.113,1.742c-1.138,1.138-1.716,2.621-1.742,4.112c2.716,0,5.52,0,5.855,0
		C10.394,11.343,10.394,8.475,10.394,5.841z"/>
	<path d="M6.281,16.017c2.244,2.244,5.828,2.318,8.169,0.24l-3.848-3.848H4.567C4.701,13.727,5.272,15.007,6.281,16.017z"/>
	<path d="M14.716,7.583c-1.011-1.01-2.29-1.58-3.608-1.715v6.036l3.848,3.848C17.035,13.41,16.96,9.826,14.716,7.583z"/>
</g>
</svg>
