<?xml version="1.0" encoding="utf-8"?>
<!-- Generator: Adobe Illustrator 16.0.4, SVG Export Plug-In . SVG Version: 6.00 Build 0)  -->
<!DOCTYPE svg PUBLIC "-//W3C//DTD SVG 1.1//EN" "http://www.w3.org/Graphics/SVG/1.1/DTD/svg11.dtd">
<svg version="1.1" id="Capa_1" xmlns="http://www.w3.org/2000/svg" xmlns:xlink="http://www.w3.org/1999/xlink" x="0px" y="0px"
	 width="23.303px" height="22.146px" viewBox="0 0 23.303 22.146" enable-background="new 0 0 23.303 22.146" xml:space="preserve">
<g>
	<path d="M3.912,8.564l1.954,1.954c3.241-3.03,8.343-2.968,11.504,0.194c0.022,0.021,0.044,0.045,0.064,0.066l1.954-1.953
		c-0.021-0.021-0.042-0.045-0.063-0.066C15.086,4.521,8.232,4.459,3.912,8.564z"/>
	<path d="M10.146,11.527c-0.904,0.903-0.902,2.369,0,3.271c0.154,0.154,0.33,0.272,0.513,0.374v6.973h1.985V15.31
		c0.282-0.112,0.545-0.283,0.772-0.511c0.904-0.903,0.904-2.368,0-3.271C12.516,10.625,11.05,10.624,10.146,11.527z M12.558,13.373
		c-0.434,0-0.786-0.353-0.786-0.786c0-0.435,0.353-0.788,0.786-0.788c0.436,0,0.787,0.354,0.787,0.788
		C13.345,13.021,12.993,13.373,12.558,13.373z"/>
	<path d="M23.238,4.847C16.842-1.552,6.478-1.612,0,4.652l1.953,1.952c5.4-5.188,14.012-5.124,19.332,0.197
		c0.021,0.021,0.042,0.046,0.064,0.066l1.953-1.953C23.28,4.892,23.261,4.868,23.238,4.847z"/>
</g>
</svg>
