<?xml version="1.0" encoding="utf-8"?>
<!-- Generator: Adobe Illustrator 16.0.4, SVG Export Plug-In . SVG Version: 6.00 Build 0)  -->
<!DOCTYPE svg PUBLIC "-//W3C//DTD SVG 1.1//EN" "http://www.w3.org/Graphics/SVG/1.1/DTD/svg11.dtd">
<svg version="1.1" id="Capa_1" xmlns="http://www.w3.org/2000/svg" xmlns:xlink="http://www.w3.org/1999/xlink" x="0px" y="0px"
	 width="23.043px" height="23.303px" viewBox="0 0 23.043 23.303" enable-background="new 0 0 23.043 23.303" xml:space="preserve">
<g>
	<path d="M12.004,7.023l2.428-0.032c0.319-0.004,0.736,0.208,0.922,0.471l1.401,1.982c0.187,0.261,0.415,0.226,0.511-0.083
		l0.723-2.317c0.093-0.309,0.422-0.637,0.729-0.732l2.317-0.72c0.309-0.094,0.345-0.324,0.083-0.51l-1.983-1.403
		c-0.263-0.186-0.475-0.599-0.468-0.92l0.029-2.428c0.004-0.319-0.202-0.428-0.461-0.234l-1.945,1.452
		c-0.256,0.192-0.715,0.264-1.021,0.163L12.971,0.93c-0.305-0.102-0.471,0.062-0.369,0.365l0.783,2.299
		c0.1,0.302,0.029,0.763-0.16,1.022L11.77,6.56C11.576,6.819,11.684,7.025,12.004,7.023z"/>
	<path d="M22.994,20.037l0.04-0.041L3.385,0.351L3.363,0.372C3.36,0.371,3.36,0.368,3.357,0.367
		c-0.325-0.329-1.322,0.134-2.22,1.031C0.241,2.297-0.222,3.29,0.105,3.619c0.002,0.003,0.006,0.003,0.007,0.004L0.089,3.647
		l19.647,19.648l0.039-0.042c0.39,0.206,1.303-0.245,2.136-1.08C22.749,21.337,23.198,20.425,22.994,20.037z M5.687,5.95
		C5.212,6.425,4.711,6.773,4.295,6.953L1.389,4.03C1.803,3.849,2.298,3.502,2.77,3.032c0.469-0.471,0.812-0.961,0.995-1.373
		l2.913,2.93C6.496,5,6.151,5.485,5.687,5.95z"/>
</g>
</svg>
